<svg width="60" height="60" viewBox="0 0 60 60" fill="none" xmlns="http://www.w3.org/2000/svg">
<path d="M40 0H33.3333V6.66667H40V0ZM33.3333 23.3333H26.6667V6.66667H33.3333V23.3333ZM60 30H53.3333V16.6667H60V30ZM53.3333 36.6667H46.6667V30H53.3333V36.6667ZM13.3333 30H6.66667V23.3333H13.3333V30ZM6.66667 36.6667H0V30H6.66667V36.6667ZM30 53.3333H36.6667V60H30V53.3333ZM5 55V45H15V55H5ZM16.6667 40H3.33333C1.5 40 0 41.5 0 43.3333V56.6667C0 58.5 1.5 60 3.33333 60H16.6667C18.5 60 20 58.5 20 56.6667V43.3333C20 41.5 18.5 40 16.6667 40ZM5 15V5H15V15H5ZM16.6667 0H3.33333C1.5 0 0 1.5 0 3.33334V16.6667C0 18.5 1.5 20 3.33333 20H16.6667C18.5 20 20 18.5 20 16.6667V3.33334C20 1.5 18.5 0 16.6667 0ZM45 55V45H55V55H45ZM56.6667 40H43.3333C41.5 40 40 41.5 40 43.3333V56.6667C40 58.5 41.5 60 43.3333 60H56.6667C58.5 60 60 58.5 60 56.6667V43.3333C60 41.5 58.5 40 56.6667 40ZM53.3333 6.66667V16.6667H40V10H46.6667V0H60V6.66667H53.3333ZM46.6667 30H33.3333V23.3333H46.6667V30ZM33.3333 36.6667H13.3333V30H20V23.3333H26.6667V30H33.3333V36.6667ZM36.6667 40V46.6667H30V53.3333H23.3333V40H36.6667ZM12.5 52.5H7.5V47.5H12.5V52.5ZM12.5 12.5H7.5V7.5H12.5V12.5ZM52.5 52.5H47.5V47.5H52.5V52.5Z" fill="url(#paint0_linear_369_18216)"/>
<defs>
<linearGradient id="paint0_linear_369_18216" x1="12.9834" y1="30.4513" x2="39.1115" y2="17.1072" gradientUnits="userSpaceOnUse">
<stop stop-color="white"/>
<stop offset="1" stop-color="#FAFAFA"/>
</linearGradient>
</defs>
</svg>
