<svg width="1647" height="680" viewBox="0 0 1647 680" fill="none" xmlns="http://www.w3.org/2000/svg">
  <path d="M0.666667 527C0.666667 529.946 3.05448 532.333 6 532.333C8.94552 532.333 11.3333 529.946 11.3333 527C11.3333 524.054 8.94552 521.667 6 521.667C3.05448 521.667 0.666667 524.054 0.666667 527ZM155 0L149.226 10H160.774L155 0ZM7 527V316.116H5V527H7ZM46 277.116H115V275.116H46V277.116ZM156 236.116V9H154V236.116H156ZM115 277.116C137.644 277.116 156 258.759 156 236.116H154C154 257.655 136.539 275.116 115 275.116V277.116ZM7 316.116C7 294.577 24.4609 277.116 46 277.116V275.116C23.3563 275.116 5 293.472 5 316.116H7Z" fill="#F0F0F0" />
  <path d="M981.167 674.5C981.167 677.446 983.554 679.833 986.5 679.833C989.446 679.833 991.833 677.446 991.833 674.5C991.833 671.554 989.446 669.167 986.5 669.167C983.554 669.167 981.167 671.554 981.167 674.5ZM1640.5 204L1634.73 214H1646.27L1640.5 204ZM1154.76 599.93L1154.35 599.016L1154.76 599.93ZM986.905 675.414L1155.16 600.845L1154.35 599.016L986.095 673.586L986.905 675.414ZM1170.97 597.5H1558V595.5H1170.97V597.5ZM1599 556.5V487.25H1597V556.5H1599ZM1641.5 444.75V213H1639.5V444.75H1641.5ZM1619.25 467C1631.54 467 1641.5 457.038 1641.5 444.75H1639.5C1639.5 455.934 1630.43 465 1619.25 465V467ZM1599 487.25C1599 476.066 1608.07 467 1619.25 467V465C1606.96 465 1597 474.962 1597 487.25H1599ZM1558 597.5C1580.64 597.5 1599 579.144 1599 556.5H1597C1597 578.039 1579.54 595.5 1558 595.5V597.5ZM1155.16 600.845C1160.14 598.639 1165.52 597.5 1170.97 597.5V595.5C1165.24 595.5 1159.59 596.698 1154.35 599.016L1155.16 600.845Z" fill="#F0F0F0" />
</svg>