<svg width="788" height="1840" viewBox="0 0 788 1840" fill="none" xmlns="http://www.w3.org/2000/svg">
  <path d="M203.167 6.00001C203.167 8.94553 205.554 11.3333 208.5 11.3333C211.446 11.3333 213.833 8.94553 213.833 6.00001C213.833 3.05449 211.446 0.666679 208.5 0.666679C205.554 0.666679 203.167 3.05449 203.167 6.00001ZM401 1834L391 1828.23L391 1839.77L401 1834ZM208.5 5.00001L41 5.00001L41 7.00001L208.5 7.00001L208.5 5.00001ZM5.12162e-07 46L4.39179e-06 349L2 349L2 46L5.12162e-07 46ZM41 390L529 390L529 388L41 388L41 390ZM568 429L568 933L570 933L570 429L568 429ZM609 974L746.5 974L746.5 972L609 972L609 974ZM785.5 1013L785.5 1251L787.5 1251L787.5 1013L785.5 1013ZM746.5 1290L322.5 1290L322.5 1292L746.5 1292L746.5 1290ZM281.5 1331L281.5 1794L283.5 1794L283.5 1331L281.5 1331ZM322.5 1835L392 1835L392 1833L322.5 1833L322.5 1835ZM281.5 1794C281.5 1816.64 299.856 1835 322.5 1835L322.5 1833C300.961 1833 283.5 1815.54 283.5 1794L281.5 1794ZM322.5 1290C299.856 1290 281.5 1308.36 281.5 1331L283.5 1331C283.5 1309.46 300.961 1292 322.5 1292L322.5 1290ZM785.5 1251C785.5 1272.54 768.039 1290 746.5 1290L746.5 1292C769.144 1292 787.5 1273.64 787.5 1251L785.5 1251ZM746.5 974C768.039 974 785.5 991.461 785.5 1013L787.5 1013C787.5 990.356 769.144 972 746.5 972L746.5 974ZM568 933C568 955.644 586.356 974 609 974L609 972C587.461 972 570 954.539 570 933L568 933ZM529 390C550.539 390 568 407.461 568 429L570 429C570 406.356 551.644 388 529 388L529 390ZM4.39179e-06 349C4.68172e-06 371.644 18.3563 390 41 390L41 388C19.4609 388 2 370.539 2 349L4.39179e-06 349ZM41 5.00001C18.3563 5.00002 2.22231e-07 23.3563 5.12162e-07 46L2 46C2 24.4609 19.4609 7.00002 41 7.00001L41 5.00001Z" fill="#F0F0F0" />
</svg>