<svg width="210" height="210" viewBox="0 0 210 210" fill="none" xmlns="http://www.w3.org/2000/svg">
<path d="M194.194 113.818L194.09 115.502C193.288 115.365 192.58 115.089 191.966 114.675C191.351 114.262 190.878 113.701 190.546 112.994C190.22 112.287 190.089 111.421 190.152 110.398C190.198 109.649 190.381 108.977 190.699 108.38C191.018 107.789 191.448 107.29 191.99 106.884C192.537 106.477 193.181 106.176 193.921 105.981C194.666 105.793 195.487 105.726 196.381 105.781L197.653 105.86C198.548 105.915 199.351 106.082 200.062 106.361C200.778 106.646 201.382 107.027 201.875 107.503C202.368 107.986 202.735 108.552 202.977 109.201C203.219 109.85 203.315 110.569 203.266 111.358C203.207 112.323 202.975 113.128 202.571 113.772C202.167 114.416 201.632 114.903 200.966 115.232C200.306 115.566 199.552 115.752 198.704 115.787L198.808 114.103C199.41 114.058 199.931 113.938 200.371 113.742C200.818 113.546 201.171 113.251 201.43 112.856C201.689 112.461 201.839 111.933 201.88 111.273C201.915 110.705 201.838 110.199 201.648 109.752C201.458 109.312 201.173 108.934 200.794 108.617C200.414 108.305 199.951 108.06 199.404 107.879C198.858 107.698 198.245 107.587 197.567 107.545L196.277 107.466C195.651 107.427 195.06 107.455 194.502 107.55C193.944 107.65 193.449 107.822 193.017 108.065C192.585 108.309 192.237 108.631 191.971 109.031C191.712 109.432 191.564 109.916 191.529 110.483C191.485 111.202 191.563 111.783 191.765 112.224C191.967 112.665 192.274 113.007 192.688 113.249C193.101 113.498 193.603 113.687 194.194 113.818Z" fill="white"/>
<path d="M202.298 120.249L201.947 121.854L190.859 123.722L200.158 130.037L199.805 131.651L188.415 123.836L188.689 122.582L202.298 120.249ZM202.412 119.725L202.102 121.142L194.427 119.707L189.55 118.641L189.91 116.992L202.412 119.725ZM200.002 130.75L199.693 132.166L187.191 129.434L187.551 127.785L192.428 128.851L200.002 130.75Z" fill="white"/>
<path d="M189.168 143.232L188.416 142.937C187.521 142.586 186.763 142.159 186.142 141.657C185.52 141.155 185.044 140.597 184.712 139.982C184.381 139.368 184.2 138.714 184.169 138.022C184.136 137.336 184.262 136.63 184.547 135.905C184.823 135.201 185.208 134.606 185.701 134.12C186.192 133.639 186.77 133.28 187.435 133.044C188.098 132.814 188.831 132.72 189.632 132.764C190.433 132.808 191.281 133.005 192.175 133.356L192.928 133.651C193.822 134.002 194.577 134.431 195.19 134.936C195.807 135.449 196.281 136.015 196.61 136.635C196.945 137.258 197.129 137.912 197.161 138.598C197.192 139.29 197.069 139.988 196.793 140.692C196.509 141.417 196.121 142.02 195.63 142.501C195.137 142.987 194.557 143.342 193.89 143.565C193.227 143.796 192.497 143.884 191.7 143.829C190.907 143.782 190.063 143.583 189.168 143.232ZM189.029 141.374L189.798 141.676C190.507 141.954 191.163 142.127 191.766 142.193C192.367 142.266 192.908 142.235 193.388 142.103C193.868 141.97 194.283 141.739 194.632 141.411C194.979 141.088 195.252 140.672 195.451 140.165C195.644 139.674 195.723 139.192 195.688 138.719C195.652 138.251 195.503 137.803 195.244 137.374C194.982 136.95 194.608 136.555 194.123 136.188C193.637 135.821 193.04 135.499 192.331 135.221L191.562 134.919C190.847 134.638 190.185 134.466 189.574 134.403C188.969 134.342 188.422 134.379 187.934 134.515C187.45 134.658 187.035 134.889 186.69 135.207C186.343 135.53 186.073 135.937 185.881 136.428C185.679 136.941 185.596 137.434 185.631 137.907C185.665 138.38 185.815 138.826 186.079 139.244C186.346 139.67 186.724 140.061 187.214 140.416C187.709 140.774 188.314 141.094 189.029 141.374Z" fill="white"/>
<path d="M190.729 153.108L179.524 146.926L180.331 145.464L191.536 151.645L190.729 153.108ZM188.743 156.709L187.527 156.038L192.303 147.381L193.519 148.051L188.743 156.709Z" fill="white"/>
<path d="M178.053 158.441L180.065 155.676L181.18 156.487L179.169 159.252C178.78 159.788 178.55 160.283 178.479 160.739C178.408 161.195 178.469 161.609 178.662 161.981C178.852 162.358 179.141 162.688 179.529 162.97C179.885 163.229 180.276 163.394 180.702 163.465C181.125 163.541 181.552 163.482 181.983 163.288C182.419 163.098 182.831 162.735 183.221 162.199L184.999 159.754L175.774 153.043L176.771 151.672L187.12 159.199L184.344 163.016C183.775 163.798 183.159 164.361 182.496 164.704C181.833 165.048 181.16 165.186 180.479 165.117C179.801 165.052 179.157 164.797 178.546 164.353C177.882 163.87 177.418 163.318 177.152 162.698C176.886 162.077 176.827 161.407 176.973 160.687C177.125 159.971 177.485 159.222 178.053 158.441Z" fill="white"/>
<path d="M165.483 167.497L164.476 166.553L169.108 161.608L170.116 162.551L165.483 167.497ZM178.214 170.606L168.874 161.858L170.034 160.62L179.374 169.368L178.214 170.606ZM170.413 170.886L169.406 169.943L173.426 165.651L174.433 166.594L170.413 170.886ZM173.876 175.237L172.862 174.288L177.435 169.406L178.448 170.356L173.876 175.237Z" fill="white"/>
<path d="M167.507 180.853L159.281 171.05L160.56 169.976L168.786 179.779L167.507 180.853ZM164.356 183.497L163.463 182.433L171.037 176.077L171.93 177.141L164.356 183.497Z" fill="white"/>
<path d="M158.086 181.52L155.156 183.414C154.369 183.923 153.619 184.22 152.906 184.304C152.196 184.393 151.548 184.292 150.962 184.001C150.376 183.71 149.878 183.248 149.468 182.613C149.162 182.141 148.961 181.657 148.864 181.161C148.77 180.671 148.784 180.18 148.906 179.689C149.032 179.204 149.27 178.736 149.621 178.285C149.975 177.84 150.447 177.427 151.038 177.045L155.053 174.449L162.001 185.195L160.577 186.116L154.377 176.528L151.787 178.204C151.26 178.544 150.897 178.915 150.696 179.317C150.494 179.727 150.418 180.139 150.469 180.552C150.52 180.966 150.662 181.352 150.894 181.711C151.127 182.071 151.416 182.351 151.763 182.552C152.109 182.754 152.505 182.837 152.949 182.801C153.391 182.773 153.876 182.589 154.402 182.248L157.332 180.353L158.086 181.52Z" fill="white"/>
<path d="M144.594 195.015L139.741 183.174L141.311 182.531L146.163 194.372L144.594 195.015ZM137.299 198.005L139.769 189.384L142.55 188.244L143.328 189.445L141.237 190.302L139.242 197.208L137.299 198.005ZM134.024 185.517L140.739 189.224L140.424 190.958L132.105 186.303L134.024 185.517Z" fill="white"/>
<path d="M123.465 190.001L123.109 188.668L129.656 186.921L130.012 188.254L123.465 190.001ZM132.625 199.373L129.325 187.009L130.964 186.571L134.264 198.935L132.625 199.373ZM125.857 195.485L125.501 194.152L131.182 192.635L131.538 193.969L125.857 195.485ZM126.494 201.009L126.136 199.668L132.598 197.943L132.956 199.284L126.494 201.009Z" fill="white"/>
<path d="M119.752 192.251L114.792 202.851L113.111 203.072L111.439 190.385L113.121 190.163L114.41 199.949L119.369 189.34L121.042 189.12L122.713 201.807L121.04 202.027L119.752 192.251ZM116.993 205.761L115.686 205.933C115.626 205.48 115.678 205.063 115.84 204.681C116.003 204.305 116.267 203.992 116.63 203.743C116.993 203.495 117.442 203.335 117.976 203.264C118.784 203.158 119.451 203.289 119.978 203.657C120.5 204.031 120.807 204.561 120.897 205.247L119.59 205.419C119.545 205.076 119.406 204.787 119.174 204.552C118.942 204.316 118.588 204.23 118.112 204.293C117.647 204.354 117.333 204.528 117.17 204.816C117.007 205.103 116.948 205.418 116.993 205.761Z" fill="white"/>
<path d="M100.975 194.527L99.2877 194.514C99.3818 193.706 99.6189 192.984 99.9988 192.348C100.379 191.712 100.913 191.21 101.601 190.84C102.29 190.476 103.147 190.298 104.172 190.306C104.922 190.312 105.603 190.458 106.216 190.744C106.824 191.03 107.345 191.432 107.78 191.951C108.216 192.476 108.551 193.103 108.785 193.831C109.014 194.565 109.125 195.381 109.118 196.277L109.108 197.552C109.101 198.448 108.978 199.259 108.738 199.983C108.492 200.714 108.144 201.338 107.695 201.856C107.24 202.374 106.695 202.771 106.06 203.048C105.425 203.324 104.712 203.459 103.921 203.453C102.954 203.446 102.138 203.258 101.473 202.889C100.808 202.521 100.293 202.013 99.9292 201.366C99.5591 200.724 99.3334 199.981 99.252 199.137L100.939 199.15C101.017 199.748 101.165 200.262 101.385 200.691C101.604 201.127 101.918 201.463 102.326 201.7C102.734 201.938 103.27 202.059 103.932 202.064C104.5 202.069 105.002 201.964 105.437 201.751C105.866 201.537 106.229 201.233 106.525 200.836C106.815 200.44 107.036 199.964 107.187 199.409C107.337 198.853 107.415 198.236 107.421 197.556L107.431 196.264C107.436 195.637 107.376 195.048 107.251 194.496C107.12 193.944 106.922 193.459 106.656 193.041C106.389 192.623 106.049 192.292 105.635 192.049C105.221 191.811 104.73 191.69 104.161 191.686C103.441 191.68 102.865 191.79 102.436 192.015C102.007 192.241 101.682 192.566 101.462 192.992C101.236 193.418 101.074 193.93 100.975 194.527Z" fill="white"/>
<path d="M53.6618 178.467L52.2447 177.551C52.7576 176.92 53.3449 176.438 54.0066 176.105C54.6683 175.772 55.3888 175.635 56.1681 175.692C56.9442 175.754 57.7628 176.064 58.6239 176.621C59.2537 177.028 59.7505 177.517 60.1144 178.087C60.4734 178.654 60.6975 179.273 60.7865 179.945C60.8724 180.621 60.8189 181.33 60.6261 182.07C60.4252 182.813 60.0814 183.56 59.5946 184.313L58.9026 185.383C58.4158 186.136 57.8768 186.754 57.2854 187.237C56.686 187.721 56.0577 188.062 55.4006 188.258C54.7386 188.451 54.0655 188.494 53.3814 188.386C52.6973 188.279 52.0231 188.01 51.3589 187.581C50.547 187.056 49.9593 186.459 49.5956 185.792C49.2319 185.124 49.0701 184.419 49.1101 183.677C49.142 182.937 49.3501 182.189 49.7345 181.433L51.1515 182.349C50.8959 182.896 50.7454 183.409 50.7001 183.889C50.6517 184.374 50.736 184.826 50.9532 185.246C51.1703 185.665 51.5569 186.055 52.1129 186.415C52.5902 186.723 53.0697 186.904 53.5516 186.958C54.0285 187.008 54.4981 186.945 54.9605 186.77C55.4179 186.591 55.8593 186.308 56.2845 185.92C56.7098 185.532 57.1069 185.053 57.476 184.482L58.1775 183.397C58.518 182.87 58.7836 182.341 58.9744 181.808C59.1603 181.273 59.2531 180.757 59.2526 180.261C59.2522 179.766 59.1425 179.304 58.9236 178.876C58.7015 178.454 58.3519 178.088 57.8746 177.779C57.2694 177.388 56.7252 177.172 56.2419 177.132C55.7586 177.091 55.3098 177.192 54.8955 177.433C54.4763 177.672 54.0651 178.016 53.6618 178.467Z" fill="white"/>
<path d="M44.2623 182.492L43.0306 181.404L46.7962 170.81L36.7535 175.858L35.5152 174.764L47.8873 168.619L48.849 169.469L44.2623 182.492ZM44.6641 182.847L43.5773 181.887L48.5669 175.881L51.8723 172.14L53.1369 173.257L44.6641 182.847ZM36.2068 175.375L35.12 174.415L43.5928 164.825L44.8575 165.942L41.5521 169.683L36.2068 175.375Z" fill="white"/>
<path d="M30.6154 159.879L31.2386 159.364C31.9792 158.752 32.7195 158.295 33.4596 157.995C34.1998 157.695 34.919 157.549 35.6175 157.557C36.3159 157.565 36.9751 157.723 37.5951 158.031C38.2114 158.335 38.7678 158.788 39.2643 159.388C39.746 159.971 40.08 160.595 40.2665 161.262C40.4493 161.925 40.4827 162.604 40.3667 163.301C40.247 163.993 39.9739 164.679 39.5474 165.358C39.1209 166.038 38.5373 166.684 37.7967 167.296L37.1736 167.811C36.433 168.423 35.693 168.876 34.9537 169.168C34.2061 169.459 33.4812 169.598 32.779 169.586C32.0723 169.577 31.4109 169.421 30.7946 169.117C30.1746 168.808 29.6238 168.363 29.1422 167.78C28.6456 167.179 28.3059 166.548 28.1232 165.886C27.9367 165.219 27.9075 164.54 28.0354 163.848C28.1551 163.156 28.432 162.475 28.8659 161.805C29.2917 161.133 29.8748 160.492 30.6154 159.879ZM32.3083 160.658L31.6715 161.184C31.0845 161.67 30.6156 162.16 30.2648 162.655C29.9103 163.146 29.6747 163.633 29.5581 164.118C29.4414 164.602 29.4422 165.076 29.5605 165.541C29.675 166.001 29.9058 166.442 30.2531 166.862C30.5891 167.268 30.9724 167.571 31.403 167.77C31.8299 167.964 32.2939 168.052 32.7952 168.033C33.2926 168.009 33.8194 167.874 34.3756 167.627C34.9317 167.38 35.5033 167.014 36.0903 166.529L36.727 166.002C37.3186 165.513 37.7902 165.017 38.1417 164.513C38.4887 164.013 38.721 163.517 38.8384 163.025C38.9476 162.532 38.9468 162.057 38.836 161.601C38.7215 161.141 38.4963 160.708 38.1602 160.301C37.8093 159.877 37.4185 159.565 36.9879 159.366C36.5573 159.167 36.0951 159.081 35.6013 159.11C35.0993 159.137 34.574 159.279 34.0254 159.535C33.4722 159.794 32.8998 160.169 32.3083 160.658Z" fill="white"/>
<path d="M21.1934 156.392L32.0402 149.601L32.9263 151.017L22.0795 157.807L21.1934 156.392ZM19.0109 152.905L20.1879 152.168L25.4344 160.549L24.2574 161.286L19.0109 152.905Z" fill="white"/>
<path d="M22.7009 142.739L24.1376 145.841L22.8855 146.421L21.4488 143.319C21.1705 142.718 20.8495 142.276 20.4858 141.992C20.122 141.709 19.7306 141.561 19.3115 141.548C18.89 141.53 18.4612 141.622 18.0252 141.824C17.6264 142.009 17.2922 142.27 17.0226 142.608C16.7504 142.941 16.5942 143.342 16.5539 143.813C16.5083 144.286 16.6246 144.823 16.9028 145.424L18.1733 148.168L28.5253 143.374L29.2382 144.913L17.626 150.29L15.6427 146.008C15.2364 145.13 15.0445 144.318 15.0668 143.572C15.0892 142.825 15.2962 142.171 15.688 141.609C16.0744 141.049 16.6106 140.61 17.2964 140.292C18.0408 139.948 18.7488 139.81 19.4205 139.88C20.0921 139.95 20.7065 140.224 21.2637 140.702C21.8156 141.183 22.2946 141.862 22.7009 142.739Z" fill="white"/>
<path d="M20.9036 127.286L22.2193 126.87L24.2624 133.331L22.9467 133.747L20.9036 127.286ZM11.9576 136.863L24.159 133.004L24.6704 134.622L12.4691 138.48L11.9576 136.863ZM15.5341 129.924L16.8498 129.508L18.6226 135.114L17.3069 135.53L15.5341 129.924ZM10.0444 130.812L11.3684 130.393L13.385 136.771L12.061 137.189L10.0444 130.812Z" fill="white"/>
<path d="M8.30063 122.76L20.8709 120.362L21.1838 122.003L8.61351 124.4L8.30063 122.76ZM7.52997 118.72L8.89405 118.459L10.7466 128.172L9.38252 128.432L7.52997 118.72Z" fill="white"/>
<path d="M12.2936 114.081L12.0783 110.598C12.0205 109.663 12.1296 108.863 12.4056 108.201C12.6758 107.538 13.0813 107.023 13.6221 106.655C14.163 106.287 14.8106 106.079 15.565 106.033C16.1264 105.998 16.6469 106.06 17.1263 106.218C17.5999 106.377 18.0206 106.63 18.3884 106.977C18.7503 107.324 19.0415 107.761 19.2619 108.288C19.4765 108.814 19.6054 109.429 19.6488 110.13L19.9438 114.903L7.17129 115.692L7.06664 113.999L18.4619 113.295L18.2716 110.216C18.2329 109.59 18.0876 109.091 17.8356 108.719C17.5775 108.342 17.2557 108.074 16.8702 107.916C16.4847 107.758 16.0785 107.692 15.6516 107.718C15.2246 107.745 14.8384 107.859 14.4929 108.063C14.1473 108.266 13.8814 108.57 13.6951 108.975C13.5026 109.374 13.4257 109.887 13.4643 110.513L13.6796 113.995L12.2936 114.081Z" fill="white"/>
<path d="M7.10984 95.52L19.8095 97.094L19.6009 98.7774L6.90119 97.2034L7.10984 95.52ZM8.07958 87.696L14.3829 94.0745L14.0132 97.0575L12.5852 97.1462L12.863 94.9046L7.8212 89.7807L8.07958 87.696ZM20.5695 90.9622L14.047 94.9982L12.6897 93.8735L20.8247 88.9038L20.5695 90.9622Z" fill="white"/>
<path d="M21.8079 79.5135L23.145 79.8542L21.4721 86.4208L20.135 86.0801L21.8079 79.5135ZM9.15596 82.9294L21.5567 86.0886L21.138 87.7324L8.73719 84.5732L9.15596 82.9294ZM15.8546 78.922L17.1918 79.2626L15.7402 84.9605L14.403 84.6199L15.8546 78.922ZM10.7225 76.7801L12.0682 77.123L10.417 83.6044L9.07134 83.2616L10.7225 76.7801Z" fill="white"/>
<path d="M21.6614 75.1269L14.8548 65.607L15.4863 64.0326L27.3634 68.7965L26.7319 70.3709L17.5712 66.6965L24.386 76.2197L23.7578 77.7859L11.8807 73.022L12.5089 71.4558L21.6614 75.1269ZM11.2393 66.0981L11.7301 64.8745C12.1543 65.0446 12.493 65.2941 12.7462 65.6229C12.9939 65.9496 13.1372 66.3322 13.176 66.7707C13.2147 67.2092 13.1337 67.6787 12.9331 68.179C12.6299 68.9349 12.1887 69.4524 11.6096 69.7315C11.0272 70.0029 10.4152 70.01 9.77349 69.7526L10.2643 68.529C10.5851 68.6577 10.905 68.6786 11.2239 68.5919C11.5428 68.5052 11.7916 68.2388 11.9705 67.7929C12.145 67.3578 12.147 66.9988 11.9764 66.7157C11.8059 66.4327 11.5602 66.2268 11.2393 66.0981Z" fill="white"/>
<path d="M28.7519 57.8473L29.5887 56.3819C30.2473 56.8592 30.7609 57.419 31.1296 58.0614C31.4983 58.7037 31.6754 59.4155 31.6611 60.1968C31.6417 60.9752 31.3778 61.8096 30.8693 62.7C30.4974 63.3513 30.0368 63.8744 29.4875 64.2692C28.9411 64.6589 28.335 64.9167 27.6694 65.0426C26.9986 65.1656 26.2882 65.1513 25.5381 64.9996C24.7859 64.84 24.0205 64.5379 23.242 64.0933L22.1353 63.4613C21.3568 63.0168 20.7102 62.5126 20.1955 61.9488C19.6786 61.377 19.3041 60.7684 19.0721 60.1231C18.843 59.4727 18.7632 58.803 18.8327 58.1141C18.9023 57.4251 19.1332 56.7371 19.5255 56.0502C20.0049 55.2106 20.5679 54.5909 21.2146 54.191C21.8613 53.7911 22.5561 53.5907 23.2988 53.5897C24.0394 53.5808 24.7978 53.7473 25.5741 54.0894L24.7373 55.5548C24.1776 55.3297 23.6569 55.2077 23.175 55.189C22.6881 55.1673 22.2412 55.2765 21.8342 55.5164C21.4273 55.7564 21.0597 56.1638 20.7314 56.7388C20.4495 57.2324 20.2952 57.7212 20.2685 58.2052C20.2447 58.6841 20.3331 59.1496 20.5338 59.6016C20.7374 60.0485 21.0446 60.4736 21.4554 60.8768C21.8661 61.28 22.3666 61.6502 22.9568 61.9872L24.0788 62.6279C24.6232 62.9388 25.1665 63.1748 25.7088 63.336C26.2539 63.4921 26.7739 63.5563 27.2688 63.5285C27.7637 63.5007 28.2187 63.3658 28.6336 63.1237C29.0434 62.8786 29.3892 62.5093 29.6711 62.0158C30.0284 61.3899 30.214 60.8346 30.2276 60.3499C30.2413 59.8651 30.1162 59.4225 29.8522 59.0222C29.5912 58.6167 29.2244 58.2251 28.7519 57.8473Z" fill="white"/>
<path d="M69.7523 22.5635L71.2809 21.8486C71.5438 22.6183 71.6407 23.3719 71.5715 24.1093C71.5024 24.8467 71.2367 25.5304 70.7745 26.1605C70.3099 26.7853 69.6132 27.3148 68.6843 27.7492C68.0049 28.0669 67.327 28.2286 66.6506 28.2345C65.9794 28.2378 65.3356 28.0991 64.7191 27.8181C64.1001 27.5319 63.5279 27.1106 63.0026 26.5542C62.48 25.99 62.0288 25.3019 61.6491 24.4898L61.1093 23.3353C60.7295 22.5233 60.4919 21.7385 60.3965 20.9811C60.3038 20.2158 60.3488 19.5027 60.5312 18.8417C60.719 18.1782 61.04 17.585 61.4941 17.0622C61.9482 16.5394 62.5335 16.1104 63.2501 15.7754C64.1258 15.3658 64.9432 15.1841 65.7022 15.2303C66.4611 15.2764 67.1443 15.5132 67.7517 15.9407C68.362 16.3604 68.8856 16.9338 69.3226 17.6608L67.794 18.3757C67.4665 17.869 67.1113 17.4691 66.7285 17.176C66.3431 16.8775 65.915 16.709 65.4442 16.6704C64.9734 16.6319 64.4381 16.7528 63.8383 17.0333C63.3234 17.274 62.9155 17.5844 62.6146 17.9645C62.319 18.3421 62.1229 18.7734 62.0262 19.2584C61.9349 19.7409 61.9408 20.2654 62.0439 20.8316C62.147 21.3979 62.3425 21.9889 62.6304 22.6046L63.1777 23.775C63.4433 24.3429 63.7511 24.849 64.1012 25.2933C64.4566 25.7352 64.8445 26.0874 65.2648 26.3501C65.6852 26.6128 66.1347 26.7648 66.6133 26.8062C67.0895 26.8423 67.5849 26.74 68.0998 26.4992C68.7526 26.1939 69.2244 25.8472 69.5151 25.459C69.8057 25.0708 69.9587 24.6371 69.9739 24.1578C69.9944 23.676 69.9205 23.1446 69.7523 22.5635Z" fill="white"/>
<path d="M71.4674 12.3464L73.0453 11.8866L79.9893 20.7295L81.0867 9.54296L82.6731 9.08064L81.2583 22.8222L80.0264 23.1813L71.4674 12.3464ZM70.9527 12.4964L72.3449 12.0907L74.7565 19.5172L76.1533 24.31L74.5332 24.7822L70.9527 12.4964ZM81.7871 9.33885L83.1794 8.93309L86.7599 21.2188L85.1398 21.691L83.743 16.8982L81.7871 9.33885Z" fill="white"/>
<path d="M98.2423 12.8032L98.3418 13.6056C98.46 14.5593 98.4467 15.4288 98.302 16.2143C98.1573 16.9998 97.8939 17.6849 97.5117 18.2695C97.1296 18.8542 96.6418 19.325 96.0484 19.6819C95.4608 20.0382 94.7803 20.2642 94.0069 20.3601C93.2568 20.453 92.5504 20.3989 91.8878 20.1976C91.231 19.9956 90.6402 19.6585 90.1152 19.1863C89.596 18.7133 89.1646 18.1144 88.8209 17.3895C88.4771 16.6645 88.2462 15.8252 88.128 14.8716L88.0285 14.0691C87.9103 13.1155 87.9268 12.2485 88.0781 11.4681C88.2344 10.6812 88.5066 9.99501 88.8946 9.40964C89.2818 8.81846 89.7692 8.34475 90.3568 7.98851C90.9503 7.63156 91.622 7.4066 92.3721 7.31362C93.1455 7.21777 93.8606 7.27084 94.5174 7.47283C95.18 7.67411 95.7683 8.01448 96.2824 8.49396C96.8015 8.96689 97.2271 9.56655 97.5592 10.2929C97.8964 11.0128 98.1241 11.8495 98.2423 12.8032ZM96.6758 13.8121L96.5742 12.9922C96.4805 12.2363 96.3191 11.5773 96.0901 11.0153C95.8668 10.4525 95.5824 9.99182 95.2368 9.63317C94.8913 9.27451 94.4907 9.02009 94.0352 8.8699C93.5855 8.719 93.0902 8.67706 92.5494 8.74408C92.0261 8.80895 91.5648 8.96945 91.1655 9.22558C90.7721 9.481 90.4487 9.82515 90.1953 10.258C89.9478 10.6902 89.7786 11.2071 89.6879 11.8088C89.5971 12.4105 89.5986 13.0893 89.6923 13.8452L89.7939 14.6651C89.8883 15.4268 90.0534 16.0913 90.289 16.6584C90.5239 17.2197 90.8174 17.6822 91.1695 18.046C91.5267 18.4032 91.9272 18.6576 92.3711 18.8093C92.8208 18.9602 93.3073 19.0032 93.8307 18.9383C94.3773 18.8706 94.8502 18.7086 95.2495 18.4525C95.6487 18.1964 95.9692 17.8526 96.211 17.4211C96.4578 16.9831 96.6208 16.464 96.6999 15.8638C96.7783 15.2578 96.7703 14.5739 96.6758 13.8121Z" fill="white"/>
<path d="M106.22 6.69427L106.122 19.4908L104.452 19.4779L104.551 6.68138L106.22 6.69427ZM110.334 6.72603L110.323 8.11466L100.436 8.03832L100.446 6.64969L110.334 6.72603Z" fill="white"/>
<path d="M116.826 15.2308L113.436 14.7842L113.616 13.4161L117.006 13.8627C117.662 13.9492 118.208 13.9147 118.642 13.7591C119.076 13.6036 119.411 13.3521 119.645 13.0048C119.886 12.6583 120.038 12.2469 120.101 11.7705C120.158 11.3348 120.116 10.9127 119.975 10.504C119.84 10.0961 119.584 9.74918 119.208 9.46324C118.833 9.17149 118.317 8.98237 117.66 8.89588L114.663 8.50094L113.173 19.8114L111.491 19.5898L113.162 6.90259L117.842 7.51911C118.8 7.64539 119.589 7.91772 120.207 8.3361C120.826 8.75448 121.268 9.27961 121.533 9.91149C121.8 10.5376 121.883 11.2253 121.785 11.9747C121.677 12.788 121.415 13.4596 120.996 13.9895C120.578 14.5195 120.017 14.8919 119.315 15.1067C118.614 15.3157 117.784 15.3571 116.826 15.2308Z" fill="white"/>
<path d="M130.871 21.931L130.52 23.2655L123.966 21.5428L124.317 20.2082L130.871 21.931ZM127.551 9.25349L124.298 21.6299L122.657 21.1987L125.91 8.82225L127.551 9.25349ZM131.507 15.9824L131.157 17.3169L125.47 15.8221L125.821 14.4875L131.507 15.9824ZM133.688 10.8667L133.335 12.2098L126.866 10.5094L127.219 9.16635L133.688 10.8667Z" fill="white"/>
<path d="M141.67 13.7567L136.95 25.6516L135.398 25.0357L140.118 13.1409L141.67 13.7567ZM145.493 15.2737L144.981 16.5645L135.79 12.918L136.302 11.6272L145.493 15.2737Z" fill="white"/>
<path d="M146.884 21.7623L149.939 23.4477C150.76 23.9005 151.376 24.4211 151.788 25.0095C152.202 25.5927 152.42 26.2113 152.44 26.8651C152.461 27.519 152.289 28.1768 151.924 28.8387C151.652 29.3312 151.321 29.7374 150.93 30.0573C150.543 30.372 150.104 30.5916 149.613 30.716C149.126 30.8353 148.601 30.8468 148.038 30.7506C147.479 30.6493 146.891 30.4288 146.275 30.0892L142.089 27.7798L148.27 16.5747L149.755 17.394L144.241 27.3909L146.942 28.8809C147.491 29.1838 147.99 29.3285 148.439 29.3152C148.896 29.2996 149.294 29.1715 149.635 28.9309C149.975 28.6903 150.248 28.3827 150.455 28.0082C150.661 27.6337 150.771 27.246 150.785 26.8453C150.799 26.4447 150.684 26.0571 150.443 25.6828C150.209 25.3062 149.817 24.9665 149.268 24.6636L146.213 22.9783L146.884 21.7623Z" fill="white"/>
<path d="M165.017 27.0766L156.899 36.9686L155.587 35.8925L163.706 26.0004L165.017 27.0766ZM171.111 32.078L162.351 33.9961L160.028 32.0892L160.716 30.8349L162.462 32.2679L169.487 30.7454L171.111 32.078ZM161.675 40.8884L161.75 33.2185L163.426 32.6725L163.278 42.2043L161.675 40.8884Z" fill="white"/>
<path d="M171.011 48.3532L170.007 49.3002L165.357 44.3713L166.361 43.4244L171.011 48.3532ZM174.9 35.8387L165.592 44.6207L164.428 43.3868L173.736 34.6049L174.9 35.8387ZM174.698 43.6419L173.694 44.5889L169.659 40.3121L170.663 39.3651L174.698 43.6419ZM179.255 40.4543L178.245 41.4073L173.655 36.5424L174.665 35.5894L179.255 40.4543Z" fill="white"/>
<path d="M174.566 50.275L186.248 49.5702L187.246 50.9419L176.897 58.4697L175.9 57.0979L183.881 51.2919L172.193 52.0018L171.2 50.6372L181.548 43.1094L182.541 44.4741L174.566 50.275ZM187.754 46.2467L188.53 47.3128C188.16 47.5817 187.769 47.736 187.356 47.7756C186.947 47.8119 186.547 47.7298 186.155 47.5295C185.763 47.3293 185.408 47.0112 185.091 46.5752C184.612 45.9166 184.408 45.2679 184.48 44.629C184.559 43.9914 184.879 43.4693 185.438 43.0625L186.213 44.1287C185.934 44.332 185.746 44.5918 185.65 44.908C185.554 45.2242 185.647 45.5766 185.93 45.9652C186.206 46.3442 186.509 46.5368 186.839 46.5428C187.17 46.5488 187.475 46.4501 187.754 46.2467Z" fill="white"/>
<path d="M185.418 65.3836L186.216 66.8701C185.463 67.1754 184.716 67.314 183.975 67.2859C183.235 67.2578 182.538 67.0306 181.883 66.6042C181.233 66.175 180.666 65.5087 180.181 64.6055C179.826 63.9448 179.627 63.2769 179.583 62.6018C179.542 61.9319 179.645 61.2814 179.891 60.6502C180.143 60.0163 180.532 59.4216 181.058 58.8661C181.592 58.313 182.254 57.8243 183.044 57.4L184.167 56.7968C184.956 56.3725 185.727 56.0917 186.478 55.9543C187.237 55.8193 187.951 55.8245 188.621 55.97C189.294 56.1206 189.904 56.4081 190.452 56.8324C190.999 57.2567 191.46 57.8173 191.834 58.5141C192.292 59.3658 192.518 60.1718 192.515 60.9322C192.511 61.6925 192.312 62.3878 191.919 63.018C191.534 63.6507 190.991 64.2053 190.289 64.6821L189.49 63.1956C189.978 62.8404 190.357 62.4636 190.629 62.065C190.905 61.6637 191.05 61.2269 191.062 60.7546C191.075 60.2824 190.924 59.7546 190.611 59.1714C190.342 58.6707 190.009 58.2807 189.613 58.0013C189.219 57.7271 188.778 57.5553 188.288 57.4858C187.801 57.4215 187.278 57.4565 186.718 57.5909C186.159 57.7253 185.58 57.9533 184.981 58.275L183.843 58.8865C183.29 59.1832 182.802 59.5187 182.378 59.8929C181.957 60.2723 181.626 60.6792 181.388 61.1135C181.149 61.5478 181.022 62.0051 181.007 62.4853C180.998 62.9627 181.127 63.4517 181.396 63.9524C181.737 64.5873 182.11 65.039 182.513 65.3077C182.917 65.5763 183.359 65.7049 183.838 65.6934C184.32 65.6871 184.847 65.5838 185.418 65.3836Z" fill="white"/>
<circle cx="195" cy="85" r="3" fill="white"/>
<circle cx="44" cy="37" r="3" fill="white"/>
<circle cx="77" cy="194" r="3" fill="white"/>
</svg>
