<svg width="153" height="362" viewBox="0 0 153 362" fill="none" xmlns="http://www.w3.org/2000/svg">
  <path d="M141.667 356C141.667 358.946 144.054 361.333 147 361.333C149.946 361.333 152.333 358.946 152.333 356C152.333 353.054 149.946 350.667 147 350.667C144.054 350.667 141.667 353.054 141.667 356ZM0.5 6.5L10.5 12.2735V0.726497L0.5 6.5ZM147 355H117.5V357H147V355ZM78.5 316V46.5H76.5V316H78.5ZM37.5 5.5H9.5V7.5H37.5V5.5ZM78.5 46.5C78.5 23.8563 60.1437 5.5 37.5 5.5V7.5C59.0391 7.5 76.5 24.9609 76.5 46.5H78.5ZM117.5 355C95.9609 355 78.5 337.539 78.5 316H76.5C76.5 338.644 94.8563 357 117.5 357V355Z" fill="white" fill-opacity="0.1" />
</svg>