<svg width="260" height="260" viewBox="0 0 260 260" fill="none" xmlns="http://www.w3.org/2000/svg">
<path d="M222.805 155.153L221.338 154.835L223.569 144.54L225.036 144.858L222.805 155.153ZM224.973 145.148L220.162 144.105L220.549 142.321L225.362 143.354L224.973 145.148ZM222.465 156.722L217.667 155.663L218.054 153.879L222.856 154.919L222.465 156.722ZM235.323 156.017L233.847 155.697L235.138 149.737L236.614 150.057L235.323 156.017ZM234.987 157.568L221.385 154.62L221.774 152.827L235.375 155.774L234.987 157.568ZM236.748 149.441L236.357 151.244L230.944 149.777C230.13 149.561 229.387 149.319 228.715 149.049C228.049 148.781 227.449 148.498 226.914 148.199C226.378 147.901 225.908 147.59 225.502 147.267C225.102 146.946 224.765 146.622 224.49 146.295C224.222 145.97 224.012 145.644 223.861 145.318C223.715 144.999 223.628 144.69 223.602 144.391L223.78 143.569L225.247 143.887L225.121 144.466C225.26 144.666 225.473 144.904 225.758 145.181C226.043 145.464 226.424 145.765 226.903 146.084C227.386 146.411 227.991 146.734 228.717 147.055C229.442 147.381 230.315 147.685 231.336 147.965L236.748 149.441Z" fill="white"/>
<path d="M218.748 166.947L217.337 166.435L219.848 159.507L221.259 160.018L218.748 166.947ZM232.805 164.599L219.721 159.857L220.349 158.123L233.434 162.865L232.805 164.599ZM225.128 168.222L223.717 167.711L225.896 161.699L227.307 162.21L225.128 168.222ZM230.454 171.088L229.034 170.573L231.513 163.734L232.932 164.249L230.454 171.088Z" fill="white"/>
<path d="M228.648 175.488L227.804 177.064L215.65 175.728L223.505 185.095L222.656 186.679L213.058 175.121L213.717 173.891L228.648 175.488ZM228.923 174.974L228.179 176.365L220.574 172.586L215.788 170.023L216.654 168.405L228.923 174.974ZM223.13 185.794L222.386 187.185L210.116 180.615L210.983 178.997L215.769 181.56L223.13 185.794Z" fill="white"/>
<path d="M207.904 195.89L207.205 195.356C206.374 194.723 205.708 194.051 205.208 193.34C204.708 192.63 204.376 191.904 204.213 191.162C204.049 190.421 204.054 189.683 204.229 188.951C204.399 188.223 204.741 187.522 205.255 186.848C205.753 186.195 206.333 185.687 206.994 185.325C207.65 184.969 208.362 184.766 209.128 184.718C209.891 184.674 210.684 184.795 211.509 185.079C212.334 185.364 213.162 185.823 213.993 186.457L214.692 186.99C215.523 187.624 216.184 188.296 216.676 189.008C217.168 189.728 217.494 190.461 217.654 191.208C217.819 191.959 217.816 192.698 217.645 193.426C217.471 194.159 217.135 194.852 216.636 195.505C216.122 196.179 215.537 196.694 214.88 197.051C214.22 197.413 213.508 197.611 212.744 197.646C211.981 197.689 211.192 197.564 210.374 197.269C209.558 196.983 208.735 196.523 207.904 195.89ZM208.312 193.905L209.027 194.45C209.685 194.952 210.32 195.328 210.931 195.578C211.538 195.832 212.113 195.962 212.654 195.966C213.196 195.971 213.698 195.853 214.162 195.613C214.621 195.379 215.031 195.026 215.39 194.555C215.738 194.099 215.964 193.618 216.069 193.113C216.17 192.613 216.148 192.1 216.005 191.573C215.857 191.052 215.584 190.527 215.186 189.999C214.788 189.471 214.259 188.955 213.6 188.453L212.886 187.908C212.222 187.402 211.58 187.025 210.96 186.776C210.345 186.531 209.763 186.408 209.212 186.404C208.663 186.41 208.16 186.528 207.705 186.757C207.245 186.992 206.842 187.337 206.494 187.793C206.131 188.27 205.896 188.76 205.792 189.265C205.687 189.771 205.71 190.281 205.862 190.797C206.014 191.322 206.293 191.844 206.7 192.362C207.111 192.884 207.648 193.398 208.312 193.905Z" fill="white"/>
<path d="M201.459 201.373L203.949 198.874L205.012 199.907L202.751 202.175C202.378 202.55 202.115 202.94 201.963 203.346C201.81 203.751 201.775 204.148 201.857 204.535C201.939 204.932 202.144 205.294 202.474 205.622C202.835 205.982 203.198 206.205 203.563 206.29C203.928 206.384 204.304 206.34 204.692 206.159C205.079 205.987 205.488 205.685 205.92 205.251L207.836 203.328L199.048 194.571L200.35 193.264L210.208 203.088L206.99 206.317C206.486 206.823 205.984 207.223 205.485 207.516C204.99 207.815 204.497 207.994 204.006 208.053C203.515 208.121 203.032 208.064 202.559 207.88C202.085 207.696 201.618 207.375 201.158 206.916C200.752 206.511 200.487 206.041 200.365 205.505C200.247 204.973 200.268 204.419 200.429 203.842C200.586 203.269 200.88 202.708 201.312 202.157L201.459 201.373ZM196.909 196.717L199.85 193.765L200.178 195.562L197.972 197.777C197.558 198.192 197.279 198.616 197.136 199.049C196.988 199.486 196.969 199.912 197.077 200.326C197.191 200.745 197.428 201.135 197.789 201.494C198.155 201.859 198.536 202.108 198.933 202.243C199.33 202.377 199.74 202.376 200.163 202.24C200.586 202.104 201.018 201.815 201.459 201.373L203.315 199.511L204.351 200.57L201.814 203.116L201.158 203.016C200.645 203.449 200.109 203.716 199.551 203.816C198.997 203.921 198.458 203.884 197.935 203.704C197.408 203.529 196.932 203.231 196.507 202.808C195.893 202.196 195.509 201.543 195.355 200.85C195.2 200.165 195.256 199.469 195.52 198.761C195.789 198.058 196.252 197.376 196.909 196.717Z" fill="white"/>
<path d="M185.479 208.465L184.555 207.282L190.362 202.744L191.286 203.926L185.479 208.465ZM198.639 213.939L190.068 202.973L191.521 201.837L200.092 212.803L198.639 213.939ZM190.209 212.933L189.285 211.75L194.323 207.812L195.247 208.995L190.209 212.933ZM193.201 218.189L192.271 216.999L198.002 212.519L198.932 213.709L193.201 218.189Z" fill="white"/>
<path d="M181.013 215.957L184.202 214.045L184.974 215.333L181.784 217.244C181.166 217.614 180.725 218.012 180.46 218.438C180.196 218.864 180.081 219.305 180.115 219.759C180.145 220.217 180.294 220.67 180.562 221.118C180.808 221.528 181.129 221.86 181.525 222.112C181.917 222.368 182.369 222.491 182.883 222.48C183.399 222.475 183.967 222.288 184.584 221.917L187.405 220.227L181.028 209.585L182.61 208.636L189.764 220.575L185.361 223.213C184.459 223.753 183.603 224.055 182.793 224.116C181.983 224.178 181.252 224.03 180.598 223.671C179.948 223.317 179.412 222.788 178.989 222.083C178.531 221.318 178.301 220.568 178.299 219.833C178.297 219.099 178.523 218.403 178.976 217.745C179.432 217.093 180.111 216.497 181.013 215.957Z" fill="white"/>
<path d="M166.102 222.199L164.421 222.933C164.156 222.089 164.072 221.267 164.167 220.467C164.263 219.668 164.571 218.932 165.091 218.259C165.613 217.593 166.386 217.037 167.408 216.59C168.155 216.264 168.897 216.107 169.632 216.119C170.362 216.134 171.058 216.303 171.72 216.626C172.385 216.954 172.996 217.428 173.552 218.047C174.104 218.675 174.575 219.436 174.966 220.329L175.52 221.6C175.911 222.493 176.147 223.353 176.23 224.179C176.309 225.013 176.241 225.788 176.024 226.501C175.801 227.217 175.436 227.853 174.928 228.409C174.42 228.965 173.771 229.415 172.983 229.759C172.019 230.18 171.126 230.355 170.302 230.284C169.478 230.212 168.742 229.936 168.093 229.454C167.441 228.981 166.888 228.343 166.433 227.541L168.115 226.806C168.457 227.366 168.832 227.81 169.24 228.14C169.651 228.475 170.112 228.67 170.622 228.725C171.133 228.78 171.718 228.664 172.378 228.375C172.945 228.128 173.397 227.802 173.735 227.397C174.066 226.995 174.292 226.531 174.41 226.007C174.523 225.484 174.531 224.914 174.435 224.296C174.338 223.677 174.142 223.029 173.846 222.352L173.284 221.064C173.011 220.439 172.69 219.88 172.322 219.388C171.948 218.897 171.536 218.504 171.086 218.206C170.637 217.909 170.152 217.731 169.633 217.673C169.116 217.621 168.575 217.718 168.008 217.965C167.29 218.279 166.768 218.643 166.441 219.057C166.114 219.471 165.936 219.938 165.906 220.459C165.87 220.982 165.936 221.562 166.102 222.199Z" fill="white"/>
<path d="M159.821 223.124L156.182 235.321L154.408 235.828L150.58 222.448L152.353 221.94L155.306 232.26L158.942 220.055L160.707 219.55L164.535 232.93L162.771 233.435L159.821 223.124Z" fill="white"/>
<path d="M141.077 229.419L144.946 228.86L145.898 229.099C146.94 229.271 147.776 229.643 148.406 230.215C149.037 230.793 149.423 231.568 149.563 232.539C149.691 233.429 149.605 234.211 149.303 234.885C148.995 235.561 148.502 236.112 147.823 236.538C147.138 236.965 146.297 237.251 145.3 237.395L140.892 238.032L138.902 224.257L140.728 223.994L142.502 236.273L145.084 235.9C146.093 235.754 146.819 235.405 147.26 234.852C147.696 234.3 147.855 233.617 147.737 232.803C147.661 232.273 147.482 231.816 147.201 231.432C146.914 231.048 146.532 230.769 146.056 230.593C145.58 230.417 145.014 230.376 144.358 230.471L141.283 230.915L141.077 229.419ZM144.317 229.917L146.754 223.123L148.693 222.843L146.161 229.651L144.317 229.917Z" fill="white"/>
<path d="M56.743 192.652L57.829 191.616L65.0984 199.239L64.0124 200.275L56.743 192.652ZM63.8079 200.06L67.3704 196.663L68.6303 197.984L65.0744 201.388L63.8079 200.06ZM55.6348 191.489L59.2036 188.113L60.4635 189.434L56.9079 192.824L55.6348 191.489ZM49.0039 202.528L50.0968 201.486L54.3054 205.899L53.2125 206.941L49.0039 202.528ZM47.9089 201.38L57.9808 191.775L59.2473 193.103L49.1754 202.708L47.9089 201.38ZM53.6478 207.398L52.3747 206.063L56.6263 202.405C57.2614 201.852 57.879 201.373 58.4791 200.968C59.0745 200.567 59.6459 200.23 60.1934 199.954C60.7408 199.679 61.262 199.463 61.7569 199.308C62.2473 199.158 62.7048 199.06 63.1295 199.016C63.5497 198.977 63.9371 198.986 64.2918 199.044C64.6374 199.102 64.9415 199.204 65.204 199.35L65.7845 199.958L64.6984 200.994L64.2894 200.565C64.046 200.568 63.7295 200.61 63.3399 200.691C62.946 200.768 62.4828 200.914 61.9502 201.132C61.4087 201.349 60.8017 201.668 60.1291 202.089C59.4522 202.506 58.7111 203.058 57.906 203.747L53.6478 207.398Z" fill="white"/>
<path d="M49.2538 182.657L50.4689 181.777L54.7935 187.744L53.5783 188.625L49.2538 182.657ZM43.3055 195.609L54.5747 187.442L55.6573 188.936L44.3881 197.103L43.3055 195.609ZM44.617 187.222L45.8321 186.341L49.5846 191.519L48.3694 192.399L44.617 187.222ZM39.2558 190.021L40.4787 189.134L44.7472 195.024L43.5243 195.911L39.2558 190.021Z" fill="white"/>
<path d="M36.6145 186.038L35.781 184.456L43.6918 175.132L31.5332 176.398L30.6953 174.808L45.6455 173.324L46.2963 174.559L36.6145 186.038ZM36.8864 186.553L36.151 185.158L43.5393 180.972L48.3421 178.44L49.1979 180.064L36.8864 186.553ZM31.1633 175.696L30.4278 174.301L42.7394 167.811L43.5952 169.435L38.7923 171.966L31.1633 175.696Z" fill="white"/>
<path d="M31.3534 157.562L32.1862 157.28C33.1759 156.944 34.105 156.767 34.9734 156.748C35.8419 156.73 36.6295 156.859 37.3362 157.138C38.043 157.416 38.6517 157.832 39.1624 158.386C39.6711 158.933 40.0615 159.608 40.3338 160.411C40.5978 161.189 40.6955 161.954 40.6269 162.704C40.5562 163.448 40.3271 164.151 39.9397 164.814C39.5501 165.471 39.0071 166.062 38.3106 166.588C37.6141 167.113 36.771 167.544 35.7813 167.88L34.9485 168.162C33.9588 168.498 33.0317 168.671 32.1673 168.681C31.2948 168.688 30.5041 168.549 29.7953 168.265C29.0805 167.982 28.4687 167.567 27.96 167.02C27.4493 166.466 27.0619 165.8 26.7979 165.022C26.5257 164.219 26.4249 163.446 26.4956 162.702C26.5642 161.952 26.7973 161.25 27.1949 160.597C27.5844 159.941 28.1295 159.355 28.8301 158.842C29.5226 158.324 30.3637 157.898 31.3534 157.562ZM32.7726 159.009L31.9217 159.297C31.1372 159.563 30.4708 159.88 29.9226 160.248C29.3724 160.609 28.9442 161.014 28.6383 161.46C28.3323 161.907 28.1494 162.39 28.0897 162.908C28.0278 163.42 28.0921 163.957 28.2825 164.518C28.4667 165.061 28.7391 165.517 29.0997 165.886C29.4583 166.249 29.896 166.518 30.4128 166.693C30.9275 166.861 31.5153 166.928 32.1761 166.892C32.8369 166.856 33.5595 166.705 34.344 166.439L35.1949 166.151C35.9855 165.883 36.6568 165.561 37.209 165.185C37.7552 164.811 38.1833 164.397 38.4933 163.942C38.7951 163.483 38.978 163 39.0419 162.494C39.1037 161.982 39.0425 161.454 38.8583 160.911C38.6659 160.344 38.3894 159.876 38.0287 159.507C37.6681 159.138 37.2314 158.872 36.7187 158.71C36.198 158.543 35.6092 158.484 34.9525 158.532C34.2898 158.581 33.5632 158.74 32.7726 159.009Z" fill="white"/>
<path d="M30.3985 149.121L31.0734 152.583L29.6229 152.885L29.0102 149.742C28.909 149.223 28.733 148.787 28.4823 148.433C28.2315 148.079 27.9228 147.828 27.5561 147.679C27.1819 147.524 26.7666 147.492 26.31 147.581C25.8096 147.678 25.4219 147.855 25.147 148.109C24.8646 148.359 24.6899 148.695 24.6228 149.117C24.5483 149.534 24.5696 150.043 24.6867 150.644L25.2061 153.308L37.3839 150.934L37.7369 152.745L24.0767 155.408L23.2043 150.933C23.0677 150.232 23.0177 149.593 23.0543 149.014C23.0846 148.437 23.2127 147.928 23.4385 147.488C23.6569 147.043 23.9749 146.676 24.3924 146.387C24.81 146.098 25.3378 145.891 25.9757 145.766C26.5387 145.657 27.0765 145.701 27.5891 145.9C28.0956 146.1 28.5426 146.428 28.9303 146.885C29.3168 147.336 29.6171 147.894 29.8314 148.56L30.3985 149.121ZM36.8041 147.96L37.6015 152.05L35.9292 151.315L35.3311 148.247C35.2189 147.672 35.0238 147.203 34.7456 146.842C34.4662 146.475 34.1244 146.22 33.7201 146.078C33.3097 145.937 32.8542 145.916 32.3539 146.013C31.8472 146.112 31.4271 146.288 31.0934 146.541C30.7598 146.795 30.5306 147.135 30.4061 147.561C30.2815 147.988 30.279 148.508 30.3985 149.121L30.9015 151.701L29.4436 151.966L28.7559 148.438L29.2063 147.951C29.1346 147.283 29.2137 146.69 29.4437 146.171C29.6674 145.654 30 145.229 30.4416 144.896C30.8819 144.557 31.396 144.33 31.9839 144.215C32.8346 144.05 33.5904 144.097 34.2515 144.358C34.9051 144.613 35.451 145.049 35.8892 145.665C36.3211 146.282 36.6261 147.047 36.8041 147.96Z" fill="white"/>
<path d="M33.4825 131.934L34.9798 131.833L35.4764 139.186L33.9792 139.287L33.4825 131.934ZM21.5657 139.752L35.4513 138.814L35.5756 140.654L21.69 141.592L21.5657 139.752ZM27.1299 133.34L28.6272 133.239L29.0581 139.619L27.5609 139.72L27.1299 133.34ZM21.1006 132.866L22.6074 132.764L23.0976 140.022L21.5908 140.124L21.1006 132.866Z" fill="white"/>
<path d="M29.7769 124.165L29.5715 127.877L28.0731 127.794L28.2785 124.082C28.3183 123.363 28.236 122.774 28.0316 122.316C27.8272 121.858 27.527 121.516 27.1311 121.29C26.7355 121.057 26.2768 120.927 25.7551 120.898C25.2779 120.871 24.8235 120.952 24.3919 121.138C23.9607 121.319 23.6056 121.625 23.3264 122.056C23.0409 122.487 22.8783 123.062 22.8385 123.781L22.6568 127.064L35.0449 127.749L34.943 129.591L21.0469 128.822L21.3305 123.697C21.3886 122.647 21.6191 121.77 22.0219 121.065C22.4247 120.359 22.9578 119.837 23.6212 119.497C24.2782 119.157 25.0171 119.009 25.8379 119.055C26.7287 119.104 27.4786 119.334 28.0878 119.744C28.6969 120.154 29.1468 120.731 29.4375 121.475C29.7219 122.218 29.835 123.115 29.7769 124.165Z" fill="white"/>
<path d="M33.0314 107.94L33.3716 106.137C34.218 106.394 34.9447 106.787 35.5516 107.316C36.1586 107.846 36.5934 108.515 36.8559 109.323C37.1123 110.13 37.1371 111.082 36.9304 112.177C36.7792 112.979 36.4913 113.68 36.0667 114.281C35.6433 114.876 35.1117 115.356 34.4721 115.721C33.8262 116.086 33.0908 116.323 32.2659 116.434C31.4359 116.536 30.5419 116.497 29.5838 116.317L28.2218 116.06C27.2637 115.879 26.4201 115.59 25.6908 115.193C24.9565 114.789 24.3556 114.296 23.888 113.715C23.4217 113.128 23.102 112.468 22.929 111.735C22.756 111.002 22.7492 110.213 22.9086 109.367C23.1035 108.334 23.4624 107.497 23.9853 106.856C24.5082 106.216 25.1513 105.763 25.9145 105.499C26.6726 105.227 27.5114 105.129 28.4309 105.205L28.0907 107.008C27.4354 106.975 26.8568 107.035 26.3548 107.187C25.8465 107.337 25.4258 107.608 25.0927 107.999C24.7595 108.39 24.5262 108.94 24.3927 109.647C24.2781 110.255 24.293 110.812 24.4373 111.319C24.5828 111.82 24.8389 112.267 25.2056 112.66C25.5736 113.047 26.0402 113.375 26.6056 113.644C27.1709 113.913 27.8168 114.116 28.5432 114.253L29.924 114.513C30.594 114.64 31.2363 114.689 31.8509 114.663C32.4667 114.63 33.0241 114.511 33.523 114.307C34.0219 114.103 34.4417 113.803 34.7823 113.406C35.1166 113.009 35.3411 112.507 35.4557 111.899C35.6009 111.129 35.5946 110.492 35.4366 109.989C35.2786 109.486 34.9929 109.075 34.5795 108.758C34.1672 108.433 33.6512 108.161 33.0314 107.94Z" fill="white"/>
<path d="M35.7875 102.185L27.7725 92.2978L28.3545 90.5472L41.5611 94.9377L40.9792 96.6883L30.793 93.3019L38.8171 103.192L38.2381 104.933L25.0315 100.543L25.6105 98.8013L35.7875 102.185Z" fill="white"/>
<path d="M40.9757 83.4404L39.2613 86.954L38.5281 87.6066C37.8002 88.3717 37.0226 88.8538 36.1952 89.0528C35.3621 89.249 34.5045 89.1319 33.6226 88.7016C32.8151 88.3076 32.2173 87.7961 31.8293 87.1672C31.4441 86.5325 31.2661 85.8146 31.2954 85.0135C31.3275 84.2067 31.5643 83.3508 32.0058 82.4459L33.959 78.4427L46.4669 84.5456L45.6579 86.2036L34.5074 80.763L33.3631 83.1082C32.916 84.0245 32.7969 84.8208 33.0058 85.4971C33.2175 86.1676 33.6927 86.6831 34.4315 87.0436C34.9126 87.2783 35.391 87.3877 35.8668 87.3716C36.3454 87.3499 36.7913 87.1917 37.2045 86.897C37.6178 86.6023 37.9697 86.1571 38.2603 85.5615L39.6226 82.7696L40.9757 83.4404ZM38.7418 85.839L42.9879 91.6758L42.1286 93.4368L37.9244 87.5141L38.7418 85.839Z" fill="white"/>
<path d="M103.192 37.1901L103.679 38.6095L93.7167 42.0297L93.2294 40.6103L103.192 37.1901ZM93.5097 40.5141L95.108 45.17L93.3812 45.7628L91.7738 41.11L93.5097 40.5141ZM104.711 36.6687L106.288 41.3218L104.561 41.9146L102.966 37.2677L104.711 36.6687ZM97.4519 26.0328L97.9423 27.4613L92.1744 29.4414L91.684 28.013L97.4519 26.0328ZM98.9527 25.5176L103.472 38.6809L101.736 39.2768L97.2169 26.1135L98.9527 25.5176ZM91.0873 28.2178L92.8322 27.6188L94.3796 33.0097C94.6166 33.8177 94.7937 34.5789 94.9109 35.2933C95.0261 36.0016 95.0944 36.662 95.116 37.2744C95.1376 37.8868 95.1155 38.4503 95.0495 38.9647C94.9815 39.4732 94.8788 39.9295 94.7413 40.3338C94.6018 40.732 94.4316 41.0802 94.2308 41.3782C94.0338 41.6681 93.8143 41.9019 93.572 42.0793L92.7764 42.3525L92.2892 40.9331L92.8497 40.7407C92.9485 40.5181 93.0425 40.213 93.1317 39.8252C93.227 39.4355 93.2871 38.9533 93.3122 38.3787C93.3413 37.7961 93.3049 37.1112 93.2032 36.3242C93.1075 35.5351 92.915 34.631 92.6258 33.6118L91.0873 28.2178Z" fill="white"/>
<path d="M115.215 34.5772L115.508 36.049L108.279 37.4864L107.987 36.0145L115.215 34.5772ZM105.931 23.7637L108.645 37.4137L106.836 37.7735L104.121 24.1235L105.931 23.7637ZM113.004 28.4579L113.297 29.9298L107.025 31.177L106.732 29.7051L113.004 28.4579ZM112.699 22.4177L112.994 23.8989L105.86 25.3176L105.565 23.8364L112.699 22.4177Z" fill="white"/>
<path d="M117.903 21.6001L119.689 21.5137L124.791 32.6261L128.788 21.0734L130.582 20.9866L125.603 35.1611L124.209 35.2286L117.903 21.6001ZM117.321 21.6283L118.896 21.552L119.564 30.0177L119.827 35.4406L117.994 35.5293L117.321 21.6283ZM129.58 21.0351L131.155 20.9589L131.828 34.8599L129.995 34.9486L129.732 29.5257L129.58 21.0351Z" fill="white"/>
<path d="M145.504 28.7762L145.412 29.6507C145.302 30.69 145.074 31.6078 144.727 32.4041C144.38 33.2004 143.932 33.8611 143.383 34.3862C142.834 34.9112 142.201 35.2896 141.484 35.5214C140.774 35.7539 139.998 35.8255 139.155 35.7364C138.337 35.6499 137.602 35.4184 136.95 35.0418C136.304 34.6659 135.762 34.1631 135.322 33.5335C134.889 32.9045 134.579 32.1637 134.394 31.3111C134.209 30.4585 134.171 29.5125 134.281 28.4732L134.373 27.5987C134.483 26.5595 134.715 25.6452 135.067 24.8558C135.427 24.0608 135.884 23.4012 136.44 22.8768C136.996 22.3461 137.629 21.9645 138.339 21.732C139.056 21.5002 139.823 21.4276 140.64 21.5141C141.483 21.6032 142.227 21.8357 142.873 22.2116C143.525 22.5882 144.065 23.0938 144.491 23.7284C144.924 24.3574 145.227 25.0975 145.4 25.9488C145.579 26.7944 145.614 27.7369 145.504 28.7762ZM143.596 29.4586L143.691 28.5651C143.778 27.7413 143.77 27.0035 143.665 26.3517C143.568 25.7006 143.38 25.1424 143.102 24.6773C142.825 24.2122 142.463 23.844 142.018 23.5726C141.579 23.3018 141.064 23.1353 140.475 23.073C139.905 23.0126 139.377 23.0689 138.891 23.2418C138.411 23.4153 137.983 23.7001 137.608 24.0961C137.239 24.4929 136.933 24.9987 136.688 25.6136C136.444 26.2286 136.278 26.948 136.191 27.7718L136.096 28.6653C136.009 29.4954 136.02 30.2399 136.129 30.8987C136.24 31.5512 136.437 32.1135 136.72 32.5856C137.01 33.0521 137.372 33.4203 137.804 33.6904C138.244 33.9611 138.748 34.1266 139.319 34.187C139.914 34.25 140.455 34.195 140.941 34.0222C141.427 33.8493 141.852 33.5642 142.214 33.1668C142.583 32.7637 142.884 32.2541 143.116 31.6378C143.348 31.0152 143.509 30.2888 143.596 29.4586Z" fill="white"/>
<path d="M153.72 31.4315L150.294 30.5918L150.628 29.1483L153.738 29.9106C154.252 30.0365 154.722 30.0598 155.148 29.9806C155.574 29.9013 155.932 29.7266 156.221 29.4563C156.518 29.1814 156.722 28.818 156.833 28.3662C156.954 27.8711 156.957 27.4453 156.841 27.0888C156.733 26.7276 156.501 26.4281 156.146 26.1902C155.799 25.9476 155.328 25.7535 154.734 25.6078L152.097 24.9616L149.143 37.0119L147.352 36.5727L150.665 23.0555L155.093 24.141C155.786 24.3109 156.388 24.5338 156.898 24.8096C157.409 25.0793 157.817 25.4089 158.122 25.7985C158.434 26.1835 158.634 26.6261 158.721 27.1265C158.809 27.6268 158.775 28.1927 158.62 28.824C158.484 29.381 158.218 29.8505 157.822 30.2325C157.428 30.6084 156.943 30.8765 156.365 31.0368C155.794 31.1986 155.161 31.237 154.467 31.1522L153.72 31.4315ZM152.086 37.7332L148.039 36.7411L149.408 35.5316L152.444 36.2757C153.013 36.4153 153.52 36.4346 153.965 36.3336C154.416 36.2341 154.79 36.0307 155.089 35.7233C155.389 35.4098 155.599 35.0054 155.721 34.5103C155.843 34.0089 155.86 33.5537 155.77 33.1445C155.68 32.7354 155.467 32.3848 155.132 32.0926C154.797 31.8005 154.326 31.5801 153.72 31.4315L151.167 30.8057L151.538 29.3713L155.028 30.2269L155.282 30.8401C155.918 31.0551 156.423 31.3757 156.798 31.8021C157.174 32.2223 157.42 32.7026 157.537 33.243C157.66 33.785 157.65 34.3468 157.508 34.9286C157.301 35.7703 156.941 36.4366 156.427 36.9273C155.921 37.4134 155.296 37.7262 154.554 37.8656C153.812 37.9989 152.99 37.9547 152.086 37.7332Z" fill="white"/>
<path d="M168.471 41.5544L167.933 42.9553L161.054 40.3127L161.592 38.9118L168.471 41.5544ZM166.392 27.4546L161.402 40.4463L159.68 39.7848L164.67 26.7931L166.392 27.4546ZM169.868 35.1997L169.33 36.6006L163.36 34.3075L163.899 32.9066L169.868 35.1997ZM172.835 29.9293L172.293 31.3391L165.503 28.7307L166.044 27.3209L172.835 29.9293Z" fill="white"/>
<path d="M177.219 41.5189L173.941 39.7638L174.65 38.4408L177.928 40.1959C178.563 40.5358 179.131 40.7099 179.632 40.7183C180.134 40.7266 180.571 40.5991 180.943 40.3358C181.321 40.0755 181.633 39.715 181.88 39.2544C182.105 38.833 182.225 38.3874 182.238 37.9173C182.257 37.4503 182.13 36.9991 181.857 36.5639C181.587 36.123 181.134 35.7326 180.499 35.3927L177.601 33.8406L171.744 44.7785L170.118 43.9077L176.687 31.6384L181.212 34.0613C182.139 34.5576 182.837 35.1373 183.306 35.8004C183.775 36.4635 184.024 37.1675 184.051 37.9124C184.082 38.6516 183.903 39.3836 183.515 40.1083C183.094 40.8948 182.569 41.4774 181.94 41.8561C181.31 42.2348 180.597 42.3988 179.801 42.348C179.007 42.2916 178.146 42.0152 177.219 41.5189Z" fill="white"/>
<path d="M190.351 51.1826L191.842 52.252C191.252 52.9109 190.589 53.4038 189.853 53.7307C189.116 54.0575 188.327 54.1694 187.483 54.0664C186.643 53.9583 185.77 53.5793 184.864 52.9295C184.201 52.4542 183.687 51.8973 183.321 51.2588C182.961 50.6241 182.75 49.9396 182.688 49.2054C182.63 48.466 182.725 47.6991 182.973 46.9047C183.23 46.1088 183.643 45.3147 184.211 44.5223L185.019 43.396C185.587 42.6036 186.205 41.9606 186.872 41.467C187.549 40.9719 188.249 40.635 188.973 40.4562C189.702 40.2812 190.436 40.27 191.173 40.4224C191.911 40.5749 192.629 40.9017 193.328 41.403C194.183 42.0157 194.79 42.6942 195.15 43.4386C195.51 44.183 195.649 44.957 195.567 45.7606C195.494 46.5627 195.229 47.3645 194.772 48.1659L193.28 47.0965C193.586 46.5163 193.777 45.9666 193.851 45.4475C193.929 44.9231 193.861 44.4274 193.647 43.9604C193.433 43.4933 193.033 43.05 192.448 42.6304C191.946 42.2702 191.434 42.0485 190.914 41.9654C190.398 41.8859 189.885 41.9294 189.373 42.0959C188.867 42.2661 188.373 42.5508 187.891 42.95C187.409 43.3491 186.952 43.8491 186.521 44.4498L185.703 45.5917C185.305 46.1459 184.989 46.7072 184.754 47.2757C184.524 47.8479 184.396 48.4032 184.371 48.9417C184.346 49.4802 184.441 49.9875 184.656 50.4634C184.875 50.9342 185.236 51.3497 185.738 51.7099C186.375 52.1666 186.955 52.4295 187.478 52.4986C188.001 52.5677 188.494 52.4819 188.956 52.2412C189.424 52.0043 189.889 51.6514 190.351 51.1826Z" fill="white"/>
<path d="M194.105 55.8393L206.444 52.718L207.788 53.9815L198.257 64.1228L196.913 62.8593L204.264 55.0374L191.919 58.1657L190.581 56.9088L200.113 46.7675L201.45 48.0244L194.105 55.8393Z" fill="white"/>
<path d="M209.286 68.8047L206.823 65.7687L206.541 64.8287C206.154 63.8461 206.045 62.9377 206.213 62.1035C206.386 61.2654 206.854 60.5371 207.616 59.9188C208.314 59.3527 209.03 59.0264 209.764 58.9397C210.501 58.858 211.227 58.9993 211.942 59.3637C212.66 59.7329 213.336 60.3085 213.97 61.0904L216.777 64.5494L205.969 73.3179L204.807 71.8853L214.442 64.0683L212.797 62.0419C212.155 61.2501 211.483 60.8064 210.782 60.7107C210.085 60.6199 209.417 60.8335 208.778 61.3514C208.363 61.6887 208.062 62.0764 207.876 62.5146C207.694 62.9577 207.649 63.4288 207.742 63.9277C207.835 64.4267 208.09 64.9335 208.508 65.4481L210.465 67.8606L209.286 68.8047ZM208.053 65.7677L200.97 67.157L199.736 65.6353L206.879 64.3203L208.053 65.7677Z" fill="white"/>
<circle cx="227.809" cy="107.821" r="3" fill="white"/>
<circle cx="63.8091" cy="51.8206" r="3" fill="white"/>
<circle cx="95.8091" cy="227.821" r="3" fill="white"/>
</svg>
