<svg width="1381" height="260" viewBox="0 0 1381 260" fill="none" xmlns="http://www.w3.org/2000/svg">
  <path d="M0.166667 6C0.166667 8.94552 2.55448 11.3333 5.5 11.3333C8.44552 11.3333 10.8333 8.94552 10.8333 6C10.8333 3.05448 8.44552 0.666667 5.5 0.666667C2.55448 0.666667 0.166667 3.05448 0.166667 6ZM1374.5 259.5L1380.27 249.5H1368.73L1374.5 259.5ZM5.5 7H1334.5V5H5.5V7ZM1373.5 46V250.5H1375.5V46H1373.5ZM1334.5 7C1356.04 7 1373.5 24.4609 1373.5 46H1375.5C1375.5 23.3563 1357.14 5 1334.5 5V7Z" fill="#F0F0F0" />
</svg>