<svg width="139" height="137" viewBox="0 0 139 137" fill="none" xmlns="http://www.w3.org/2000/svg">
<path d="M84.6667 22H74.2222V32.4444H84.6667V22ZM74.2222 58.5556H63.7778V32.4444H74.2222V58.5556ZM116 69H105.556V48.1111H116V69ZM105.556 79.4444H95.1111V69H105.556V79.4444ZM42.8889 69H32.4444V58.5556H42.8889V69ZM32.4444 79.4444H22V69H32.4444V79.4444ZM69 105.556H79.4444V116H69V105.556ZM29.8333 108.167V92.5H45.5V108.167H29.8333ZM48.1111 84.6667H27.2222C24.35 84.6667 22 87.0167 22 89.8889V110.778C22 113.65 24.35 116 27.2222 116H48.1111C50.9833 116 53.3333 113.65 53.3333 110.778V89.8889C53.3333 87.0167 50.9833 84.6667 48.1111 84.6667ZM29.8333 45.5V29.8333H45.5V45.5H29.8333ZM48.1111 22H27.2222C24.35 22 22 24.35 22 27.2222V48.1111C22 50.9833 24.35 53.3333 27.2222 53.3333H48.1111C50.9833 53.3333 53.3333 50.9833 53.3333 48.1111V27.2222C53.3333 24.35 50.9833 22 48.1111 22ZM92.5 108.167V92.5H108.167V108.167H92.5ZM110.778 84.6667H89.8889C87.0167 84.6667 84.6667 87.0167 84.6667 89.8889V110.778C84.6667 113.65 87.0167 116 89.8889 116H110.778C113.65 116 116 113.65 116 110.778V89.8889C116 87.0167 113.65 84.6667 110.778 84.6667ZM105.556 32.4444V48.1111H84.6667V37.6667H95.1111V22H116V32.4444H105.556ZM95.1111 69H74.2222V58.5556H95.1111V69ZM74.2222 79.4444H42.8889V69H53.3333V58.5556H63.7778V69H74.2222V79.4444ZM79.4444 84.6667V95.1111H69V105.556H58.5556V84.6667H79.4444ZM41.5833 104.25H33.75V96.4167H41.5833V104.25ZM41.5833 41.5833H33.75V33.75H41.5833V41.5833ZM104.25 104.25H96.4167V96.4167H104.25V104.25Z" fill="#F6B611"/>
</svg>
