<svg width="231" height="232" viewBox="0 0 231 232" fill="none" xmlns="http://www.w3.org/2000/svg">
<path d="M220.866 145.662L208.608 141.989L209.092 140.372L220.02 143.647L221.832 137.602L210.904 134.327L211.391 132.702L223.649 136.376L220.866 145.662Z" fill="white"/>
<path d="M210.765 156.313L210.026 155.985C209.148 155.594 208.41 155.134 207.812 154.605C207.214 154.075 206.763 153.496 206.459 152.867C206.155 152.238 206.004 151.577 206.004 150.885C206.002 150.198 206.16 149.498 206.477 148.786C206.784 148.096 207.195 147.519 207.709 147.055C208.221 146.596 208.815 146.264 209.49 146.058C210.163 145.857 210.899 145.797 211.697 145.877C212.495 145.956 213.333 146.191 214.211 146.582L214.95 146.911C215.828 147.302 216.562 147.763 217.153 148.295C217.746 148.835 218.193 149.422 218.495 150.057C218.801 150.694 218.956 151.356 218.958 152.043C218.957 152.735 218.803 153.427 218.496 154.117C218.179 154.829 217.765 155.414 217.253 155.873C216.738 156.336 216.143 156.665 215.467 156.858C214.794 157.058 214.061 157.114 213.267 157.023C212.477 156.941 211.643 156.704 210.765 156.313ZM210.709 154.451L211.463 154.787C212.159 155.097 212.807 155.298 213.407 155.392C214.004 155.491 214.545 155.485 215.031 155.374C215.516 155.263 215.941 155.052 216.305 154.739C216.666 154.431 216.957 154.029 217.179 153.531C217.393 153.049 217.494 152.571 217.481 152.097C217.465 151.628 217.337 151.174 217.097 150.733C216.854 150.298 216.499 149.887 216.03 149.499C215.562 149.11 214.979 148.761 214.283 148.452L213.529 148.116C212.827 147.804 212.173 147.602 211.566 147.511C210.964 147.423 210.416 147.436 209.923 147.55C209.433 147.671 209.008 147.883 208.649 148.185C208.288 148.493 208 148.887 207.785 149.369C207.561 149.872 207.456 150.361 207.47 150.835C207.483 151.309 207.612 151.761 207.857 152.191C208.105 152.628 208.465 153.036 208.939 153.413C209.417 153.793 210.007 154.139 210.709 154.451Z" fill="white"/>
<path d="M200.192 165.291L199.019 164.563L204.128 156.335L205.301 157.062L200.192 165.291ZM205.157 157.294L201.312 154.906L202.197 153.48L206.047 155.86L205.157 157.294ZM199.413 166.545L195.584 164.147L196.47 162.721L200.308 165.104L199.413 166.545ZM210.767 169.902L209.588 169.169L212.545 164.406L213.725 165.138L210.767 169.902ZM209.998 171.142L199.126 164.391L200.016 162.958L210.888 169.708L209.998 171.142ZM214.031 164.645L213.136 166.086L208.9 163.146C208.261 162.708 207.693 162.269 207.194 161.828C206.7 161.39 206.267 160.959 205.896 160.536C205.525 160.112 205.213 159.698 204.961 159.293C204.714 158.891 204.521 158.506 204.384 158.138C204.252 157.774 204.171 157.427 204.141 157.098C204.113 156.776 204.133 156.482 204.203 156.215L204.611 155.558L205.783 156.286L205.495 156.749C205.554 156.965 205.665 157.237 205.827 157.565C205.985 157.898 206.223 158.276 206.539 158.7C206.857 159.132 207.281 159.599 207.811 160.101C208.338 160.607 209.001 161.139 209.799 161.697L214.031 164.645Z" fill="white"/>
<path d="M203.955 178.588L197.473 168.007L198.551 166.653L205.521 178.442L204.826 179.315L203.955 178.588ZM192.621 174.098L204.388 178.045L205.291 178.73L204.596 179.603L191.536 175.459L192.621 174.098ZM196.463 176.878L195.377 176.013L199.856 170.389L200.942 171.255L196.463 176.878Z" fill="white"/>
<path d="M196.879 189.097L187.765 180.114L188.937 178.925L198.052 187.907L196.879 189.097ZM193.992 192.026L193.003 191.052L199.944 184.009L200.933 184.984L193.992 192.026Z" fill="white"/>
<path d="M188.02 191.161L185.299 193.345C184.568 193.932 183.852 194.303 183.151 194.46C182.454 194.621 181.799 194.587 181.187 194.357C180.574 194.128 180.031 193.718 179.558 193.129C179.206 192.69 178.957 192.229 178.81 191.746C178.666 191.268 178.63 190.778 178.702 190.278C178.777 189.782 178.966 189.292 179.269 188.808C179.576 188.329 180.003 187.869 180.551 187.429L184.28 184.437L192.29 194.417L190.967 195.479L183.821 186.575L181.415 188.506C180.926 188.898 180.602 189.304 180.444 189.725C180.284 190.153 180.251 190.57 180.344 190.977C180.437 191.383 180.618 191.753 180.885 192.086C181.153 192.42 181.47 192.669 181.835 192.834C182.2 192.999 182.602 193.041 183.04 192.96C183.478 192.887 183.941 192.654 184.43 192.262L187.151 190.078L188.02 191.161Z" fill="white"/>
<path d="M171.528 202.039L172.848 201.285L173.384 202.224L172.117 202.948C171.557 203.267 171.149 203.605 170.894 203.96C170.638 204.315 170.511 204.678 170.513 205.048C170.515 205.418 170.62 205.786 170.83 206.152C171.03 206.503 171.3 206.775 171.638 206.966C171.98 207.162 172.381 207.244 172.841 207.21C173.304 207.182 173.82 207.005 174.39 206.68C174.817 206.436 175.158 206.134 175.411 205.773C175.667 205.418 175.815 205.04 175.856 204.639C175.899 204.242 175.817 203.861 175.608 203.495L177.081 202.654C177.351 203.127 177.494 203.608 177.511 204.098C177.53 204.593 177.442 205.072 177.248 205.534C177.056 206.001 176.774 206.435 176.402 206.836C176.026 207.24 175.583 207.588 175.074 207.878C174.479 208.218 173.9 208.457 173.338 208.596C172.78 208.74 172.252 208.778 171.754 208.711C171.257 208.644 170.805 208.467 170.398 208.18C169.992 207.893 169.64 207.49 169.344 206.971C169.126 206.589 169.01 206.179 168.996 205.742C168.983 205.304 169.068 204.864 169.254 204.421C169.439 203.977 169.721 203.55 170.1 203.138C170.482 202.731 170.958 202.365 171.528 202.039ZM173.218 201.934L171.898 202.688C171.272 203.046 170.679 203.3 170.118 203.452C169.556 203.604 169.038 203.653 168.563 203.601C168.088 203.548 167.66 203.391 167.281 203.128C166.9 202.874 166.577 202.515 166.312 202.052C166.016 201.533 165.855 201.014 165.829 200.496C165.798 199.981 165.885 199.479 166.092 198.99C166.298 198.501 166.613 198.041 167.035 197.611C167.453 197.184 167.959 196.8 168.554 196.46C169.032 196.187 169.541 195.978 170.078 195.833C170.614 195.696 171.144 195.649 171.669 195.694C172.197 195.743 172.691 195.906 173.152 196.183C173.609 196.462 174 196.886 174.325 197.456L172.852 198.297C172.64 197.926 172.344 197.643 171.963 197.449C171.577 197.258 171.147 197.173 170.673 197.193C170.202 197.219 169.723 197.372 169.234 197.651C168.674 197.97 168.251 198.327 167.963 198.721C167.673 199.123 167.513 199.535 167.484 199.956C167.452 200.386 167.547 200.794 167.768 201.18C167.963 201.521 168.187 201.784 168.441 201.97C168.693 202.163 168.973 202.28 169.28 202.321C169.581 202.365 169.911 202.335 170.271 202.231C170.627 202.135 171.012 201.969 171.424 201.734L172.691 201.011L173.218 201.934Z" fill="white"/>
<path d="M163.456 212.913L162.768 200.524L164.36 199.843L164.904 213.527L163.878 213.966L163.456 212.913ZM155.608 203.584L164.095 212.64L164.564 213.673L163.538 214.111L154.007 204.268L155.608 203.584ZM157.671 207.854L157.126 206.577L163.737 203.751L164.282 205.028L157.671 207.854Z" fill="white"/>
<path d="M147.646 212.053L151.097 211.047L151.994 211.142C152.965 211.165 153.774 211.396 154.421 211.836C155.07 212.282 155.52 212.938 155.773 213.804C156.004 214.597 156.025 215.32 155.837 215.973C155.644 216.628 155.265 217.193 154.702 217.668C154.133 218.145 153.404 218.513 152.515 218.772L148.583 219.918L145.003 207.632L146.631 207.158L149.823 218.11L152.127 217.439C153.027 217.177 153.642 216.765 153.973 216.205C154.299 215.646 154.356 215.004 154.144 214.278C154.007 213.806 153.785 213.413 153.48 213.099C153.169 212.787 152.786 212.581 152.33 212.482C151.874 212.383 151.353 212.419 150.768 212.589L148.026 213.388L147.646 212.053ZM150.659 212.09L152.006 205.591L153.736 205.087L152.305 211.61L150.659 212.09Z" fill="white"/>
<path d="M138.885 215.638L142.083 215.103L142.325 216.444L139.421 216.929C138.941 217.009 138.536 217.16 138.205 217.382C137.873 217.603 137.635 217.881 137.488 218.214C137.337 218.554 137.297 218.935 137.367 219.357C137.445 219.82 137.597 220.18 137.824 220.439C138.047 220.705 138.351 220.874 138.738 220.946C139.119 221.025 139.587 221.018 140.142 220.925L142.604 220.514L140.725 209.262L142.398 208.982L144.506 221.604L140.371 222.295C139.724 222.403 139.135 222.433 138.604 222.385C138.074 222.343 137.61 222.213 137.211 221.994C136.807 221.783 136.478 221.481 136.222 221.09C135.967 220.699 135.79 220.209 135.691 219.619C135.604 219.099 135.659 218.606 135.854 218.14C136.05 217.679 136.363 217.277 136.793 216.931C137.217 216.587 137.737 216.325 138.355 216.145L138.885 215.638ZM137.976 209.721L141.756 209.09L141.039 210.608L138.204 211.082C137.672 211.171 137.237 211.339 136.898 211.585C136.553 211.833 136.31 212.141 136.17 212.509C136.03 212.883 135.999 213.301 136.076 213.763C136.155 214.231 136.306 214.622 136.531 214.935C136.755 215.248 137.062 215.467 137.451 215.592C137.84 215.717 138.318 215.732 138.885 215.638L141.269 215.239L141.476 216.586L138.216 217.13L137.78 216.704C137.164 216.754 136.621 216.666 136.15 216.442C135.68 216.223 135.297 215.907 135.002 215.493C134.701 215.08 134.506 214.602 134.415 214.058C134.284 213.272 134.346 212.579 134.602 211.978C134.853 211.383 135.267 210.892 135.844 210.505C136.422 210.123 137.133 209.862 137.976 209.721Z" fill="white"/>
<path d="M130.215 224.251L129.573 211.471L131.267 211.386L131.909 224.166L130.215 224.251ZM122.341 224.647L127.535 217.337L130.537 217.186L130.871 218.578L128.615 218.691L124.439 224.541L122.341 224.647ZM123.402 211.78L128.503 217.508L127.63 219.039L121.33 211.884L123.402 211.78Z" fill="white"/>
<path d="M115.466 216.466L111.497 224.762L109.55 224.627L114.805 214.306C114.955 214.017 115.118 213.737 115.295 213.468C115.472 213.204 115.682 212.972 115.925 212.771C116.168 212.571 116.464 212.418 116.812 212.313C117.154 212.208 117.573 212.172 118.07 212.207C118.21 212.217 118.376 212.237 118.568 212.268C118.76 212.293 118.885 212.316 118.942 212.338L118.796 213.685C118.732 213.668 118.607 213.648 118.421 213.623C118.234 213.604 118.097 213.592 118.009 213.586C117.676 213.563 117.409 213.612 117.206 213.733C117.004 213.854 116.837 214.012 116.706 214.209C116.569 214.411 116.443 214.616 116.329 214.826L115.466 216.466ZM117.739 225.197L114.741 216.997L114.43 215.398L115.857 215.392L119.633 225.328L117.739 225.197Z" fill="white"/>
<path d="M40.6112 194.342L49.627 185.261L50.8246 186.45L42.7872 194.546L47.2656 198.992L55.303 190.896L56.5068 192.091L47.491 201.172L40.6112 194.342Z" fill="white"/>
<path d="M35.9713 180.395L36.6092 179.898C37.3673 179.308 38.1206 178.873 38.8692 178.595C39.6178 178.316 40.341 178.191 41.0389 178.219C41.7368 178.248 42.3911 178.425 43.0019 178.751C43.609 179.073 44.152 179.542 44.6309 180.156C45.0953 180.753 45.411 181.387 45.578 182.059C45.7414 182.726 45.7549 183.407 45.6187 184.099C45.4789 184.788 45.1859 185.465 44.7398 186.132C44.2937 186.799 43.6916 187.427 42.9335 188.018L42.2955 188.515C41.5374 189.105 40.7846 189.536 40.037 189.806C39.2813 190.075 38.5527 190.193 37.8512 190.161C37.145 190.131 36.4884 189.956 35.8813 189.634C35.2705 189.307 34.7329 188.846 34.2685 188.25C33.7896 187.635 33.4685 186.994 33.3051 186.326C33.1382 185.654 33.1287 184.975 33.2767 184.287C33.4166 183.599 33.7131 182.926 34.1665 182.269C34.6116 181.61 35.2132 180.986 35.9713 180.395ZM37.6407 181.223L36.9889 181.73C36.388 182.198 35.905 182.675 35.54 183.16C35.1713 183.64 34.9216 184.12 34.7909 184.601C34.6602 185.082 34.6472 185.556 34.7518 186.024C34.8528 186.487 35.0708 186.934 35.4056 187.364C35.7297 187.78 36.104 188.094 36.5286 188.305C36.9497 188.512 37.411 188.613 37.9125 188.609C38.4105 188.6 38.941 188.48 39.5041 188.249C40.0672 188.019 40.6492 187.669 41.2501 187.201L41.9019 186.694C42.5075 186.222 42.9933 185.74 43.3594 185.246C43.7208 184.757 43.9674 184.268 44.0991 183.779C44.2227 183.289 44.2357 182.815 44.1383 182.356C44.0372 181.893 43.8247 181.453 43.5006 181.037C43.1622 180.602 42.7806 180.279 42.356 180.068C41.9314 179.856 41.4719 179.757 40.9775 179.771C40.4749 179.784 39.9457 179.91 39.3898 180.15C38.8293 180.393 38.2463 180.751 37.6407 181.223Z" fill="white"/>
<path d="M33.0558 166.892L34.249 166.199L39.1138 174.574L37.9206 175.267L33.0558 166.892ZM37.7837 175.032L41.6977 172.758L42.5409 174.21L38.6313 176.491L37.7837 175.032ZM32.3142 165.615L36.2294 163.361L37.0726 164.813L33.1662 167.082L32.3142 165.615ZM24.0178 174.063L25.2186 173.365L28.035 178.214L26.8342 178.912L24.0178 174.063ZM23.285 172.801L34.3506 166.374L35.1981 167.833L24.1325 174.26L23.285 172.801ZM27.1255 179.413L26.2735 177.946L30.8596 175.588C31.546 175.23 32.201 174.934 32.8244 174.7C33.4427 174.47 34.0261 174.29 34.5746 174.162C35.1232 174.033 35.6353 173.952 36.1112 173.92C36.5819 173.89 37.0119 173.901 37.4011 173.953C37.7852 174.008 38.1296 174.099 38.4343 174.227C38.731 174.353 38.981 174.509 39.1844 174.696L39.5729 175.365L38.3797 176.058L38.106 175.586C37.8876 175.537 37.5956 175.507 37.2299 175.496C36.8613 175.479 36.4157 175.511 35.893 175.591C35.3622 175.669 34.751 175.824 34.0593 176.057C33.3647 176.284 32.5835 176.619 31.716 177.062L27.1255 179.413Z" fill="white"/>
<path d="M19.5337 163.939L31.9206 163.205L32.6069 164.795L18.9248 165.389L18.4823 164.364L19.5337 163.939ZM28.8336 156.056L19.8089 164.577L18.7785 165.05L18.336 164.026L28.1438 154.458L28.8336 156.056ZM24.5716 158.136L25.8465 157.585L28.6965 164.186L27.4216 164.736L24.5716 158.136Z" fill="white"/>
<path d="M13.5582 152.654L25.7884 148.888L26.2799 150.484L14.0497 154.25L13.5582 152.654ZM12.3477 148.723L13.6749 148.314L16.5848 157.764L15.2576 158.172L12.3477 148.723Z" fill="white"/>
<path d="M16.0122 144.205L15.3716 140.775C15.1995 139.853 15.2098 139.047 15.4025 138.355C15.5894 137.665 15.9287 137.103 16.4203 136.672C16.9119 136.24 17.5292 135.955 18.2722 135.816C18.8252 135.713 19.3492 135.71 19.8444 135.809C20.3339 135.908 20.7824 136.107 21.19 136.407C21.5919 136.707 21.9344 137.105 22.2177 137.601C22.4952 138.097 22.6985 138.691 22.8276 139.382L23.7055 144.082L11.1261 146.432L10.8147 144.764L22.0376 142.668L21.4712 139.636C21.3561 139.019 21.1507 138.542 20.8551 138.204C20.5526 137.861 20.2004 137.635 19.7984 137.525C19.3965 137.415 18.9852 137.4 18.5648 137.478C18.1443 137.557 17.7751 137.718 17.4571 137.962C17.1391 138.207 16.9124 138.541 16.7772 138.966C16.6351 139.386 16.6216 139.904 16.7367 140.52L17.3773 143.95L16.0122 144.205Z" fill="white"/>
<path d="M14.1886 124.422L14.2297 125.942L13.1491 125.971L13.1096 124.512C13.0922 123.868 12.9874 123.349 12.795 122.956C12.6027 122.563 12.343 122.279 12.0159 122.107C11.6889 121.934 11.3145 121.853 10.8928 121.864C10.4886 121.875 10.1223 121.985 9.79382 122.193C9.45948 122.401 9.19836 122.716 9.01045 123.137C8.81669 123.559 8.72867 124.097 8.7464 124.753C8.75969 125.245 8.86544 125.688 9.06363 126.081C9.25597 126.475 9.51931 126.784 9.85365 127.01C10.1821 127.235 10.5572 127.342 10.9789 127.331L11.0248 129.026C10.48 129.041 9.98788 128.94 9.54828 128.723C9.10281 128.507 8.72241 128.204 8.40707 127.814C8.08587 127.424 7.83622 126.97 7.65813 126.453C7.47989 125.931 7.38285 125.376 7.36702 124.791C7.3485 124.105 7.41079 123.482 7.5539 122.922C7.69115 122.361 7.90668 121.878 8.20049 121.471C8.49431 121.065 8.86387 120.75 9.30918 120.527C9.75449 120.304 10.2759 120.184 10.8733 120.168C11.3126 120.156 11.7283 120.247 12.1204 120.442C12.5125 120.637 12.8602 120.92 13.1633 121.293C13.4665 121.666 13.7102 122.116 13.8944 122.645C14.0728 123.173 14.1709 123.766 14.1886 124.422ZM13.4829 125.962L13.4418 124.442C13.4224 123.721 13.4783 123.078 13.6095 122.512C13.7407 121.946 13.9417 121.465 14.2124 121.071C14.4831 120.677 14.8237 120.375 15.2342 120.164C15.6386 119.948 16.1074 119.833 16.6404 119.819C17.2378 119.803 17.7711 119.905 18.2401 120.127C18.709 120.343 19.1102 120.658 19.4438 121.071C19.7773 121.484 20.0339 121.978 20.2136 122.553C20.3931 123.123 20.4921 123.75 20.5107 124.436C20.5255 124.986 20.47 125.533 20.344 126.075C20.2119 126.612 20.0024 127.102 19.7154 127.543C19.4225 127.985 19.0454 128.344 18.5839 128.62C18.1223 128.89 17.5635 129.034 16.9075 129.052L16.8617 127.356C17.2892 127.345 17.6785 127.217 18.0295 126.973C18.3803 126.723 18.6583 126.385 18.8637 125.957C19.0631 125.53 19.1553 125.035 19.1401 124.473C19.1227 123.828 19.0084 123.286 18.7972 122.846C18.58 122.401 18.2925 122.066 17.9347 121.841C17.571 121.611 17.1665 121.501 16.7213 121.513C16.3289 121.524 15.9909 121.598 15.7074 121.734C15.4179 121.865 15.1827 122.056 15.0019 122.307C14.821 122.552 14.6915 122.858 14.6135 123.223C14.5294 123.583 14.4938 124 14.5066 124.475L14.546 125.933L13.4829 125.962Z" fill="white"/>
<path d="M8.40989 111.717L19.6316 117.013L19.4715 118.737L7.18024 112.698L7.28339 111.586L8.40989 111.717ZM20.3512 109.26L8.34573 112.409L7.21435 112.33L7.31751 111.219L20.512 107.527L20.3512 109.26ZM15.6139 109.041L16.9966 109.169L16.3322 116.328L14.9495 116.199L15.6139 109.041Z" fill="white"/>
<path d="M16.6084 98.5196L15.8676 102.037L15.3601 102.784C14.8826 103.629 14.2973 104.233 13.6041 104.596C12.9052 104.958 12.1142 105.046 11.2312 104.86C10.4228 104.69 9.77506 104.368 9.28803 103.894C8.80221 103.414 8.48253 102.814 8.32898 102.093C8.17663 101.367 8.19585 100.55 8.38664 99.6444L9.23069 95.6366L21.7529 98.2738L21.4033 99.9336L10.24 97.5826L9.7455 99.9305C9.5523 100.848 9.62468 101.585 9.96262 102.141C10.3018 102.691 10.8412 103.044 11.5808 103.2C12.0624 103.302 12.5136 103.292 12.9343 103.171C13.3561 103.044 13.7183 102.803 14.0207 102.448C14.3231 102.092 14.5371 101.616 14.6627 101.02L15.2513 98.2249L16.6084 98.5196ZM15.1542 101.159L20.2495 105.412L19.8782 107.175L14.8011 102.837L15.1542 101.159Z" fill="white"/>
<path d="M17.6745 88.7055L16.627 91.7748L15.332 91.3515L16.283 88.5649C16.4401 88.1047 16.4997 87.6762 16.4617 87.2793C16.4238 86.8825 16.2928 86.5407 16.0688 86.2537C15.8411 85.9593 15.5249 85.7431 15.1201 85.6049C14.6765 85.4535 14.2867 85.4164 13.9508 85.4937C13.6112 85.5635 13.318 85.7514 13.0712 86.0572C12.8208 86.3556 12.6047 86.771 12.4231 87.3033L11.6168 89.6656L22.4136 93.3504L21.8657 94.9558L9.7547 90.8225L11.1088 86.8548C11.3208 86.2337 11.5738 85.7009 11.8679 85.2565C12.1564 84.8101 12.4915 84.4632 12.8731 84.2158C13.2511 83.961 13.6728 83.8139 14.1381 83.7746C14.6035 83.7353 15.119 83.8122 15.6846 84.0052C16.1837 84.1755 16.5921 84.4573 16.9099 84.8506C17.2221 85.2419 17.4281 85.7085 17.528 86.2502C17.6298 86.7865 17.6136 87.3691 17.4794 87.9981L17.6745 88.7055ZM23.3135 90.7136L22.0757 94.3403L21.0793 92.9879L22.0075 90.2679C22.1817 89.7578 22.2406 89.2949 22.1842 88.8795C22.1298 88.4585 21.9739 88.0988 21.7167 87.8005C21.4538 87.5003 21.1006 87.2745 20.657 87.1231C20.2078 86.9698 19.7922 86.9177 19.4101 86.9669C19.0281 87.016 18.6897 87.1822 18.3949 87.4655C18.1001 87.7487 17.8599 88.1621 17.6745 88.7055L16.8938 90.993L15.6102 90.5363L16.6776 87.4087L17.2598 87.2267C17.5084 86.6615 17.8432 86.2247 18.2642 85.9164C18.6796 85.6062 19.1395 85.4196 19.644 85.3565C20.1503 85.2878 20.6641 85.3425 21.1854 85.5204C21.9396 85.7778 22.5205 86.1618 22.9282 86.6724C23.3323 87.1756 23.5679 87.773 23.6353 88.4646C23.697 89.1543 23.5898 89.904 23.3135 90.7136Z" fill="white"/>
<path d="M14.0807 77.2318L25.6322 82.7385L24.9022 84.2697L13.3508 78.763L14.0807 77.2318ZM17.4732 70.1152L21.4378 78.1588L20.1444 80.8721L18.7615 80.505L19.7335 78.466L16.5693 72.0114L17.4732 70.1152ZM28.291 77.1611L20.8273 78.929L19.8949 77.433L29.1835 75.2887L28.291 77.1611Z" fill="white"/>
<path d="M27.7727 68.193L22.3468 60.7672L23.3882 59.1172L29.9881 68.635C30.172 68.9035 30.3407 69.1797 30.4941 69.4636C30.6425 69.7444 30.7474 70.0392 30.8088 70.3482C30.8702 70.6572 30.8647 70.9897 30.7923 71.3459C30.7231 71.6972 30.5555 72.0834 30.2897 72.5045C30.2147 72.6235 30.1181 72.76 30.0001 72.9141C29.8869 73.0714 29.8073 73.1701 29.7612 73.2103L28.6447 72.4433C28.689 72.395 28.7662 72.2948 28.8761 72.1425C28.9812 71.987 29.0571 71.8721 29.1041 71.7978C29.2823 71.5154 29.366 71.2564 29.3553 71.021C29.3445 70.7855 29.2837 70.5635 29.1728 70.355C29.0601 70.1384 28.9387 69.9301 28.8085 69.7301L27.7727 68.193ZM19.0069 66.0592L27.6481 67.3037L29.2037 67.7866L28.5329 69.0469L17.9937 67.6647L19.0069 66.0592Z" fill="white"/>
<path d="M82.076 12.6444L85.842 24.8745L84.2292 25.3712L80.8719 14.4682L74.8408 16.3253L78.1981 27.2283L76.5769 27.7275L72.8109 15.4973L82.076 12.6444Z" fill="white"/>
<path d="M96.8583 15.007L96.9946 15.804C97.1566 16.7512 97.1833 17.6204 97.0749 18.4117C96.9665 19.203 96.7349 19.8995 96.38 20.5011C96.0252 21.1027 95.5596 21.5955 94.9832 21.9794C94.4126 22.3623 93.7432 22.6194 92.9751 22.7507C92.23 22.8781 91.5219 22.8565 90.8508 22.6859C90.1854 22.5144 89.5796 22.2048 89.0335 21.7573C88.4931 21.3087 88.0346 20.7302 87.6579 20.0219C87.2811 19.3135 87.0118 18.4858 86.8499 17.5386L86.7136 16.7415C86.5516 15.7943 86.5282 14.9275 86.6434 14.141C86.7634 13.3477 87.0037 12.6497 87.3643 12.0471C87.724 11.4388 88.1891 10.9431 88.7597 10.5602C89.336 10.1763 89.9967 9.92071 90.7418 9.79332C91.5099 9.66198 92.2267 9.68209 92.8921 9.85366C93.5632 10.0242 94.1666 10.3372 94.7022 10.7925C95.2425 11.241 95.6953 11.8205 96.0605 12.5308C96.4304 13.2344 96.6964 14.0598 96.8583 15.007ZM95.3399 16.0869L95.2007 15.2726C95.0723 14.5217 94.8808 13.8709 94.6261 13.32C94.3772 12.7681 94.0719 12.321 93.7102 11.9786C93.3484 11.6362 92.9366 11.4005 92.4747 11.2714C92.0185 11.1414 91.5218 11.1223 90.9847 11.2141C90.4649 11.303 90.0115 11.4845 89.6244 11.7588C89.2431 12.032 88.9359 12.3907 88.7027 12.8348C88.4753 13.2779 88.3302 13.802 88.2672 14.4072C88.2042 15.0124 88.2369 15.6905 88.3653 16.4413L88.5046 17.2556C88.6339 18.0122 88.8293 18.6684 89.0908 19.2241C89.3513 19.774 89.6657 20.2225 90.0342 20.5697C90.4074 20.9101 90.8193 21.1458 91.2697 21.2768C91.7259 21.4069 92.2138 21.4275 92.7336 21.3386C93.2765 21.2458 93.7415 21.0622 94.1286 20.788C94.5156 20.5138 94.82 20.1556 95.0416 19.7135C95.268 19.2646 95.4069 18.7385 95.4583 18.1353C95.5088 17.5263 95.4693 16.8435 95.3399 16.0869Z" fill="white"/>
<path d="M109.902 18.7983L109.95 20.1773L100.27 20.5137L100.222 19.1346L109.902 18.7983ZM100.494 19.1252L100.652 23.6488L98.9739 23.7071L98.8079 19.1838L100.494 19.1252ZM111.377 18.747L111.517 23.2624L109.839 23.3207L109.682 18.8059L111.377 18.747ZM107.845 7.44585L107.893 8.83368L102.289 9.02842L102.241 7.64058L107.845 7.44585ZM109.303 7.39518L109.748 20.1843L108.061 20.2429L107.617 7.45378L109.303 7.39518ZM101.661 7.66073L103.357 7.60182L103.272 12.7583C103.264 13.5324 103.215 14.2494 103.127 14.9091C103.038 15.563 102.921 16.1621 102.776 16.7066C102.631 17.251 102.46 17.7406 102.264 18.1754C102.068 18.6044 101.855 18.9782 101.626 19.2969C101.397 19.6097 101.154 19.8703 100.897 20.0786C100.646 20.2808 100.39 20.4274 100.129 20.5186L99.3565 20.5454L99.3086 19.1664L99.8532 19.1474C99.9998 18.9782 100.164 18.735 100.347 18.418C100.535 18.1007 100.717 17.6927 100.893 17.1941C101.075 16.6895 101.227 16.0774 101.348 15.3579C101.476 14.6382 101.549 13.7914 101.568 12.8175L101.661 7.66073Z" fill="white"/>
<path d="M119.317 8.23338L114.107 19.4955L112.382 19.3488L118.327 7.01131L119.439 7.10591L119.317 8.23338ZM121.866 20.1554L118.625 8.17454L118.695 7.04259L119.807 7.13719L123.6 20.3029L121.866 20.1554ZM122.049 15.4165L121.931 16.8002L114.768 16.1909L114.885 14.8073L122.049 15.4165Z" fill="white"/>
<path d="M132.06 8.26071L129.615 20.8217L127.976 20.5026L130.421 7.94157L132.06 8.26071ZM136.098 9.04681L135.832 10.4099L126.127 8.52023L126.392 7.15715L136.098 9.04681Z" fill="white"/>
<path d="M138.657 14.4345L141.98 15.499C142.873 15.7851 143.578 16.1771 144.095 16.675C144.614 17.1674 144.947 17.7324 145.093 18.37C145.24 19.0076 145.197 19.6863 144.967 20.4061C144.795 20.9418 144.549 21.4042 144.227 21.7934C143.907 22.177 143.519 22.4771 143.062 22.6937C142.607 22.9047 142.094 23.0173 141.523 23.0314C140.954 23.0399 140.335 22.9369 139.666 22.7224L135.112 21.2636L139.017 9.07688L140.632 9.59441L137.149 20.467L140.087 21.4083C140.684 21.5996 141.201 21.6454 141.639 21.5457C142.085 21.4423 142.451 21.2398 142.738 20.9381C143.026 20.6364 143.235 20.2818 143.365 19.8745C143.496 19.4672 143.529 19.0656 143.465 18.6698C143.401 18.274 143.214 17.9158 142.905 17.5951C142.603 17.2707 142.153 17.0128 141.556 16.8215L138.233 15.7569L138.657 14.4345Z" fill="white"/>
<path d="M156.826 22.1159L155.468 21.4312L155.955 20.4659L157.258 21.1229C157.833 21.4131 158.34 21.5669 158.777 21.5841C159.215 21.6013 159.587 21.507 159.895 21.301C160.202 21.0951 160.451 20.8038 160.641 20.4271C160.823 20.0661 160.9 19.6917 160.872 19.3037C160.848 18.9106 160.694 18.5314 160.413 18.1662C160.133 17.7958 159.701 17.4628 159.115 17.1673C158.676 16.9456 158.236 16.8288 157.796 16.8168C157.358 16.7996 156.961 16.8847 156.604 17.0721C156.249 17.2543 155.977 17.5338 155.787 17.9104L154.273 17.1466C154.518 16.66 154.84 16.2746 155.24 15.9904C155.641 15.7009 156.089 15.5099 156.582 15.4172C157.077 15.3194 157.595 15.3146 158.135 15.403C158.679 15.4939 159.213 15.6714 159.736 15.9352C160.348 16.2439 160.867 16.5942 161.293 16.9861C161.722 17.3728 162.045 17.7919 162.264 18.2434C162.482 18.6948 162.584 19.1695 162.569 19.6673C162.554 20.1651 162.412 20.6809 162.143 21.2145C161.945 21.6069 161.668 21.9295 161.311 22.1825C160.953 22.4354 160.539 22.6069 160.067 22.697C159.595 22.7871 159.082 22.7879 158.53 22.6995C157.98 22.6059 157.412 22.4114 156.826 22.1159ZM155.805 20.7641L157.162 21.4488C157.806 21.7734 158.346 22.1277 158.782 22.5118C159.218 22.8958 159.546 23.3005 159.764 23.7258C159.983 24.151 160.088 24.5943 160.078 25.0554C160.077 25.514 159.956 25.9813 159.716 26.4574C159.447 26.991 159.103 27.4117 158.685 27.7195C158.273 28.0299 157.806 28.234 157.284 28.3317C156.762 28.4295 156.205 28.421 155.614 28.3063C155.027 28.1942 154.428 27.9838 153.816 27.6751C153.324 27.4271 152.869 27.1189 152.451 26.7506C152.041 26.3797 151.709 25.9633 151.457 25.5012C151.207 25.0339 151.07 24.5316 151.045 23.9943C151.026 23.4597 151.164 22.8994 151.46 22.3135L152.975 23.0773C152.782 23.4592 152.71 23.8625 152.758 24.2872C152.812 24.7145 152.978 25.1199 153.257 25.5035C153.539 25.8818 153.931 26.1976 154.433 26.4509C155.008 26.7411 155.54 26.8976 156.027 26.9202C156.522 26.9403 156.954 26.8461 157.321 26.6378C157.697 26.4268 157.985 26.1225 158.185 25.7249C158.362 25.3744 158.458 25.0419 158.472 24.7275C158.494 24.4106 158.437 24.1129 158.302 23.8347C158.172 23.5591 157.964 23.3003 157.68 23.0582C157.403 22.8136 157.052 22.5844 156.629 22.3707L155.326 21.7137L155.805 20.7641Z" fill="white"/>
<path d="M170.533 22.8953L160.561 30.2797L159.117 29.3236L170.25 21.3482L171.181 21.9646L170.533 22.8953ZM167.053 34.5797L169.954 22.5119L170.558 21.5521L171.489 22.1684L168.504 35.5407L167.053 34.5797ZM169.486 30.5088L168.719 31.6666L162.725 27.6966L163.492 26.5388L169.486 30.5088Z" fill="white"/>
<path d="M178.558 36.5497L175.812 34.2289L175.396 33.4281C174.878 32.6067 174.624 31.8048 174.633 31.0224C174.646 30.2355 174.944 29.4975 175.526 28.8084C176.06 28.1774 176.651 27.76 177.299 27.556C177.951 27.3557 178.631 27.359 179.339 27.5658C180.051 27.7764 180.76 28.1806 181.467 28.7782L184.595 31.4224L176.334 41.1952L175.038 40.1001L182.403 31.3878L180.571 29.8387C179.855 29.2335 179.172 28.9477 178.522 28.9814C177.877 29.0189 177.31 29.3262 176.822 29.9035C176.504 30.2793 176.299 30.6811 176.206 31.1089C176.117 31.5404 176.158 31.9735 176.327 32.4084C176.497 32.8432 176.814 33.2573 177.279 33.6507L179.461 35.4948L178.558 36.5497ZM176.923 34.0173L170.763 36.4857L169.387 35.3225L175.615 32.9109L176.923 34.0173Z" fill="white"/>
<path d="M186.41 41.8552L184.193 39.4881L185.176 38.544L187.188 40.6929C187.521 41.0479 187.871 41.3019 188.239 41.4548C188.607 41.6078 188.971 41.6529 189.329 41.59C189.696 41.5274 190.035 41.3499 190.348 41.0575C190.69 40.737 190.906 40.4104 190.995 40.0775C191.093 39.745 191.065 39.3979 190.911 39.0363C190.766 38.6751 190.5 38.2892 190.116 37.8786L188.41 36.0569L180.083 43.8556L178.924 42.6176L188.263 33.8695L191.129 36.9293C191.578 37.4083 191.929 37.882 192.184 38.3504C192.442 38.8149 192.591 39.2737 192.63 39.7268C192.677 40.1802 192.609 40.6215 192.425 41.0508C192.241 41.48 191.931 41.8989 191.494 42.3075C191.11 42.668 190.669 42.8961 190.172 42.9918C189.68 43.0835 189.172 43.0461 188.646 42.8797C188.125 42.7175 187.619 42.4294 187.126 42.0154L186.41 41.8552ZM181.988 45.8891L179.368 43.0923L181.03 42.8482L182.995 44.9458C183.364 45.3392 183.744 45.6087 184.138 45.7542C184.535 45.904 184.925 45.9354 185.31 45.8485C185.698 45.7576 186.064 45.5519 186.406 45.2314C186.752 44.907 186.993 44.5646 187.129 44.2043C187.266 43.8439 187.278 43.4671 187.166 43.0738C187.055 42.6805 186.803 42.2743 186.41 41.8552L184.758 40.0911L185.764 39.1727L188.024 41.5846L187.911 42.1841C188.293 42.6691 188.521 43.1699 188.595 43.6864C188.674 44.1988 188.622 44.6925 188.441 45.1675C188.264 45.6467 187.974 46.0745 187.572 46.451C186.99 46.9958 186.378 47.3281 185.736 47.4481C185.102 47.5683 184.464 47.4956 183.822 47.23C183.184 46.9604 182.573 46.5134 181.988 45.8891Z" fill="white"/>
<path d="M198.434 44.3005L188.141 51.9037L187.133 50.5392L197.426 42.9361L198.434 44.3005ZM203.118 50.6419L194.155 50.3567L192.369 47.9389L193.344 46.8913L194.686 48.7082L201.87 48.9523L203.118 50.6419ZM191.812 56.8736L193.763 49.4556L195.521 49.3366L193.044 58.542L191.812 56.8736Z" fill="white"/>
<path d="M199.961 60.6142L209.066 59.3119L210.033 61.0063L198.531 62.3623C198.207 62.3986 197.884 62.4177 197.561 62.4198C197.244 62.419 196.934 62.3731 196.633 62.2822C196.331 62.1913 196.04 62.0302 195.76 61.799C195.482 61.5729 195.22 61.2436 194.973 60.8111C194.903 60.689 194.828 60.5396 194.747 60.363C194.662 60.1893 194.612 60.0726 194.598 60.013L195.8 59.3876C195.821 59.4494 195.874 59.5646 195.956 59.7332C196.044 59.899 196.11 60.02 196.154 60.0963C196.319 60.3863 196.509 60.5819 196.722 60.683C196.934 60.7841 197.159 60.8346 197.395 60.8347C197.639 60.837 197.88 60.8276 198.118 60.8066L199.961 60.6142ZM205.963 53.8777L200.805 60.9218L199.648 62.0683L198.851 60.8842L205.021 52.2291L205.963 53.8777Z" fill="white"/>
<circle cx="213" cy="95" r="3" fill="white"/>
<circle cx="49" cy="39" r="3" fill="white"/>
<circle cx="81" cy="215" r="3" fill="white"/>
</svg>
