<svg width="592" height="246" viewBox="0 0 592 246" fill="none" xmlns="http://www.w3.org/2000/svg">
  <path d="M0.666667 167.5C0.666667 170.446 3.05448 172.833 6 172.833C8.94552 172.833 11.3333 170.446 11.3333 167.5C11.3333 164.554 8.94552 162.167 6 162.167C3.05448 162.167 0.666667 164.554 0.666667 167.5ZM592 6L582 0.226497V11.7735L592 6ZM5 167.5V205H7V167.5H5ZM46 246H447.5V244H46V246ZM488.5 205V46H486.5V205H488.5ZM527.5 7H583V5H527.5V7ZM488.5 46C488.5 24.4609 505.961 7 527.5 7V5C504.856 5 486.5 23.3563 486.5 46H488.5ZM447.5 246C470.144 246 488.5 227.644 488.5 205H486.5C486.5 226.539 469.039 244 447.5 244V246ZM5 205C5 227.644 23.3563 246 46 246V244C24.4609 244 7 226.539 7 205H5Z" fill="#F0F0F0" />
</svg>