<svg width="60" height="60" fill="none" xmlns="http://www.w3.org/2000/svg"><path d="M40 0h-6.667v6.667H40V0Zm-6.667 23.333h-6.666V6.667h6.666v16.666ZM60 30h-6.667V16.667H60V30Zm-6.667 6.667h-6.666V30h6.666v6.667Zm-40-6.667H6.667v-6.667h6.666V30Zm-6.666 6.667H0V30h6.667v6.667ZM30 53.333h6.667V60H30v-6.667ZM5 55V45h10v10H5Zm11.667-15H3.333A3.343 3.343 0 0 0 0 43.333v13.334C0 58.5 1.5 60 3.333 60h13.334C18.5 60 20 58.5 20 56.667V43.333C20 41.5 18.5 40 16.667 40ZM5 15V5h10v10H5ZM16.667 0H3.333A3.343 3.343 0 0 0 0 3.333v13.334C0 18.5 1.5 20 3.333 20h13.334C18.5 20 20 18.5 20 16.667V3.333C20 1.5 18.5 0 16.667 0ZM45 55V45h10v10H45Zm11.667-15H43.333A3.343 3.343 0 0 0 40 43.333v13.334C40 58.5 41.5 60 43.333 60h13.334C58.5 60 60 58.5 60 56.667V43.333C60 41.5 58.5 40 56.667 40ZM53.333 6.667v10H40V10h6.667V0H60v6.667h-6.667ZM46.667 30H33.333v-6.667h13.334V30Zm-13.334 6.667h-20V30H20v-6.667h6.667V30h6.666v6.667ZM36.667 40v6.667H30v6.666h-6.667V40h13.334ZM12.5 52.5h-5v-5h5v5Zm0-40h-5v-5h5v5Zm40 40h-5v-5h5v5Z" fill="url(#a)"/><defs><linearGradient id="a" x1="12.983" y1="30.451" x2="39.111" y2="17.107" gradientUnits="userSpaceOnUse"><stop stop-color="#fff"/><stop offset="1" stop-color="#FAFAFA"/></linearGradient></defs></svg>