<svg width="1647" height="680" fill="none" xmlns="http://www.w3.org/2000/svg"><path d="M.667 527a5.333 5.333 0 1 0 10.666 0 5.333 5.333 0 1 0-10.666 0ZM155 0l-5.774 10h11.548L155 0ZM7 527V316.116H5V527h2Zm39-249.884h69v-2H46v2Zm110-41V9h-2v227.116h2Zm-41 41c22.644 0 41-18.357 41-41h-2c0 21.539-17.461 39-39 39v2Zm-108 39c0-21.539 17.46-39 39-39v-2c-22.644 0-41 18.356-41 41h2ZM981.167 674.5a5.332 5.332 0 0 0 5.333 5.333 5.332 5.332 0 0 0 5.333-5.333 5.332 5.332 0 0 0-5.333-5.333 5.332 5.332 0 0 0-5.333 5.333ZM1640.5 204l-5.77 10h11.54l-5.77-10Zm-485.74 395.93-.41-.914.41.914Zm-167.855 75.484 168.255-74.569-.81-1.829-168.255 74.57.81 1.828ZM1170.97 597.5H1558v-2h-387.03v2Zm428.03-41v-69.25h-2v69.25h2Zm42.5-111.75V213h-2v231.75h2ZM1619.25 467c12.29 0 22.25-9.962 22.25-22.25h-2c0 11.184-9.07 20.25-20.25 20.25v2ZM1599 487.25c0-11.184 9.07-20.25 20.25-20.25v-2c-12.29 0-22.25 9.962-22.25 22.25h2Zm-41 110.25c22.64 0 41-18.356 41-41h-2c0 21.539-17.46 39-39 39v2Zm-402.84 3.345a39.017 39.017 0 0 1 15.81-3.345v-2c-5.73 0-11.38 1.198-16.62 3.516l.81 1.829Z" fill="#F0F0F0"/></svg>