<svg width="210" height="210" fill="none" xmlns="http://www.w3.org/2000/svg"><path d="m194.194 113.818-.104 1.684a5.365 5.365 0 0 1-2.124-.827 4.052 4.052 0 0 1-1.42-1.681c-.326-.707-.457-1.573-.394-2.596a4.874 4.874 0 0 1 .547-2.018 4.547 4.547 0 0 1 1.291-1.496 5.579 5.579 0 0 1 1.931-.903c.745-.188 1.566-.255 2.46-.2l1.272.079c.895.055 1.698.222 2.409.501.716.285 1.32.666 1.813 1.142.493.483.86 1.049 1.102 1.698.242.649.338 1.368.289 2.157-.059.965-.291 1.77-.695 2.414a3.91 3.91 0 0 1-1.605 1.46c-.66.334-1.414.52-2.262.555l.104-1.684c.602-.045 1.123-.165 1.563-.361.447-.196.8-.491 1.059-.886.259-.395.409-.923.45-1.583.035-.568-.042-1.074-.232-1.521a3.031 3.031 0 0 0-.854-1.135 4.285 4.285 0 0 0-1.39-.738 7.263 7.263 0 0 0-1.837-.334l-1.29-.079a7.7 7.7 0 0 0-1.775.084c-.558.1-1.053.272-1.485.515-.432.244-.78.566-1.046.966-.259.401-.407.885-.442 1.452-.044.719.034 1.3.236 1.741.202.441.509.783.923 1.025.413.249.915.438 1.506.569Zm8.104 6.431-.351 1.605-11.088 1.868 9.299 6.315-.353 1.614-11.39-7.815.274-1.254 13.609-2.333Zm.114-.524-.31 1.417-7.675-1.435-4.877-1.066.36-1.649 12.502 2.733Zm-2.41 11.025-.309 1.416-12.502-2.732.36-1.649 4.877 1.066 7.574 1.899Zm-10.834 12.482-.752-.295c-.895-.351-1.653-.778-2.274-1.28-.622-.502-1.098-1.06-1.43-1.675a4.507 4.507 0 0 1-.543-1.96c-.033-.686.093-1.392.378-2.117a5.064 5.064 0 0 1 1.154-1.785 4.685 4.685 0 0 1 1.734-1.076c.663-.23 1.396-.324 2.197-.28.801.044 1.649.241 2.543.592l.753.295c.894.351 1.649.78 2.262 1.285.617.513 1.091 1.079 1.42 1.699.335.623.519 1.277.551 1.963a5.071 5.071 0 0 1-.368 2.094c-.284.725-.672 1.328-1.163 1.809a4.459 4.459 0 0 1-1.74 1.064c-.663.231-1.393.319-2.19.264-.793-.047-1.637-.246-2.532-.597Zm-.139-1.858.769.302c.709.278 1.365.451 1.968.517.601.073 1.142.042 1.622-.09a2.93 2.93 0 0 0 1.244-.692c.347-.323.62-.739.819-1.246.193-.491.272-.973.237-1.446a3.027 3.027 0 0 0-.444-1.345c-.262-.424-.636-.819-1.121-1.186-.486-.367-1.083-.689-1.792-.967l-.769-.302c-.715-.281-1.377-.453-1.988-.516-.605-.061-1.152-.024-1.64.112a3.104 3.104 0 0 0-1.244.692 3.26 3.26 0 0 0-.809 1.221c-.202.513-.285 1.006-.25 1.479.034.473.184.919.448 1.337.267.426.645.817 1.135 1.172.495.358 1.1.678 1.815.958Zm1.7 11.734-11.205-6.182.807-1.462 11.205 6.181-.807 1.463Zm-1.986 3.601-1.216-.671 4.776-8.657 1.216.67-4.776 8.658Zm-10.69 1.732 2.012-2.765 1.115.811-2.011 2.765c-.389.536-.619 1.031-.69 1.487-.071.456-.01.87.183 1.242.19.377.479.707.867.989.356.259.747.424 1.173.495.423.076.85.017 1.281-.177.436-.19.848-.553 1.238-1.089l1.778-2.445-9.225-6.711.997-1.371 10.349 7.527-2.776 3.817c-.569.782-1.185 1.345-1.848 1.688-.663.344-1.336.482-2.017.413-.678-.065-1.322-.32-1.933-.764-.664-.483-1.128-1.035-1.394-1.655-.266-.621-.325-1.291-.179-2.011.152-.716.512-1.465 1.08-2.246Zm-12.57 9.056-1.007-.944 4.632-4.945 1.008.943-4.633 4.946Zm12.731 3.109-9.34-8.748 1.16-1.238 9.34 8.748-1.16 1.238Zm-7.801.28-1.007-.943 4.02-4.292 1.007.943-4.02 4.292Zm3.463 4.351-1.014-.949 4.573-4.882 1.013.95-4.572 4.881Zm-6.369 5.616-8.226-9.803 1.279-1.074 8.226 9.803-1.279 1.074Zm-3.151 2.644-.893-1.064 7.574-6.356.893 1.064-7.574 6.356Zm-6.27-1.977-2.93 1.894c-.787.509-1.537.806-2.25.89-.71.089-1.358-.012-1.944-.303-.586-.291-1.084-.753-1.494-1.388a4.112 4.112 0 0 1-.604-1.452c-.094-.49-.08-.981.042-1.472.126-.485.364-.953.715-1.404.354-.445.826-.858 1.417-1.24l4.015-2.596 6.948 10.746-1.424.921-6.2-9.588-2.59 1.676c-.527.34-.89.711-1.091 1.113-.202.41-.278.822-.227 1.235.051.414.193.8.425 1.159.233.36.522.64.869.841a1.98 1.98 0 0 0 1.186.249c.442-.028.927-.212 1.453-.553l2.93-1.895.754 1.167Zm-13.492 13.495-4.853-11.841 1.57-.643 4.852 11.841-1.569.643Zm-7.295 2.99 2.47-8.621 2.781-1.14.778 1.201-2.091.857-1.995 6.906-1.943.797Zm-3.275-12.488 6.715 3.707-.315 1.734-8.319-4.655 1.919-.786Zm-10.559 4.484-.356-1.333 6.547-1.747.356 1.333-6.547 1.747Zm9.16 9.372-3.3-12.364 1.639-.438 3.3 12.364-1.639.438Zm-6.768-3.888-.356-1.333 5.681-1.517.356 1.334-5.681 1.516Zm.637 5.524-.358-1.341 6.462-1.725.358 1.341-6.462 1.725Zm-6.742-8.758-4.96 10.6-1.681.221-1.672-12.687 1.682-.222 1.289 9.786 4.959-10.609 1.673-.22 1.671 12.687-1.673.22-1.288-9.776Zm-2.759 13.51-1.307.172c-.06-.453-.008-.87.154-1.252.163-.376.427-.689.79-.938.363-.248.812-.408 1.346-.479.808-.106 1.475.025 2.002.393.522.374.829.904.919 1.59l-1.307.172a1.472 1.472 0 0 0-.416-.867c-.232-.236-.586-.322-1.062-.259-.465.061-.779.235-.942.523a1.475 1.475 0 0 0-.177.945Zm-16.018-11.234-1.687-.013c.094-.808.33-1.53.71-2.166a4.063 4.063 0 0 1 1.603-1.508c.689-.364 1.546-.542 2.571-.534.75.006 1.431.152 2.044.438a4.538 4.538 0 0 1 1.564 1.207 5.578 5.578 0 0 1 1.005 1.88c.229.734.34 1.55.333 2.446l-.01 1.275c-.007.896-.13 1.707-.37 2.431-.246.731-.594 1.355-1.043 1.873-.455.518-1 .915-1.635 1.192-.635.276-1.348.411-2.139.405-.967-.007-1.783-.195-2.448-.564a3.899 3.899 0 0 1-1.544-1.523c-.37-.642-.596-1.385-.677-2.229l1.687.013c.078.598.226 1.112.446 1.541.219.436.533.772.941 1.009.408.238.944.359 1.606.364.568.005 1.07-.1 1.505-.313a3.027 3.027 0 0 0 1.088-.915c.29-.396.511-.872.662-1.427.15-.556.228-1.173.234-1.853l.01-1.292a7.709 7.709 0 0 0-.18-1.768 4.716 4.716 0 0 0-.595-1.455 3.006 3.006 0 0 0-1.021-.992c-.414-.238-.905-.359-1.474-.363-.72-.006-1.296.104-1.725.329a2.248 2.248 0 0 0-.974.977c-.226.426-.388.938-.487 1.535Zm-47.313-16.06-1.417-.916a5.39 5.39 0 0 1 1.762-1.446 4.06 4.06 0 0 1 2.161-.413c.776.062 1.595.372 2.456.929.63.407 1.127.896 1.49 1.466.36.567.584 1.186.672 1.858a5.59 5.59 0 0 1-.16 2.125c-.2.743-.545 1.49-1.031 2.243l-.692 1.07c-.487.753-1.026 1.371-1.618 1.854-.599.484-1.227.825-1.884 1.021a4.578 4.578 0 0 1-2.02.128c-.684-.107-1.358-.376-2.022-.805-.812-.525-1.4-1.122-1.763-1.789a3.905 3.905 0 0 1-.486-2.115c.032-.74.24-1.488.624-2.244l1.417.916c-.255.547-.406 1.06-.45 1.54-.05.485.035.937.252 1.357.217.419.604.809 1.16 1.169.477.308.957.489 1.439.543.477.05.946-.013 1.409-.188a4.299 4.299 0 0 0 1.324-.85 7.281 7.281 0 0 0 1.191-1.438l.702-1.085c.34-.527.606-1.056.796-1.589a4.692 4.692 0 0 0 .279-1.547c0-.495-.11-.957-.33-1.385-.221-.422-.571-.788-1.048-1.097-.606-.391-1.15-.607-1.633-.647a2.24 2.24 0 0 0-1.346.301c-.42.239-.83.583-1.234 1.034Zm-9.4 4.025-1.231-1.088 3.765-10.594-10.042 5.048-1.239-1.094 12.372-6.145.962.85-4.587 13.023Zm.402.355-1.087-.96 4.99-6.006 3.305-3.741 1.265 1.117-8.473 9.59Zm-8.457-7.472-1.087-.96 8.473-9.59 1.264 1.117-3.305 3.741-5.345 5.692Zm-5.592-15.496.624-.515c.74-.612 1.48-1.069 2.22-1.369.74-.3 1.46-.446 2.158-.438a4.505 4.505 0 0 1 1.978.474c.616.304 1.173.757 1.67 1.357a5.073 5.073 0 0 1 1.002 1.874c.182.663.216 1.342.1 2.039-.12.692-.393 1.378-.82 2.057-.426.68-1.01 1.326-1.75 1.938l-.623.515c-.741.612-1.481 1.065-2.22 1.357-.748.291-1.473.43-2.175.418a4.559 4.559 0 0 1-1.984-.469 5.073 5.073 0 0 1-1.653-1.337c-.496-.601-.836-1.232-1.019-1.894a4.46 4.46 0 0 1-.088-2.038c.12-.692.397-1.373.83-2.043.427-.672 1.01-1.313 1.75-1.926Zm1.693.779-.636.526c-.588.486-1.056.976-1.407 1.471-.355.491-.59.978-.707 1.463-.117.484-.116.958.003 1.423.114.46.345.901.692 1.321.336.406.72.709 1.15.908.427.194.89.282 1.392.263.498-.024 1.024-.159 1.58-.406.557-.247 1.128-.613 1.715-1.098l.637-.527c.592-.489 1.063-.985 1.415-1.489.347-.5.579-.996.696-1.488.11-.493.109-.968-.002-1.424a3.276 3.276 0 0 0-.676-1.3c-.35-.424-.741-.736-1.172-.935a2.856 2.856 0 0 0-1.387-.256c-.502.027-1.027.169-1.576.425-.553.259-1.125.634-1.717 1.123Zm-11.115-4.266 10.847-6.791.886 1.416-10.847 6.79-.886-1.415Zm-2.182-3.487 1.177-.737 5.246 8.381-1.177.737-5.246-8.381Zm3.689-10.166 1.438 3.102-1.253.58-1.436-3.102c-.279-.601-.6-1.043-.963-1.327a1.98 1.98 0 0 0-1.175-.444 2.757 2.757 0 0 0-1.286.276 2.736 2.736 0 0 0-1.002.784 2.142 2.142 0 0 0-.47 1.205c-.045.473.072 1.01.35 1.611l1.27 2.744 10.352-4.794.713 1.539-11.612 5.377-1.983-4.282c-.407-.878-.599-1.69-.576-2.436.022-.747.23-1.401.621-1.963.386-.56.923-.999 1.608-1.317.745-.344 1.453-.482 2.125-.412.671.07 1.285.344 1.843.822.552.481 1.03 1.16 1.437 2.037Zm-1.796-15.453 1.315-.416 2.043 6.461-1.315.416-2.043-6.461Zm-8.946 9.577 12.201-3.859.511 1.618-12.2 3.858-.512-1.617Zm3.576-6.939 1.316-.416 1.773 5.606-1.316.416-1.773-5.606Zm-5.49.888 1.324-.419 2.017 6.378-1.324.418-2.017-6.377ZM8.3 122.76l12.57-2.398.314 1.641-12.57 2.397-.313-1.64Zm-.77-4.04 1.364-.261 1.853 9.713-1.364.26-1.853-9.712Zm4.764-4.639-.216-3.483c-.057-.935.052-1.735.328-2.397.27-.663.675-1.178 1.216-1.546.541-.368 1.189-.576 1.943-.622a4.128 4.128 0 0 1 1.561.185c.474.159.895.412 1.262.759.362.347.653.784.874 1.311.215.526.343 1.141.387 1.842l.295 4.773-12.773.789-.104-1.693 11.395-.704-.19-3.079c-.04-.626-.184-1.125-.436-1.497a2.15 2.15 0 0 0-.966-.803 2.734 2.734 0 0 0-1.218-.198 2.561 2.561 0 0 0-1.16.345 1.981 1.981 0 0 0-.797.912c-.192.399-.27.912-.23 1.538l.215 3.482-1.386.086ZM7.11 95.52l12.7 1.574-.21 1.683-12.699-1.574.209-1.683Zm.97-7.824 6.303 6.379-.37 2.983-1.428.088.278-2.241-5.042-5.124.259-2.085Zm12.49 3.266-6.523 4.036-1.357-1.124 8.135-4.97-.255 2.058Zm1.238-11.449 1.337.341-1.673 6.567-1.337-.34 1.673-6.568ZM9.156 82.93l12.4 3.16-.418 1.643-12.4-3.159.418-1.644Zm6.699-4.007 1.337.34-1.452 5.698-1.337-.34 1.452-5.698Zm-5.133-2.142 1.346.343-1.651 6.481-1.346-.342 1.652-6.482Zm10.939-1.654-6.806-9.52.631-1.574 11.877 4.763-.631 1.575-9.16-3.674 6.814 9.523-.628 1.566-11.877-4.764.628-1.566 9.152 3.67ZM11.24 66.098l.491-1.224c.424.17.763.42 1.016.749.248.327.391.71.43 1.148.039.438-.042.908-.243 1.408-.303.756-.744 1.273-1.323 1.552-.583.272-1.195.279-1.837.022l.491-1.224c.321.129.641.15.96.063.319-.087.568-.353.746-.8.175-.434.177-.793.006-1.076a1.475 1.475 0 0 0-.737-.618Zm17.512-8.251.837-1.465a5.382 5.382 0 0 1 1.54 1.68c.37.642.546 1.354.532 2.135-.02.778-.283 1.613-.792 2.503-.372.651-.832 1.174-1.381 1.57a4.55 4.55 0 0 1-1.819.773A5.594 5.594 0 0 1 25.54 65c-.753-.16-1.519-.462-2.297-.907l-1.107-.632c-.778-.444-1.425-.948-1.94-1.512-.516-.572-.89-1.18-1.123-1.826a4.589 4.589 0 0 1-.24-2.009c.07-.689.301-1.377.694-2.064.479-.84 1.042-1.46 1.689-1.859.646-.4 1.341-.6 2.084-.601.74-.01 1.499.157 2.275.5l-.837 1.465c-.56-.225-1.08-.347-1.562-.366a2.376 2.376 0 0 0-1.34.327c-.408.24-.775.648-1.104 1.223-.282.493-.436.982-.463 1.466-.023.48.065.945.266 1.397.203.447.51.872.921 1.275.411.403.912.773 1.502 1.11l1.122.64a7.649 7.649 0 0 0 1.63.709c.545.156 1.065.22 1.56.193.495-.028.95-.163 1.365-.405.41-.245.755-.615 1.037-1.108.357-.626.543-1.181.557-1.666a2.241 2.241 0 0 0-.376-1.328c-.26-.405-.628-.797-1.1-1.175Zm41-35.283 1.529-.715c.263.77.36 1.523.29 2.26a4.058 4.058 0 0 1-.796 2.051c-.465.625-1.162 1.155-2.09 1.59-.68.317-1.358.479-2.034.485a4.55 4.55 0 0 1-1.932-.417 5.592 5.592 0 0 1-1.716-1.264c-.523-.564-.974-1.252-1.354-2.064l-.54-1.155c-.38-.812-.617-1.597-.712-2.354-.093-.765-.048-1.478.134-2.14a4.587 4.587 0 0 1 .963-1.779c.454-.523 1.04-.952 1.756-1.287.876-.41 1.693-.59 2.452-.545a3.902 3.902 0 0 1 2.05.71c.61.42 1.134.994 1.57 1.72l-1.528.716c-.328-.507-.683-.907-1.066-1.2a2.376 2.376 0 0 0-1.284-.506c-.47-.038-1.006.083-1.606.363-.515.241-.922.551-1.223.931a3.028 3.028 0 0 0-.589 1.294 4.294 4.294 0 0 0 .018 1.574c.103.566.299 1.157.586 1.773l.548 1.17c.265.568.573 1.074.923 1.518a4.7 4.7 0 0 0 1.164 1.057c.42.263.87.415 1.348.456.477.036.972-.066 1.487-.307.653-.305 1.124-.652 1.415-1.04.29-.388.444-.822.459-1.301.02-.482-.053-1.013-.222-1.595Zm1.715-10.218 1.578-.46 6.944 8.844 1.098-11.187 1.586-.462-1.415 13.741-1.232.36-8.559-10.836Zm-.514.15 1.392-.405 2.412 7.426 1.396 4.793-1.62.472-3.58-12.286ZM81.787 9.34l1.392-.406 3.58 12.286-1.62.472-1.396-4.793-1.956-7.56Zm16.455 3.463.1.803c.118.953.105 1.823-.04 2.608-.145.786-.408 1.47-.79 2.056a4.496 4.496 0 0 1-1.464 1.412c-.587.356-1.268.582-2.041.678a5.072 5.072 0 0 1-2.12-.162 4.684 4.684 0 0 1-1.772-1.012c-.519-.473-.95-1.072-1.294-1.796-.344-.726-.575-1.565-.693-2.518l-.1-.803c-.118-.954-.101-1.82.05-2.6.156-.788.429-1.474.817-2.06a4.555 4.555 0 0 1 1.462-1.42 5.072 5.072 0 0 1 2.015-.675c.773-.096 1.489-.043 2.145.159a4.443 4.443 0 0 1 1.765 1.021c.52.473.945 1.073 1.277 1.799.337.72.565 1.557.683 2.51Zm-1.566 1.01-.102-.82c-.093-.757-.255-1.416-.484-1.978-.223-.563-.508-1.023-.853-1.382a2.919 2.919 0 0 0-1.202-.763 3.334 3.334 0 0 0-1.486-.126 3.272 3.272 0 0 0-1.384.482c-.393.255-.716.6-.97 1.032-.247.432-.416.95-.507 1.55-.09.603-.09 1.281.004 2.037l.102.82c.094.762.26 1.426.495 1.993.235.562.528 1.024.88 1.388.358.357.758.612 1.202.763.45.151.936.194 1.46.13.546-.068 1.02-.23 1.418-.486.4-.257.72-.6.962-1.032.247-.438.41-.957.489-1.557.078-.606.07-1.29-.024-2.052Zm9.544-7.119-.098 12.797-1.67-.013.099-12.797 1.669.013Zm4.114.032-.011 1.389-9.887-.077.01-1.388 9.888.076Zm6.492 8.504-3.39-.446.18-1.368 3.39.447c.656.086 1.202.052 1.636-.104a1.968 1.968 0 0 0 1.003-.754 2.76 2.76 0 0 0 .456-1.235 2.741 2.741 0 0 0-.126-1.266 2.14 2.14 0 0 0-.767-1.04c-.375-.293-.891-.482-1.548-.568l-2.997-.395-1.49 11.31-1.682-.221 1.671-12.687 4.68.616c.958.126 1.747.399 2.365.817.619.418 1.061.944 1.326 1.575.267.627.35 1.314.252 2.064-.108.813-.37 1.485-.789 2.014-.418.53-.979.903-1.681 1.118-.701.209-1.531.25-2.489.124Zm14.045 6.701-.351 1.334-6.554-1.722.351-1.335 6.554 1.723Zm-3.32-12.678-3.253 12.377-1.641-.431 3.253-12.377 1.641.431Zm3.956 6.73-.35 1.334-5.687-1.495.351-1.334 5.686 1.494Zm2.181-5.116-.353 1.343-6.469-1.7.353-1.344 6.469 1.7Zm7.982 2.89-4.72 11.895-1.552-.616 4.72-11.895 1.552.616Zm3.823 1.517-.512 1.29-9.191-3.646.512-1.29 9.191 3.646Zm1.391 6.488 3.055 1.686c.821.453 1.437.973 1.849 1.561.414.584.632 1.202.652 1.856.021.654-.151 1.312-.516 1.974a4.13 4.13 0 0 1-.994 1.218 3.376 3.376 0 0 1-1.317.659c-.487.12-1.012.13-1.575.035-.559-.102-1.147-.322-1.763-.662l-4.186-2.31 6.181-11.204 1.485.819-5.514 9.997 2.701 1.49c.549.303 1.048.447 1.497.434a2.152 2.152 0 0 0 1.196-.384c.34-.24.613-.548.82-.923.206-.374.316-.762.33-1.163.014-.4-.101-.788-.342-1.162-.234-.377-.626-.716-1.175-1.02l-3.055-1.685.671-1.216Zm18.133 5.315-8.118 9.892-1.312-1.077L163.706 26l1.311 1.077Zm6.094 5.001-8.76 1.918-2.323-1.907.688-1.254 1.746 1.433 7.025-1.523 1.624 1.333Zm-9.436 8.81.075-7.67 1.676-.546-.148 9.532-1.603-1.316Zm9.336 7.465-1.004.947-4.65-4.929 1.004-.947 4.65 4.93ZM174.9 35.84l-9.308 8.782-1.164-1.234 9.308-8.782 1.164 1.234Zm-.202 7.803-1.004.947-4.035-4.277 1.004-.947 4.035 4.277Zm4.557-3.188-1.01.953-4.59-4.865 1.01-.953 4.59 4.865Zm-4.689 9.82 11.682-.705.998 1.372-10.349 7.528-.997-1.372 7.981-5.806-11.688.71-.993-1.365 10.348-7.528.993 1.365-7.975 5.801Zm13.188-4.028.776 1.066c-.37.269-.761.423-1.174.463a2.173 2.173 0 0 1-1.201-.247c-.392-.2-.747-.518-1.064-.954-.479-.658-.683-1.307-.611-1.946.079-.638.399-1.16.958-1.566l.775 1.066a1.477 1.477 0 0 0-.563.779c-.096.316-.003.669.28 1.057.276.38.579.572.909.578.331.006.636-.093.915-.296Zm-2.336 19.137.798 1.486c-.753.305-1.5.444-2.241.416a4.06 4.06 0 0 1-2.092-.682c-.65-.429-1.217-1.095-1.702-1.998a4.877 4.877 0 0 1-.598-2.004c-.041-.67.062-1.32.308-1.952a5.611 5.611 0 0 1 1.167-1.784c.534-.553 1.196-1.042 1.986-1.466l1.123-.603c.789-.424 1.56-.705 2.311-.843.759-.135 1.473-.13 2.143.016a4.59 4.59 0 0 1 1.831.862c.547.425 1.008.985 1.382 1.682.458.852.684 1.658.681 2.418a3.905 3.905 0 0 1-.596 2.086c-.385.633-.928 1.187-1.63 1.664l-.799-1.486c.488-.356.867-.732 1.139-1.131.276-.401.421-.838.433-1.31.013-.473-.138-1-.451-1.584-.269-.5-.602-.89-.998-1.17a3.029 3.029 0 0 0-1.325-.515 4.297 4.297 0 0 0-1.57.105 7.295 7.295 0 0 0-1.737.684l-1.138.611a7.711 7.711 0 0 0-1.465 1.007 4.7 4.7 0 0 0-.99 1.22 3.005 3.005 0 0 0-.381 1.372c-.009.478.12.967.389 1.467.341.635.714 1.087 1.117 1.356.404.268.846.397 1.325.385.482-.006 1.009-.11 1.58-.31Z" fill="#fff"/><circle cx="195" cy="85" r="3" fill="#fff"/><circle cx="44" cy="37" r="3" fill="#fff"/><circle cx="77" cy="194" r="3" fill="#fff"/></svg>