<svg width="788" height="1840" fill="none" xmlns="http://www.w3.org/2000/svg"><path d="M203.167 6a5.333 5.333 0 1 0 10.666 0 5.333 5.333 0 1 0-10.666 0ZM401 1834l-10-5.77v11.54l10-5.77ZM208.5 5H41v2h167.5V5ZM0 46v303h2V46H0Zm41 344h488v-2H41v2Zm527 39v504h2V429h-2Zm41 545h137.5v-2H609v2Zm176.5 39v238h2v-238h-2Zm-39 277h-424v2h424v-2Zm-465 41v463h2v-463h-2Zm41 504H392v-2h-69.5v2Zm-41-41c0 22.64 18.356 41 41 41v-2c-21.539 0-39-17.46-39-39h-2Zm41-504c-22.644 0-41 18.36-41 41h2c0-21.54 17.461-39 39-39v-2Zm463-39c0 21.54-17.461 39-39 39v2c22.644 0 41-18.36 41-41h-2Zm-39-277c21.539 0 39 17.461 39 39h2c0-22.644-18.356-41-41-41v2ZM568 933c0 22.644 18.356 41 41 41v-2c-21.539 0-39-17.461-39-39h-2Zm-39-543c21.539 0 39 17.461 39 39h2c0-22.644-18.356-41-41-41v2ZM0 349c0 22.644 18.356 41 41 41v-2c-21.54 0-39-17.461-39-39H0ZM41 5C18.356 5 0 23.356 0 46h2C2 24.46 19.46 7 41 7V5Z" fill="#F0F0F0"/></svg>