<svg width="260" height="260" fill="none" xmlns="http://www.w3.org/2000/svg"><path d="m222.805 155.153-1.467-.318 2.231-10.295 1.467.318-2.231 10.295Zm2.168-10.005-4.811-1.043.387-1.784 4.813 1.033-.389 1.794Zm-2.508 11.574-4.798-1.059.387-1.784 4.802 1.04-.391 1.803Zm12.858-.705-1.476-.32 1.291-5.96 1.476.32-1.291 5.96Zm-.336 1.551-13.602-2.948.389-1.793 13.601 2.947-.388 1.794Zm1.761-8.127-.391 1.803-5.413-1.467a19.199 19.199 0 0 1-2.229-.728 15.74 15.74 0 0 1-1.801-.85 10.316 10.316 0 0 1-1.412-.932 7.22 7.22 0 0 1-1.012-.972 4.561 4.561 0 0 1-.629-.977 2.819 2.819 0 0 1-.259-.927l.178-.822 1.467.318-.126.579c.139.2.352.438.637.715.285.283.666.584 1.145.903.483.327 1.088.65 1.814.971.725.326 1.598.63 2.619.91l5.412 1.476Zm-18 17.506-1.411-.512 2.511-6.928 1.411.511-2.511 6.929Zm14.057-2.348-13.084-4.742.628-1.734 13.085 4.742-.629 1.734Zm-7.677 3.623-1.411-.511 2.179-6.012 1.411.511-2.179 6.012Zm5.326 2.866-1.42-.515 2.479-6.839 1.419.515-2.478 6.839Zm-1.806 4.4-.844 1.576-12.154-1.336 7.855 9.367-.849 1.584-9.598-11.558.659-1.23 14.931 1.597Zm.275-.514-.744 1.391-7.605-3.779-4.786-2.563.866-1.618 12.269 6.569Zm-5.793 10.82-.744 1.391-12.27-6.57.867-1.618 4.786 2.563 7.361 4.234Zm-15.226 10.096-.699-.534c-.831-.633-1.497-1.305-1.997-2.016-.5-.71-.832-1.436-.995-2.178a4.87 4.87 0 0 1 .016-2.211c.17-.728.512-1.429 1.026-2.103a5.517 5.517 0 0 1 1.739-1.523 5.089 5.089 0 0 1 2.134-.607c.763-.044 1.556.077 2.381.361.825.285 1.653.744 2.484 1.378l.699.533c.831.634 1.492 1.306 1.984 2.018.492.72.818 1.453.978 2.2.165.751.162 1.49-.009 2.218a5.497 5.497 0 0 1-1.009 2.079c-.514.674-1.099 1.189-1.756 1.546-.66.362-1.372.56-2.136.595-.763.043-1.552-.082-2.37-.377-.816-.286-1.639-.746-2.47-1.379Zm.408-1.985.715.545c.658.502 1.293.878 1.904 1.128.607.254 1.182.384 1.723.388a3.167 3.167 0 0 0 1.508-.353c.459-.234.869-.587 1.228-1.058a3.56 3.56 0 0 0 .679-1.442c.101-.5.079-1.013-.064-1.54-.148-.521-.421-1.046-.819-1.574-.398-.528-.927-1.044-1.586-1.546l-.714-.545c-.664-.506-1.306-.883-1.926-1.132-.615-.245-1.197-.368-1.748-.372a3.39 3.39 0 0 0-1.507.353 3.56 3.56 0 0 0-1.211 1.036c-.363.477-.598.967-.702 1.472a3.107 3.107 0 0 0 .07 1.532c.152.525.431 1.047.838 1.565.411.522.948 1.036 1.612 1.543Zm-6.853 7.468 2.49-2.499 1.063 1.033-2.261 2.268c-.373.375-.636.765-.788 1.171a2.086 2.086 0 0 0-.106 1.189c.082.397.287.759.617 1.087.361.36.724.583 1.089.668.365.094.741.05 1.129-.131.387-.172.796-.474 1.228-.908l1.916-1.923-8.788-8.757 1.302-1.307 9.858 9.824-3.218 3.229c-.504.506-1.006.906-1.505 1.199-.495.299-.988.478-1.479.537a2.852 2.852 0 0 1-1.447-.173c-.474-.184-.941-.505-1.401-.964a2.86 2.86 0 0 1-.793-1.411 3.382 3.382 0 0 1 .064-1.663c.157-.573.451-1.134.883-1.685l.147-.784Zm-4.55-4.656 2.941-2.952.328 1.797-2.206 2.215c-.414.415-.693.839-.836 1.272a2.186 2.186 0 0 0-.059 1.277c.114.419.351.809.712 1.168.366.365.747.614 1.144.749.397.134.807.133 1.23-.003.423-.136.855-.425 1.296-.867l1.856-1.862 1.036 1.059-2.537 2.546-.656-.1c-.513.433-1.049.7-1.607.8a3.107 3.107 0 0 1-1.616-.112 3.633 3.633 0 0 1-1.428-.896c-.614-.612-.998-1.265-1.152-1.958-.155-.685-.099-1.381.165-2.089.269-.703.732-1.385 1.389-2.044Zm-11.43 11.748-.924-1.183 5.807-4.538.924 1.182-5.807 4.539Zm13.16 5.474-8.571-10.966 1.453-1.136 8.571 10.966-1.453 1.136Zm-8.43-1.006-.924-1.183 5.038-3.938.924 1.183-5.038 3.938Zm2.992 5.256-.93-1.19 5.731-4.48.93 1.19-5.731 4.48Zm-12.188-2.232 3.189-1.912.772 1.288-3.19 1.911c-.618.37-1.059.768-1.324 1.194-.264.426-.379.867-.345 1.321.03.458.179.911.447 1.359.246.41.567.742.963.994.392.256.844.379 1.358.368.516-.005 1.084-.192 1.701-.563l2.821-1.69-6.377-10.642 1.582-.949 7.154 11.939-4.403 2.638c-.902.54-1.758.842-2.568.903-.81.062-1.541-.086-2.195-.445-.65-.354-1.186-.883-1.609-1.588-.458-.765-.688-1.515-.69-2.25-.002-.734.224-1.43.677-2.088.456-.652 1.135-1.248 2.037-1.788Zm-14.911 6.242-1.681.734c-.265-.844-.349-1.666-.254-2.466a4.424 4.424 0 0 1 .924-2.208c.522-.666 1.295-1.222 2.317-1.669.747-.326 1.489-.483 2.224-.471a4.94 4.94 0 0 1 2.088.507c.665.328 1.276.802 1.832 1.421.552.628 1.023 1.389 1.414 2.282l.554 1.271c.391.893.627 1.753.71 2.579.079.834.011 1.609-.206 2.322a5 5 0 0 1-1.096 1.908c-.508.556-1.157 1.006-1.945 1.35-.964.421-1.857.596-2.681.525a4.251 4.251 0 0 1-2.209-.83c-.652-.473-1.205-1.111-1.66-1.913l1.682-.735c.342.56.717 1.004 1.125 1.334.411.335.872.53 1.382.585.511.055 1.096-.061 1.756-.35.567-.247 1.019-.573 1.357-.978.331-.402.557-.866.675-1.39.113-.523.121-1.093.025-1.711a7.94 7.94 0 0 0-.589-1.944l-.562-1.288a8.399 8.399 0 0 0-.962-1.676 5.108 5.108 0 0 0-1.236-1.182 3.26 3.26 0 0 0-1.453-.533c-.517-.052-1.058.045-1.625.292-.718.314-1.24.678-1.567 1.092a2.437 2.437 0 0 0-.535 1.402c-.036.523.03 1.103.196 1.74Zm-6.281.925-3.639 12.197-1.774.507-3.828-13.38 1.773-.508 2.953 10.32 3.636-12.205 1.765-.505 3.828 13.38-1.764.505-2.95-10.311Zm-18.744 6.295 3.869-.559.952.239c1.042.172 1.878.544 2.508 1.116.631.578 1.017 1.353 1.157 2.324.128.89.042 1.672-.26 2.346-.308.676-.801 1.227-1.48 1.653-.685.427-1.526.713-2.523.857l-4.408.637-1.99-13.775 1.826-.263 1.774 12.279 2.582-.373c1.009-.146 1.735-.495 2.176-1.048.436-.552.595-1.235.477-2.049a3.002 3.002 0 0 0-.536-1.371 2.455 2.455 0 0 0-1.145-.839c-.476-.176-1.042-.217-1.698-.122l-3.075.444-.206-1.496Zm3.24.498 2.437-6.794 1.939-.28-2.532 6.808-1.844.266Zm-87.574-37.265 1.086-1.036 7.27 7.623-1.087 1.036-7.269-7.623Zm7.065 7.408 3.562-3.397 1.26 1.321-3.556 3.404-1.266-1.328Zm-8.173-8.571 3.569-3.376 1.26 1.321-3.556 3.39-1.273-1.335Zm-6.631 11.039 1.093-1.042 4.208 4.413-1.093 1.042-4.208-4.413Zm-1.095-1.148 10.072-9.605 1.266 1.328-10.072 9.605-1.266-1.328Zm5.739 6.018-1.273-1.335 4.251-3.658a19.18 19.18 0 0 1 1.853-1.437 15.884 15.884 0 0 1 1.714-1.014 10.498 10.498 0 0 1 1.564-.646c.49-.15.948-.248 1.373-.292.42-.039.807-.03 1.162.028.345.058.65.16.912.306l.58.608-1.086 1.036-.409-.429c-.243.003-.56.045-.95.126a7.62 7.62 0 0 0-1.389.441c-.541.217-1.148.536-1.82.957-.678.417-1.419.969-2.224 1.658l-4.258 3.651Zm-4.394-24.741 1.215-.88 4.325 5.967-1.216.881-4.324-5.968Zm-5.948 12.952 11.269-8.167 1.082 1.494-11.269 8.167-1.082-1.494Zm1.311-8.387 1.215-.881 3.753 5.178-1.216.88-3.752-5.177Zm-5.361 2.799 1.223-.887 4.268 5.89-1.223.887-4.268-5.89Zm-2.642-3.983-.833-1.582 7.91-9.324-12.158 1.266-.838-1.59 14.95-1.484.651 1.235-9.681 11.479Zm.272.515-.735-1.395 7.388-4.186 4.803-2.532.856 1.624-12.312 6.489Zm-5.723-10.857-.735-1.395 12.311-6.49.856 1.624-4.803 2.531-7.629 3.73Zm.19-18.134.833-.282c.99-.336 1.919-.513 2.787-.532.869-.018 1.657.111 2.363.39a4.881 4.881 0 0 1 1.826 1.248c.51.547.9 1.222 1.172 2.025.264.778.361 1.543.293 2.293-.07.744-.3 1.447-.687 2.11-.39.657-.933 1.248-1.63 1.774-.696.525-1.539.956-2.529 1.292l-.832.282c-.99.336-1.917.509-2.782.519-.872.007-1.663-.132-2.372-.416a4.968 4.968 0 0 1-1.835-1.245 5.523 5.523 0 0 1-1.162-1.998c-.272-.803-.373-1.576-.302-2.32.068-.75.301-1.452.699-2.105.39-.656.934-1.242 1.635-1.755.693-.518 1.534-.944 2.523-1.28Zm1.42 1.447-.851.288c-.785.266-1.451.583-2 .951-.55.361-.978.766-1.284 1.212-.306.447-.489.93-.548 1.448-.062.512.002 1.049.192 1.61.185.543.457.999.818 1.368.358.363.796.632 1.313.807.514.168 1.102.235 1.763.199.66-.036 1.383-.187 2.168-.453l.85-.288c.791-.268 1.463-.59 2.015-.966.546-.374.974-.788 1.284-1.243.302-.459.485-.942.549-1.448.062-.512 0-1.04-.184-1.583-.192-.567-.469-1.035-.83-1.404a3.11 3.11 0 0 0-1.31-.797c-.52-.167-1.109-.226-1.766-.178-.662.049-1.389.208-2.18.477Zm-2.375-9.888.675 3.462-1.45.302-.613-3.143c-.101-.519-.277-.955-.528-1.309a2.09 2.09 0 0 0-.926-.754c-.374-.155-.79-.187-1.246-.098-.5.097-.888.274-1.163.528-.282.25-.457.586-.524 1.008-.075.417-.053.926.064 1.527l.52 2.664 12.177-2.374.353 1.811-13.66 2.663-.873-4.475a7.634 7.634 0 0 1-.15-1.919c.03-.577.159-1.086.385-1.526.218-.445.536-.812.953-1.101.418-.289.946-.496 1.584-.621a2.866 2.866 0 0 1 1.613.134c.507.2.954.528 1.341.985.387.451.687 1.009.901 1.675l.567.561Zm6.406-1.161.797 4.09-1.672-.735-.598-3.068c-.112-.575-.307-1.044-.585-1.405a2.184 2.184 0 0 0-1.026-.764c-.41-.141-.866-.162-1.366-.065-.507.099-.927.275-1.26.528a1.921 1.921 0 0 0-.688 1.02c-.124.427-.127.947-.008 1.56l.503 2.58-1.457.265-.688-3.528.45-.487c-.071-.668.008-1.261.238-1.78a3.12 3.12 0 0 1 .998-1.275 3.63 3.63 0 0 1 1.542-.681c.85-.165 1.606-.118 2.267.143.654.255 1.2.691 1.638 1.307.432.617.737 1.382.915 2.295Zm-3.321-16.026 1.497-.101.496 7.353-1.497.101-.496-7.353Zm-11.917 7.818 13.885-.938.125 1.84-13.886.938-.124-1.84Zm5.564-6.412 1.497-.101.431 6.38-1.497.101-.431-6.38Zm-6.03-.474 1.507-.102.49 7.258-1.506.102-.49-7.258Zm8.677-8.701-.206 3.712-1.498-.083.206-3.712c.04-.719-.043-1.308-.247-1.766-.205-.458-.505-.8-.9-1.026a3.005 3.005 0 0 0-1.377-.392 2.975 2.975 0 0 0-1.363.24c-.431.181-.786.487-1.066.918-.285.431-.448 1.006-.488 1.725l-.181 3.283 12.388.685-.102 1.842-13.896-.769.284-5.125c.058-1.05.288-1.927.69-2.632.404-.706.937-1.228 1.6-1.568.657-.34 1.396-.488 2.217-.442.89.049 1.64.279 2.25.689.609.41 1.059.987 1.35 1.731.284.743.397 1.64.339 2.69Zm3.254-16.225.34-1.803c.847.257 1.574.65 2.18 1.179a4.419 4.419 0 0 1 1.305 2.007c.256.807.281 1.759.074 2.854-.15.802-.439 1.503-.863 2.104a4.935 4.935 0 0 1-1.595 1.44c-.646.365-1.381.602-2.206.713-.83.102-1.724.063-2.682-.117l-1.362-.257c-.958-.181-1.802-.47-2.531-.867-.735-.404-1.335-.897-1.803-1.478a4.986 4.986 0 0 1-.959-1.98c-.173-.733-.18-1.522-.02-2.368.195-1.033.553-1.87 1.076-2.511a4.243 4.243 0 0 1 1.93-1.357c.758-.272 1.596-.37 2.516-.294l-.34 1.803c-.656-.033-1.234.027-1.736.179a2.58 2.58 0 0 0-1.262.812c-.334.391-.567.941-.7 1.648-.115.608-.1 1.165.044 1.672.146.501.402.948.769 1.341.368.387.834.715 1.4.984a7.91 7.91 0 0 0 1.937.609l1.381.26a8.42 8.42 0 0 0 1.927.15 5.115 5.115 0 0 0 1.672-.356 3.255 3.255 0 0 0 1.26-.901c.334-.397.558-.899.673-1.507.145-.77.139-1.407-.02-1.91a2.434 2.434 0 0 0-.856-1.231c-.413-.325-.929-.597-1.549-.818Zm2.757-5.755-8.015-9.887.582-1.75 13.206 4.39-.582 1.75-10.186-3.386 8.024 9.89-.579 1.741-13.206-4.39.578-1.742 10.178 3.384Zm5.188-18.745-1.715 3.514-.733.653c-.728.765-1.505 1.247-2.333 1.446-.833.196-1.69.079-2.572-.351-.808-.394-1.406-.906-1.794-1.535-.385-.635-.563-1.352-.534-2.154.032-.806.27-1.662.71-2.567l1.954-4.003 12.508 6.103-.81 1.658-11.15-5.441-1.144 2.345c-.447.916-.566 1.713-.357 2.39.212.67.687 1.185 1.425 1.546.482.234.96.344 1.436.328.478-.022.924-.18 1.338-.475.413-.295.765-.74 1.055-1.336l1.363-2.791 1.353.67Zm-2.234 2.399 4.246 5.837-.86 1.76-4.204-5.922.818-1.675Zm64.45-48.649.487 1.42-9.962 3.42-.488-1.42 9.963-3.42Zm-9.682 3.324 1.598 4.656-1.727.593-1.607-4.653 1.736-.596Zm11.201-3.845 1.577 4.653-1.727.593-1.595-4.647 1.745-.6Zm-7.26-10.636.491 1.428-5.768 1.98-.49-1.428 5.768-1.98Zm1.502-.515 4.519 13.163-1.736.596-4.52-13.164 1.737-.595Zm-7.866 2.7 1.745-.6 1.548 5.392c.237.808.414 1.569.53 2.283.116.709.184 1.369.206 1.981.022.613 0 1.176-.067 1.69a7.24 7.24 0 0 1-.308 1.37c-.14.398-.31.746-.51 1.044a2.82 2.82 0 0 1-.659.701l-.796.273-.487-1.419.56-.192c.1-.223.194-.528.283-.916.095-.39.155-.872.18-1.446.03-.583-.007-1.268-.109-2.055-.096-.789-.288-1.693-.577-2.712l-1.539-5.394Zm24.128 6.359.293 1.472-7.229 1.437-.292-1.471 7.228-1.438Zm-9.284-10.813 2.714 13.65-1.809.36-2.715-13.65 1.81-.36Zm7.073 4.694.293 1.472-6.272 1.247-.293-1.472 6.272-1.247Zm-.305-6.04.295 1.48-7.134 1.42-.295-1.482 7.134-1.418Zm5.204-.818 1.786-.086 5.102 11.112 3.997-11.553 1.794-.086-4.979 14.174-1.394.068-6.306-13.629Zm-.582.028 1.575-.076.668 8.466.263 5.423-1.833.088-.673-13.9Zm12.259-.593 1.575-.076.673 13.9-1.833.09-.263-5.423-.152-8.49Zm15.924 7.741-.092.875c-.11 1.039-.338 1.957-.685 2.753-.347.796-.795 1.457-1.344 1.982a4.893 4.893 0 0 1-1.899 1.135c-.71.233-1.486.304-2.329.215a5.514 5.514 0 0 1-2.205-.694 5.095 5.095 0 0 1-1.628-1.509c-.433-.629-.743-1.37-.928-2.222-.185-.852-.223-1.799-.113-2.838l.092-.874c.11-1.04.342-1.954.694-2.743.36-.795.817-1.455 1.373-1.98a4.956 4.956 0 0 1 1.899-1.144 5.516 5.516 0 0 1 2.301-.218c.843.09 1.587.322 2.233.698a4.847 4.847 0 0 1 1.618 1.516c.433.63.736 1.37.909 2.22.179.846.214 1.789.104 2.828Zm-1.908.683.095-.894c.087-.824.079-1.562-.026-2.213-.097-.651-.285-1.21-.563-1.675a3.172 3.172 0 0 0-1.084-1.104c-.439-.271-.954-.438-1.543-.5a3.554 3.554 0 0 0-1.584.169c-.48.173-.908.458-1.283.854-.369.397-.675.903-.92 1.518-.244.615-.41 1.334-.497 2.158l-.095.893c-.087.83-.076 1.575.033 2.234.111.652.308 1.215.591 1.687.29.466.652.834 1.084 1.104.44.271.944.437 1.515.497.595.063 1.136.008 1.622-.165a3.116 3.116 0 0 0 1.273-.855c.369-.403.67-.913.902-1.53.232-.622.393-1.348.48-2.178Zm10.124 1.972-3.426-.84.334-1.443 3.11.763c.514.125.984.149 1.41.07.426-.08.784-.254 1.073-.525.297-.275.501-.638.612-1.09.121-.495.124-.92.008-1.277-.108-.361-.34-.66-.695-.899-.347-.242-.818-.437-1.412-.582l-2.637-.646-2.954 12.05-1.791-.44 3.313-13.517 4.428 1.086c.693.17 1.295.393 1.805.669.511.27.919.599 1.224.989.312.384.512.827.599 1.328.088.5.054 1.066-.101 1.697a2.854 2.854 0 0 1-.798 1.409 3.375 3.375 0 0 1-1.457.804c-.571.162-1.204.2-1.898.115l-.747.28Zm-1.634 6.302-4.047-.992 1.369-1.21 3.036.745c.569.14 1.076.159 1.521.058a2.19 2.19 0 0 0 1.124-.61c.3-.314.51-.719.632-1.214.122-.501.139-.956.049-1.365-.09-.41-.303-.76-.638-1.052-.335-.293-.806-.513-1.412-.662l-2.553-.625.371-1.435 3.49.856.254.613c.636.215 1.141.536 1.516.962.376.42.622.9.739 1.441a3.633 3.633 0 0 1-.029 1.686c-.207.841-.567 1.508-1.081 1.998-.506.486-1.131.8-1.873.939-.742.133-1.564.089-2.468-.133Zm16.385 3.821-.538 1.401-6.879-2.642.538-1.401 6.879 2.642Zm-2.079-14.1-4.99 12.992-1.722-.661 4.99-12.992 1.722.662Zm3.476 7.746-.538 1.4-5.97-2.293.539-1.4 5.969 2.293Zm2.967-5.27-.542 1.41-6.79-2.61.541-1.41 6.791 2.61Zm4.384 11.589-3.278-1.755.709-1.323 3.278 1.755c.635.34 1.203.514 1.704.522.502.009.939-.119 1.311-.382.378-.26.69-.621.937-1.082.225-.421.345-.867.358-1.337.019-.467-.108-.918-.381-1.353-.27-.441-.723-.831-1.358-1.171l-2.898-1.552-5.857 10.938-1.626-.871 6.569-12.27 4.525 2.423c.927.497 1.625 1.076 2.094 1.74.469.663.718 1.366.745 2.111.031.74-.148 1.472-.536 2.196-.421.787-.946 1.37-1.575 1.748-.63.379-1.343.543-2.139.492-.794-.056-1.655-.333-2.582-.83Zm13.132 9.664 1.491 1.069c-.59.659-1.253 1.152-1.989 1.479a4.417 4.417 0 0 1-2.37.335c-.84-.108-1.713-.487-2.619-1.137-.663-.475-1.177-1.032-1.543-1.67a4.959 4.959 0 0 1-.633-2.054c-.058-.739.037-1.506.285-2.3.257-.796.67-1.59 1.238-2.383l.808-1.126c.568-.792 1.186-1.435 1.853-1.929.677-.495 1.377-.832 2.101-1.01a4.989 4.989 0 0 1 2.2-.035c.738.153 1.456.48 2.155.981.855.613 1.462 1.291 1.822 2.036.36.744.499 1.518.417 2.322-.073.802-.338 1.603-.795 2.405l-1.492-1.07c.306-.58.497-1.13.571-1.648.078-.525.01-1.02-.204-1.488-.214-.467-.614-.91-1.199-1.33-.502-.36-1.014-.582-1.534-.665a3.294 3.294 0 0 0-1.541.13c-.506.171-1 .456-1.482.855-.482.4-.939.9-1.37 1.5l-.818 1.142a8.38 8.38 0 0 0-.949 1.684 5.097 5.097 0 0 0-.383 1.666c-.025.538.07 1.045.285 1.521.219.471.58.887 1.082 1.247.637.457 1.217.72 1.74.789a2.436 2.436 0 0 0 1.478-.258c.468-.237.933-.59 1.395-1.058Zm3.754 4.657 12.339-3.122 1.344 1.263-9.531 10.142-1.344-1.264 7.351-7.822-12.345 3.129-1.338-1.257 9.532-10.142 1.337 1.257-7.345 7.815Zm15.181 12.965-2.463-3.036-.282-.94c-.387-.983-.496-1.891-.328-2.725.173-.839.641-1.567 1.403-2.185.698-.566 1.414-.893 2.148-.98.737-.081 1.463.06 2.178.425.718.369 1.394.945 2.028 1.726l2.807 3.46-10.808 8.768-1.162-1.433 9.635-7.817-1.645-2.026c-.642-.792-1.314-1.236-2.015-1.331-.697-.091-1.365.123-2.004.64a3.017 3.017 0 0 0-.902 1.164 2.459 2.459 0 0 0-.134 1.413c.093.499.348 1.005.766 1.52l1.957 2.413-1.179.944Zm-1.233-3.037-7.083 1.389-1.234-1.522 7.143-1.315 1.174 1.448Z" fill="#fff"/><circle cx="227.809" cy="107.821" r="3" fill="#fff"/><circle cx="63.809" cy="51.821" r="3" fill="#fff"/><circle cx="95.809" cy="227.821" r="3" fill="#fff"/></svg>