<svg width="231" height="232" fill="none" xmlns="http://www.w3.org/2000/svg"><path d="m220.866 145.662-12.258-3.673.484-1.617 10.928 3.275 1.812-6.045-10.928-3.275.487-1.625 12.258 3.674-2.783 9.286Zm-10.101 10.651-.739-.328c-.878-.391-1.616-.851-2.214-1.38-.598-.53-1.049-1.109-1.353-1.738a4.5 4.5 0 0 1-.455-1.982c-.002-.687.156-1.387.473-2.099a5.075 5.075 0 0 1 1.232-1.731 4.68 4.68 0 0 1 1.781-.997c.673-.201 1.409-.261 2.207-.181.798.079 1.636.314 2.514.705l.739.329c.878.391 1.612.852 2.203 1.384.593.54 1.04 1.127 1.342 1.762.306.637.461 1.299.463 1.986a5.085 5.085 0 0 1-.462 2.074c-.317.712-.731 1.297-1.243 1.756a4.472 4.472 0 0 1-1.786.985c-.673.2-1.406.256-2.2.165-.79-.082-1.624-.319-2.502-.71Zm-.056-1.862.754.336c.696.31 1.344.511 1.944.605.597.099 1.138.093 1.624-.018a2.92 2.92 0 0 0 1.274-.635c.361-.308.652-.71.874-1.208.214-.482.315-.96.302-1.434a3.04 3.04 0 0 0-.384-1.364c-.243-.435-.598-.846-1.067-1.234-.468-.389-1.051-.738-1.747-1.047l-.754-.336c-.702-.312-1.356-.514-1.963-.605-.602-.088-1.15-.075-1.643.039-.49.121-.915.333-1.274.635a3.287 3.287 0 0 0-.864 1.184c-.224.503-.329.992-.315 1.466.013.474.142.926.387 1.356.248.437.608.845 1.082 1.222.478.38 1.068.726 1.77 1.038Zm-10.517 10.84-1.173-.728 5.109-8.228 1.173.727-5.109 8.229Zm4.965-7.997-3.845-2.388.885-1.426 3.85 2.38-.89 1.434Zm-5.744 9.251-3.829-2.398.886-1.426 3.838 2.383-.895 1.441Zm11.354 3.357-1.179-.733 2.957-4.763 1.18.732-2.958 4.764Zm-.769 1.24-10.872-6.751.89-1.433 10.872 6.75-.89 1.434Zm4.033-6.497-.895 1.441-4.236-2.94a17.603 17.603 0 0 1-1.706-1.318 14.674 14.674 0 0 1-1.298-1.292 9.636 9.636 0 0 1-.935-1.243 6.68 6.68 0 0 1-.577-1.155 4.172 4.172 0 0 1-.243-1.04 2.585 2.585 0 0 1 .062-.883l.408-.657 1.172.728-.288.463c.059.216.17.488.332.816.158.333.396.711.712 1.135.318.432.742.899 1.272 1.401.527.506 1.19 1.038 1.988 1.596l4.232 2.948Zm-10.076 13.943-6.482-10.581 1.078-1.354 6.97 11.789-.695.873-.871-.727Zm-11.334-4.49 11.767 3.947.903.685-.695.873-13.06-4.144 1.085-1.361Zm3.842 2.78-1.086-.865 4.479-5.624 1.086.866-4.479 5.623Zm.416 12.219-9.114-8.983 1.172-1.189 9.115 8.982-1.173 1.19Zm-2.887 2.929-.989-.974 6.941-7.043.989.975-6.941 7.042Zm-5.972-.865-2.721 2.184c-.731.587-1.447.958-2.148 1.115-.697.161-1.352.127-1.964-.103-.613-.229-1.156-.639-1.629-1.228a4.13 4.13 0 0 1-.748-1.383 3.368 3.368 0 0 1-.108-1.468c.075-.496.264-.986.567-1.47.307-.479.734-.939 1.282-1.379l3.729-2.992 8.01 9.98-1.323 1.062-7.146-8.904-2.406 1.931c-.489.392-.813.798-.971 1.219-.16.428-.193.845-.1 1.252.093.406.274.776.541 1.109.268.334.585.583.95.748.365.165.767.207 1.205.126.438-.073.901-.306 1.39-.698l2.721-2.184.869 1.083Zm-16.492 10.878 1.32-.754.536.939-1.267.724c-.56.319-.968.657-1.223 1.012-.256.355-.383.718-.381 1.088.002.37.107.738.317 1.104.2.351.47.623.808.814.342.196.743.278 1.203.244.463-.028.979-.205 1.549-.53a3.098 3.098 0 0 0 1.021-.907 2.32 2.32 0 0 0 .445-1.134 1.853 1.853 0 0 0-.248-1.144l1.473-.841c.27.473.413.954.43 1.444.019.495-.069.974-.263 1.436a4.333 4.333 0 0 1-.846 1.302 5.56 5.56 0 0 1-1.328 1.042 6.815 6.815 0 0 1-1.736.718 4.113 4.113 0 0 1-1.584.115 3.019 3.019 0 0 1-1.356-.531c-.406-.287-.758-.69-1.054-1.209a2.614 2.614 0 0 1-.348-1.229 3.142 3.142 0 0 1 .258-1.321c.185-.444.467-.871.846-1.283a6.075 6.075 0 0 1 1.428-1.099Zm1.69-.105-1.32.754c-.626.358-1.219.612-1.78.764-.562.152-1.08.201-1.555.149a2.746 2.746 0 0 1-1.282-.473c-.381-.254-.704-.613-.969-1.076-.296-.519-.457-1.038-.483-1.556a3.305 3.305 0 0 1 .263-1.506c.206-.489.521-.949.943-1.379a6.895 6.895 0 0 1 1.519-1.151 6.455 6.455 0 0 1 1.524-.627 4.747 4.747 0 0 1 1.591-.139 3.467 3.467 0 0 1 1.483.489c.457.279.848.703 1.173 1.273l-1.473.841a2.102 2.102 0 0 0-.889-.848 2.613 2.613 0 0 0-1.29-.256c-.471.026-.95.179-1.439.458-.56.319-.983.676-1.271 1.07-.29.402-.45.814-.479 1.235a2.1 2.1 0 0 0 .284 1.224c.195.341.419.604.673.79.252.193.532.31.839.351.301.044.631.014.991-.09a4.982 4.982 0 0 0 1.153-.497l1.267-.723.527.923Zm-9.762 10.979-.688-12.389 1.592-.681.544 13.684-1.026.439-.422-1.053Zm-7.848-9.329 8.487 9.056.469 1.033-1.026.438-9.531-9.843 1.601-.684Zm2.063 4.27-.545-1.277 6.611-2.826.545 1.277-6.611 2.826Zm-10.025 4.199 3.451-1.006.897.095c.971.023 1.78.254 2.427.694.649.446 1.099 1.102 1.352 1.968.231.793.252 1.516.064 2.169-.193.655-.572 1.22-1.135 1.695-.569.477-1.298.845-2.187 1.104l-3.932 1.146-3.58-12.286 1.628-.474 3.192 10.952 2.304-.671c.9-.262 1.515-.674 1.846-1.234.326-.559.383-1.201.171-1.927a2.765 2.765 0 0 0-.664-1.179 2.263 2.263 0 0 0-1.15-.617c-.456-.099-.977-.063-1.562.107l-2.742.799-.38-1.335Zm3.013.037 1.347-6.499 1.73-.504-1.431 6.523-1.646.48Zm-11.774 3.548 3.198-.535.242 1.341-2.904.485c-.48.08-.885.231-1.216.453-.332.221-.57.499-.717.832-.151.34-.191.721-.121 1.143.078.463.23.823.457 1.082.223.266.527.435.914.507.381.079.849.072 1.404-.021l2.462-.411-1.879-11.252 1.673-.28 2.108 12.622-4.135.691a6.97 6.97 0 0 1-1.767.09c-.53-.042-.994-.172-1.393-.391a2.615 2.615 0 0 1-.989-.904c-.255-.391-.432-.881-.531-1.471a2.632 2.632 0 0 1 .163-1.479c.196-.461.509-.863.939-1.209.424-.344.944-.606 1.562-.786l.53-.507Zm-.909-5.917 3.78-.631-.717 1.518-2.835.474c-.532.089-.967.257-1.306.503a2.004 2.004 0 0 0-.728.924c-.14.374-.171.792-.094 1.254.079.468.23.859.455 1.172.224.313.531.532.92.657s.867.14 1.434.046l2.384-.399.207 1.347-3.26.544-.436-.426c-.616.05-1.159-.038-1.63-.262a2.874 2.874 0 0 1-1.148-.949 3.329 3.329 0 0 1-.587-1.435c-.131-.786-.069-1.479.187-2.08.251-.595.665-1.086 1.242-1.473.578-.382 1.289-.643 2.132-.784Zm-7.761 14.53-.642-12.78 1.694-.085.642 12.78-1.694.085Zm-7.874.396 5.194-7.31 3.002-.151.334 1.392-2.256.113-4.176 5.85-2.098.106Zm1.061-12.867 5.101 5.728-.873 1.531-6.3-7.155 2.072-.104Zm-7.936 4.686-3.969 8.296-1.947-.135 5.255-10.321a9.41 9.41 0 0 1 .49-.838c.177-.264.387-.496.63-.697.243-.2.539-.353.887-.458.342-.105.761-.141 1.258-.106.14.01.306.03.498.061.192.025.317.048.374.07l-.146 1.347a3.782 3.782 0 0 0-.375-.062 13.481 13.481 0 0 0-.412-.037c-.333-.023-.6.026-.803.147a1.547 1.547 0 0 0-.5.476 7.327 7.327 0 0 0-.377.617l-.863 1.64Zm2.273 8.731-2.998-8.2-.311-1.599 1.427-.006 3.776 9.936-1.894-.131Zm-77.128-30.855 9.016-9.081 1.198 1.189-8.038 8.096 4.479 4.446 8.037-8.096 1.204 1.195-9.016 9.081-6.88-6.83Zm-4.64-13.947.638-.497c.758-.59 1.512-1.025 2.26-1.303.749-.279 1.472-.404 2.17-.376a4.514 4.514 0 0 1 1.963.532c.607.322 1.15.791 1.629 1.405a5.08 5.08 0 0 1 .947 1.903c.163.667.177 1.348.04 2.04-.14.689-.432 1.366-.878 2.033-.446.667-1.048 1.295-1.806 1.886l-.639.497c-.758.59-1.51 1.021-2.258 1.291-.756.269-1.484.387-2.186.355a4.562 4.562 0 0 1-1.97-.527 5.08 5.08 0 0 1-1.612-1.384c-.48-.615-.8-1.256-.964-1.924a4.458 4.458 0 0 1-.028-2.039c.14-.688.436-1.361.89-2.018.445-.659 1.046-1.283 1.804-1.874Zm1.67.828-.652.507c-.601.468-1.084.945-1.449 1.43-.369.48-.618.96-.75 1.441a2.92 2.92 0 0 0-.038 1.423c.1.463.319.91.654 1.34.324.416.698.73 1.123.941.42.207.882.308 1.383.304.498-.009 1.029-.129 1.592-.36.563-.23 1.145-.58 1.746-1.048l.652-.507c.605-.472 1.091-.954 1.457-1.448.362-.489.608-.978.74-1.467a3.11 3.11 0 0 0 .04-1.423 3.273 3.273 0 0 0-.638-1.319c-.339-.435-.72-.758-1.145-.969a2.857 2.857 0 0 0-1.379-.297c-.502.013-1.031.139-1.587.379-.56.243-1.144.601-1.75 1.073Zm-4.585-14.331 1.193-.693 4.865 8.375-1.193.693-4.865-8.375Zm4.728 8.14 3.914-2.274.843 1.452-3.91 2.281-.847-1.459Zm-5.47-9.417 3.915-2.254.844 1.452-3.907 2.269-.852-1.467Zm-8.296 8.448 1.2-.698 2.817 4.849-1.2.698-2.817-4.849Zm-.733-1.262 11.066-6.427.847 1.459-11.066 6.427-.847-1.459Zm3.84 6.612-.852-1.467 4.587-2.358a17.793 17.793 0 0 1 1.964-.888c.619-.23 1.202-.41 1.75-.538a9.543 9.543 0 0 1 1.537-.242c.47-.03.9-.019 1.29.033a4.2 4.2 0 0 1 1.033.274c.297.126.547.282.75.469l.389.669-1.193.693-.274-.472a4.83 4.83 0 0 0-.876-.09 6.936 6.936 0 0 0-1.337.095c-.53.078-1.142.233-1.834.466-.694.227-1.475.562-2.343 1.005l-4.59 2.351Zm-7.591-15.474 12.387-.734.686 1.59-13.682.594-.443-1.025 1.052-.425Zm9.3-7.883-9.025 8.521-1.03.473-.443-1.024 9.808-9.568.69 1.598Zm-4.262 2.08 1.274-.551 2.85 6.601-1.274.55-2.85-6.6Zm-11.014-5.482 12.23-3.766.492 1.596-12.23 3.766-.492-1.596Zm-1.21-3.931 1.327-.409 2.91 9.45-1.327.408-2.91-9.449Zm3.664-4.518-.64-3.43c-.172-.922-.162-1.728.03-2.42.187-.69.527-1.252 1.018-1.683.492-.432 1.11-.717 1.852-.856a4.119 4.119 0 0 1 1.572-.007c.49.099.938.298 1.346.598.402.3.744.698 1.028 1.194.277.496.48 1.09.61 1.781l.878 4.7-12.58 2.35-.311-1.668 11.223-2.096-.567-3.032c-.115-.617-.32-1.094-.616-1.432a2.15 2.15 0 0 0-1.057-.679 2.73 2.73 0 0 0-1.233-.047c-.42.079-.79.24-1.108.484a1.988 1.988 0 0 0-.68 1.004c-.142.42-.155.938-.04 1.554l.64 3.43-1.365.255Zm-1.823-19.783.04 1.52-1.08.029-.04-1.459c-.017-.644-.122-1.163-.314-1.556s-.452-.677-.78-.849a2.237 2.237 0 0 0-1.122-.243c-.404.011-.77.121-1.1.329-.334.208-.595.523-.783.944-.193.422-.281.96-.264 1.616.014.492.12.935.318 1.328.192.394.455.703.79.929.328.225.703.332 1.125.321l.046 1.695a3.093 3.093 0 0 1-1.477-.303 3.308 3.308 0 0 1-1.14-.909 4.344 4.344 0 0 1-.75-1.361 5.586 5.586 0 0 1-.291-1.662 6.803 6.803 0 0 1 .187-1.869 4.123 4.123 0 0 1 .646-1.451 3.02 3.02 0 0 1 1.11-.944c.444-.223.966-.343 1.563-.359a2.6 2.6 0 0 1 1.247.274c.393.195.74.478 1.043.851.303.373.547.823.731 1.352a6.05 6.05 0 0 1 .295 1.777Zm-.706 1.54-.041-1.52c-.02-.721.036-1.364.168-1.93.13-.566.332-1.047.602-1.441a2.759 2.759 0 0 1 1.022-.907c.405-.216.873-.331 1.406-.345.598-.016 1.131.086 1.6.308.469.216.87.531 1.204.944.333.413.59.907.77 1.482.18.57.278 1.197.297 1.883a6.44 6.44 0 0 1-.167 1.639 4.75 4.75 0 0 1-.629 1.468c-.293.442-.67.801-1.131 1.077-.462.27-1.02.414-1.677.432l-.045-1.696a2.099 2.099 0 0 0 1.168-.383c.35-.25.628-.588.834-1.016.2-.427.291-.922.276-1.484-.017-.645-.132-1.187-.343-1.627-.217-.445-.505-.78-.862-1.005a2.114 2.114 0 0 0-1.214-.328 2.49 2.49 0 0 0-1.014.221 1.73 1.73 0 0 0-.705.573 2.35 2.35 0 0 0-.389.916 4.95 4.95 0 0 0-.106 1.252l.039 1.458-1.063.029ZM8.41 111.717l11.222 5.296-.16 1.724-12.292-6.039.103-1.112 1.127.131Zm11.941-2.457-12.005 3.149-1.132-.079.104-1.111 13.194-3.692-.16 1.733Zm-4.737-.219 1.383.128-.665 7.159-1.383-.129.665-7.158Zm.994-10.521-.74 3.517-.508.747c-.477.845-1.063 1.449-1.756 1.812-.699.362-1.49.45-2.373.264-.808-.17-1.456-.492-1.943-.966-.486-.48-.805-1.08-.959-1.801-.152-.726-.133-1.543.058-2.449l.844-4.007 12.522 2.637-.35 1.66-11.163-2.351-.495 2.347c-.193.918-.12 1.655.218 2.211.339.55.878.903 1.618 1.059.481.102.933.092 1.353-.029a2.265 2.265 0 0 0 1.087-.723c.302-.356.516-.832.642-1.428l.588-2.795 1.357.295Zm-1.454 2.639 5.096 4.253-.372 1.763-5.077-4.338.353-1.678Zm2.52-12.453-1.047 3.069-1.295-.424.951-2.786c.157-.46.217-.889.179-1.286a1.926 1.926 0 0 0-.393-1.025c-.228-.295-.544-.51-.949-.65-.443-.15-.833-.188-1.17-.11-.339.07-.632.257-.879.563-.25.299-.466.714-.648 1.246l-.806 2.363 10.797 3.684-.548 1.606-12.111-4.133 1.354-3.968a6.968 6.968 0 0 1 .759-1.599c.288-.446.623-.793 1.005-1.04a2.62 2.62 0 0 1 1.265-.441c.466-.04.981.037 1.547.23.499.17.907.452 1.225.846.312.39.518.858.618 1.4.102.535.086 1.118-.049 1.747l.195.707Zm5.64 2.008-1.238 3.626-.997-1.352.928-2.72c.175-.51.234-.973.177-1.389a2.006 2.006 0 0 0-.467-1.079c-.263-.3-.616-.525-1.06-.677-.45-.153-.865-.205-1.247-.156-.382.049-.72.215-1.015.499-.295.283-.535.696-.72 1.24l-.781 2.287-1.284-.457 1.068-3.127.582-.182c.248-.566.583-1.002 1.004-1.31.416-.31.876-.497 1.38-.56a3.332 3.332 0 0 1 1.541.163c.755.258 1.335.642 1.743 1.152.404.504.64 1.101.707 1.793.062.69-.045 1.439-.322 2.249ZM14.08 77.232l11.552 5.507-.73 1.53-11.551-5.506.73-1.531Zm3.393-7.117 3.965 8.044-1.294 2.713-1.382-.367.971-2.039-3.164-6.455.904-1.896Zm10.818 7.046-7.464 1.768-.932-1.496 9.288-2.144-.892 1.872Zm-.518-8.968-5.426-7.426 1.041-1.65 6.6 9.518c.184.268.353.545.506.829.148.28.253.575.315.884.061.31.056.642-.017.998-.069.351-.237.737-.502 1.158a5.616 5.616 0 0 1-.29.41 2.116 2.116 0 0 1-.239.296l-1.116-.767c.044-.048.121-.148.231-.3.105-.156.181-.27.228-.345.178-.283.262-.542.251-.777a1.553 1.553 0 0 0-.182-.666 7.432 7.432 0 0 0-.364-.625l-1.036-1.537Zm-8.766-2.134 8.641 1.245 1.556.483-.671 1.26-10.54-1.382 1.014-1.606Zm63.069-53.415 3.766 12.23-1.613.497-3.357-10.903-6.031 1.857 3.357 10.903-1.621.5-3.766-12.23 9.265-2.854Zm14.782 2.363.137.797c.162.947.188 1.816.08 2.608-.109.791-.34 1.488-.695 2.09a4.498 4.498 0 0 1-1.397 1.477c-.57.383-1.24.64-2.008.772a5.07 5.07 0 0 1-2.124-.065 4.683 4.683 0 0 1-1.817-.929c-.54-.448-1-1.027-1.376-1.735-.377-.708-.646-1.536-.808-2.483l-.136-.798c-.162-.947-.186-1.813-.07-2.6.12-.793.36-1.491.72-2.094a4.557 4.557 0 0 1 1.396-1.487 5.07 5.07 0 0 1 1.982-.767c.768-.131 1.485-.11 2.15.06a4.452 4.452 0 0 1 1.81.94c.54.448.993 1.027 1.359 1.738.37.703.635 1.529.797 2.476Zm-1.518 1.08-.14-.814c-.128-.751-.32-1.402-.574-1.953-.249-.552-.554-.999-.916-1.341a2.92 2.92 0 0 0-1.235-.708 3.336 3.336 0 0 0-1.49-.057c-.52.089-.974.27-1.36.545a3.033 3.033 0 0 0-.922 1.076c-.228.443-.373.967-.436 1.572-.063.605-.03 1.284.098 2.034l.14.815c.129.756.324 1.412.586 1.968.26.55.575.998.943 1.346.373.34.785.576 1.236.707.456.13.944.15 1.464.062.543-.093 1.008-.277 1.395-.551s.691-.632.913-1.075c.226-.448.365-.975.416-1.578.05-.609.011-1.292-.118-2.048Zm14.562 2.711.048 1.38-9.68.336-.048-1.38 9.68-.336Zm-9.408.327.158 4.524-1.678.058-.166-4.523 1.686-.059Zm10.883-.378.14 4.515-1.678.059-.157-4.515 1.695-.059Zm-3.532-11.301.048 1.388-5.604.194-.048-1.387 5.604-.195Zm1.458-.05.445 12.788-1.687.059-.444-12.79 1.686-.058Zm-7.642.265 1.696-.06-.085 5.157a17.691 17.691 0 0 1-.145 2.151 14.716 14.716 0 0 1-.351 1.798 9.574 9.574 0 0 1-.512 1.468 6.67 6.67 0 0 1-.638 1.122 4.161 4.161 0 0 1-.729.782 2.593 2.593 0 0 1-.768.44l-.773.026-.047-1.379.544-.019c.147-.169.311-.412.494-.729.188-.317.37-.725.546-1.224.182-.505.334-1.117.455-1.836.128-.72.201-1.567.22-2.54l.093-5.157Zm17.656.572-5.21 11.262-1.725-.146 5.945-12.338 1.112.095-.122 1.127Zm2.549 11.922-3.241-11.98.07-1.132 1.112.094 3.793 13.166-1.734-.148Zm.183-4.739-.118 1.384-7.163-.61.117-1.383 7.164.61ZM132.06 8.26l-2.445 12.562-1.639-.32 2.445-12.56 1.639.319Zm4.038.787-.266 1.363-9.705-1.89.265-1.363 9.706 1.89Zm2.559 5.387 3.323 1.065c.893.286 1.598.678 2.115 1.176.519.492.852 1.057.998 1.695.147.638.104 1.316-.126 2.036a4.128 4.128 0 0 1-.74 1.387c-.32.384-.708.684-1.165.9a3.847 3.847 0 0 1-1.539.338c-.569.009-1.188-.094-1.857-.309l-4.554-1.458 3.905-12.187 1.615.517-3.483 10.873 2.938.941c.597.192 1.114.237 1.552.138a2.144 2.144 0 0 0 1.099-.608c.288-.302.497-.656.627-1.063.131-.408.164-.81.1-1.205a1.988 1.988 0 0 0-.56-1.075c-.302-.324-.752-.582-1.349-.773l-3.323-1.065.424-1.322Zm18.169 7.682-1.358-.685.487-.965 1.303.657c.575.29 1.082.444 1.519.461.438.017.81-.077 1.118-.283.307-.206.556-.497.746-.874.182-.36.259-.735.231-1.123-.024-.393-.178-.773-.459-1.138-.28-.37-.712-.703-1.298-.999a3.095 3.095 0 0 0-1.319-.35 2.322 2.322 0 0 0-1.192.255 1.846 1.846 0 0 0-.817.838l-1.514-.763c.245-.487.567-.872.967-1.157a3.31 3.31 0 0 1 1.342-.573 4.342 4.342 0 0 1 1.553-.014 5.59 5.59 0 0 1 1.601.532 6.818 6.818 0 0 1 1.557 1.051c.429.387.752.806.971 1.257.218.452.32.927.305 1.424-.015.498-.157 1.014-.426 1.547a2.608 2.608 0 0 1-.832.969 3.148 3.148 0 0 1-1.244.514c-.472.09-.985.09-1.537.003a6.053 6.053 0 0 1-1.704-.584Zm-1.021-1.352 1.357.685c.644.324 1.184.679 1.62 1.063.436.384.764.788.982 1.214.219.425.324.868.314 1.33-.001.458-.122.925-.362 1.401-.269.534-.613.955-1.031 1.262-.412.31-.879.515-1.401.613a4.433 4.433 0 0 1-1.67-.026 6.855 6.855 0 0 1-1.798-.63 6.447 6.447 0 0 1-1.365-.925 4.742 4.742 0 0 1-.994-1.25 3.499 3.499 0 0 1-.412-1.507c-.019-.534.119-1.095.415-1.68l1.515.763a2.104 2.104 0 0 0-.217 1.21c.054.428.22.833.499 1.216.282.379.674.695 1.176.948.575.29 1.107.447 1.594.47.495.02.927-.075 1.294-.283.376-.211.664-.516.864-.913.177-.35.273-.683.287-.998a1.735 1.735 0 0 0-.17-.892 2.358 2.358 0 0 0-.622-.777 4.97 4.97 0 0 0-1.051-.687l-1.303-.657.479-.95Zm14.728 2.131-9.972 7.385-1.444-.956 11.133-7.976.931.617-.648.93Zm-3.48 11.685 2.901-12.068.604-.96.931.616-2.985 13.373-1.451-.961Zm2.433-4.071-.767 1.158-5.994-3.97.767-1.158 5.994 3.97Zm9.072 6.041-2.746-2.321-.416-.8c-.518-.822-.772-1.624-.763-2.407.013-.787.311-1.524.893-2.214.534-.63 1.125-1.048 1.773-1.252.652-.2 1.332-.197 2.04.01.712.21 1.421.615 2.128 1.212l3.128 2.644-8.261 9.773-1.296-1.095 7.365-8.712-1.832-1.55c-.716-.605-1.399-.89-2.049-.857-.645.038-1.212.345-1.7.922a2.766 2.766 0 0 0-.616 1.206 2.26 2.26 0 0 0 .121 1.3c.17.434.487.848.952 1.242l2.182 1.844-.903 1.055Zm-1.635-2.533-6.16 2.469-1.376-1.163 6.228-2.412 1.308 1.106Zm9.487 7.838-2.217-2.367.983-.944 2.012 2.149c.333.355.683.609 1.051.762.368.153.732.198 1.09.135.367-.063.706-.24 1.019-.533.342-.32.558-.647.647-.98.098-.332.07-.68-.084-1.04-.145-.362-.411-.748-.795-1.158l-1.706-1.822-8.327 7.799-1.159-1.238 9.339-8.748 2.866 3.06c.449.478.8.952 1.055 1.42.258.465.407.924.446 1.377.047.453-.021.895-.205 1.324-.184.429-.494.848-.931 1.256-.384.361-.825.59-1.322.685-.492.092-1 .054-1.526-.112-.521-.163-1.027-.45-1.52-.865l-.716-.16Zm-4.422 4.034-2.62-2.797 1.662-.244 1.965 2.098c.369.393.749.663 1.143.808.397.15.787.181 1.172.095.388-.091.754-.297 1.096-.618.346-.324.587-.666.723-1.027.137-.36.149-.737.037-1.13-.111-.393-.363-.8-.756-1.219l-1.652-1.764 1.006-.918 2.26 2.412-.113.6c.382.484.61.985.684 1.501a2.865 2.865 0 0 1-.154 1.481c-.177.48-.467.907-.869 1.284-.582.545-1.194.877-1.836.997-.634.12-1.272.048-1.914-.218-.638-.27-1.249-.717-1.834-1.34Zm16.446-1.589-10.293 7.604-1.008-1.365 10.293-7.603 1.008 1.364Zm4.684 6.342-8.963-.285-1.786-2.418.975-1.048 1.342 1.817 7.184.244 1.248 1.69Zm-11.306 6.232 1.951-7.418 1.758-.12-2.477 9.206-1.232-1.668Zm8.149 3.74 9.105-1.302.967 1.694-11.502 1.356a9.241 9.241 0 0 1-.97.058 3.228 3.228 0 0 1-.928-.138 2.51 2.51 0 0 1-.873-.483c-.278-.226-.54-.555-.787-.988a5.67 5.67 0 0 1-.226-.448 2.182 2.182 0 0 1-.149-.35l1.202-.625c.021.061.074.177.156.345.088.166.154.287.198.363.165.29.355.486.568.587.212.101.437.152.673.152.244.002.485-.007.723-.028l1.843-.193Zm6.002-6.736-5.158 7.044-1.157 1.146-.797-1.184 6.17-8.655.942 1.649Z" fill="#fff"/><circle cx="213" cy="95" r="3" fill="#fff"/><circle cx="49" cy="39" r="3" fill="#fff"/><circle cx="81" cy="215" r="3" fill="#fff"/></svg>