<svg width="139" height="137" fill="none" xmlns="http://www.w3.org/2000/svg"><path d="M84.667 22H74.222v10.444h10.445V22ZM74.222 58.556H63.778V32.444h10.444v26.112ZM116 69h-10.444V48.111H116V69Zm-10.444 10.444H95.111V69h10.445v10.444ZM42.889 69H32.444V58.556H42.89V69ZM32.444 79.444H22V69h10.444v10.444ZM69 105.556h10.444V116H69v-10.444Zm-39.167 2.611V92.5H45.5v15.667H29.833Zm18.278-23.5H27.222c-2.872 0-5.222 2.35-5.222 5.222v20.889c0 2.872 2.35 5.222 5.222 5.222h20.89c2.871 0 5.221-2.35 5.221-5.222v-20.89c0-2.871-2.35-5.221-5.222-5.221ZM29.833 45.5V29.833H45.5V45.5H29.833ZM48.111 22H27.222C24.35 22 22 24.35 22 27.222v20.89c0 2.871 2.35 5.221 5.222 5.221h20.89c2.871 0 5.221-2.35 5.221-5.222V27.222c0-2.872-2.35-5.222-5.222-5.222ZM92.5 108.167V92.5h15.667v15.667H92.5Zm18.278-23.5h-20.89c-2.871 0-5.221 2.35-5.221 5.222v20.889c0 2.872 2.35 5.222 5.222 5.222h20.889c2.872 0 5.222-2.35 5.222-5.222v-20.89c0-2.871-2.35-5.221-5.222-5.221Zm-5.222-52.223v15.667h-20.89V37.667h10.445V22H116v10.444h-10.444ZM95.111 69H74.222V58.556h20.89V69ZM74.222 79.444H42.89V69h10.444V58.556h10.445V69h10.444v10.444Zm5.222 5.223V95.11H69v10.445H58.556v-20.89h20.888Zm-37.86 19.583H33.75v-7.833h7.833v7.833Zm0-62.667H33.75V33.75h7.833v7.833Zm62.666 62.667h-7.833v-7.833h7.833v7.833Z" fill="#F6B611"/></svg>